<?xml version="1.0" encoding="UTF-8"?>
<svg id="_圖層_1" data-name="圖層_1" xmlns="http://www.w3.org/2000/svg" version="1.1" viewBox="0 0 512 512">
  <!-- Generator: Adobe Illustrator 29.5.1, SVG Export Plug-In . SVG Version: 2.1.0 Build 141)  -->
  <defs>
    <style>
      .st0 {
        fill: #fff;
      }
    </style>
  </defs>
  <path class="st0" d="M512,256C512,114.6,397.4,0,256,0S0,114.6,0,256s114.6,256,256,256,256-114.6,256-256ZM42.7,256c0-117.8,95.5-213.3,213.3-213.3s213.3,95.5,213.3,213.3-95.5,213.3-213.3,213.3S42.7,373.8,42.7,256Z"/>
  <path class="st0" d="M377.8,228.4c8.3-8.3,8.3-21.8,0-30.2-8.3-8.3-21.8-8.3-30.2,0l-91.6,91.6-91.6-91.6c-8.3-8.3-21.8-8.3-30.2,0-8.3,8.3-8.3,21.8,0,30.2l106.7,106.7c8.3,8.3,21.8,8.3,30.2,0l106.7-106.7Z"/>
</svg>