<svg width="1516" height="832" viewBox="0 0 1516 832" fill="none" xmlns="http://www.w3.org/2000/svg">
<g clip-path="url(#clip0_973_2670)">
<mask id="mask0_973_2670" style="mask-type:alpha" maskUnits="userSpaceOnUse" x="0" y="0" width="1516" height="832">
<path d="M1484 0H32C14.3269 0 0 14.3269 0 32V800C0 817.673 14.3269 832 32 832H1484C1501.67 832 1516 817.673 1516 800V32C1516 14.3269 1501.67 0 1484 0Z" fill="black" fill-opacity="0.25"/>
</mask>
<g mask="url(#mask0_973_2670)">
<path d="M624.25 338.25H882.75V482.75H624.25V338.25Z" stroke="#BBBBBB"/>
<path d="M586.25 314.25H919.75V506.75H586.25V314.25Z" stroke="#BBBBBB"/>
<path d="M558.25 295.25H947.75V525.75H558.25V295.25Z" stroke="#BBBBBB"/>
<path d="M505.25 261.25H1000.75V559.75H505.25V261.25Z" stroke="#BBBBBB"/>
<path d="M427.25 210.25H1079.75V610.75H427.25V210.25Z" stroke="#BBBBBB"/>
<path d="M283.25 116.25H1223.75V704.75H283.25V116.25Z" stroke="#BBBBBB"/>
<path d="M723.5 482.499L543.778 830.883M723.5 338.671L543.778 -9.71313M674 482.999L337 829.495M674 338.171L337 -8.32513M881.499 482.498L1417.61 830.995M881.499 338.672L1417.61 -9.82513M624.833 482.497L88.72 830.994M624.833 338.673L88.72 -9.82413M840 482.499L1178.11 829.496M840 338.671L1178.11 -8.32613M793.5 482.999L973.222 830.883M793.5 338.17L973.222 -9.71313M758.249 830.998L758.25 482.499M758.249 -9.82812L758.25 338.671M883 409.938H1632.33M624.331 408.938H-125M883 375.5L1627.33 202.5M624.331 374.5L-120 201.5M883 451L1630.83 584M624.332 450L-123.499 583M106.25 11.2489H1336.75V819.749H106.25V11.2489Z" stroke="#BBBBBB"/>
</g>
</g>
<defs>
<clipPath id="clip0_973_2670">
<rect width="1516" height="832" fill="white"/>
</clipPath>
</defs>
</svg>
