<?xml version="1.0" encoding="UTF-8"?>
<svg id="_Слой_1" xmlns="http://www.w3.org/2000/svg" version="1.1" viewBox="0 0 512 512">
  <!-- Generator: Adobe Illustrator 29.6.1, SVG Export Plug-In . SVG Version: 2.1.1 Build 9)  -->
  <defs>
    <style>
      .st0 {
        fill: #fff;
      }
    </style>
  </defs>
  <path class="st0" d="M161.88,434.04c27.77,48.09,79.52,77.96,135.06,77.96,86,0,155.96-69.96,155.96-155.96v-122.11c0-21.9-17.82-39.72-39.72-39.72-8.72,0-16.8,2.82-23.36,7.61-4.46-17.06-20-29.68-38.44-29.68-9.22,0-17.72,3.16-24.47,8.45-5.57-15.22-20.2-26.11-37.32-26.11-8.16,0-15.75,2.47-22.07,6.71v-77.33c0-21.9-17.82-39.72-39.72-39.72s-39.72,17.82-39.72,39.72v210.6c0,2.71-1.59,5.2-4.04,6.34-3.31,1.54-7.18.32-9-2.84l-26.49-45.88c-7.66-13.27-20.04-22.77-34.84-26.73-14.81-3.97-30.27-1.93-43.54,5.73-5.11,2.95-8.76,7.71-10.28,13.4-1.53,5.7-.74,11.64,2.21,16.75l99.8,172.81h-.02ZM76.93,249.05c.18-.66.68-1.88,2.06-2.68,6.12-3.53,12.91-5.34,19.8-5.34,3.45,0,6.92.45,10.35,1.37,10.25,2.75,18.81,9.32,24.12,18.51l26.49,45.88c6.43,11.14,20.08,15.45,31.74,10.02,8.66-4.03,14.25-12.8,14.25-22.35V83.86c0-12.17,9.9-22.07,22.07-22.07s22.07,9.9,22.07,22.07v163.31c0,4.88,3.95,8.83,8.83,8.83s8.83-3.95,8.83-8.83v-52.96c0-12.17,9.9-22.07,22.07-22.07s22.07,9.9,22.07,22.07v52.96c0,4.88,3.95,8.83,8.83,8.83s8.83-3.95,8.83-8.83v-35.31c0-12.17,9.9-22.07,22.07-22.07s22.07,9.9,22.07,22.07v39.72c0,4.88,3.95,8.83,8.83,8.83s8.83-3.95,8.83-8.83v-17.65c0-12.17,9.9-22.07,22.07-22.07s22.07,9.9,22.07,22.07v122.11c0,76.26-62.04,138.3-138.3,138.3-49.25,0-95.14-26.49-119.77-69.14l-99.8-172.81c-.79-1.38-.62-2.69-.44-3.35h-.04Z"/>
  <path class="st0" d="M167.56,129.48c4.2-2.47,5.6-7.88,3.13-12.09-5.96-10.12-9.1-21.71-9.1-33.53,0-36.51,29.7-66.21,66.21-66.21s66.21,29.7,66.21,66.21c0,11.86-3.17,23.5-9.17,33.64-2.48,4.2-1.09,9.61,3.11,12.09,1.41.83,2.96,1.23,4.48,1.23,3.02,0,5.96-1.55,7.61-4.34,7.61-12.87,11.63-27.61,11.63-42.63C311.65,37.62,274.03,0,227.79,0s-83.86,37.62-83.86,83.86c0,14.96,3.99,29.66,11.55,42.49,2.47,4.2,7.88,5.6,12.09,3.13h0Z"/>
</svg>