<svg width="16" height="16" viewBox="0 0 16 16" fill="none" xmlns="http://www.w3.org/2000/svg">
<path fill-rule="evenodd" clip-rule="evenodd" d="M1.77925 0.365159C1.38873 -0.0253654 0.755561 -0.0253654 0.365037 0.365159C-0.0254875 0.755683 -0.0254875 1.38885 0.365037 1.77937L6.58578 8.00012L0.365057 14.2208C-0.0254675 14.6114 -0.0254675 15.2445 0.365057 15.6351C0.755581 16.0256 1.38875 16.0256 1.77927 15.6351L8 9.41433L14.2207 15.6351C14.6112 16.0256 15.2444 16.0256 15.6349 15.6351C16.0255 15.2445 16.0255 14.6114 15.6349 14.2208L9.41421 8.00012L15.635 1.77937C16.0255 1.38885 16.0255 0.755683 15.635 0.365159C15.2444 -0.0253654 14.6113 -0.0253655 14.2207 0.365159L8 6.58591L1.77925 0.365159Z" fill="white"/>
</svg>
