<svg width="16" height="16" viewBox="0 0 16 16" fill="none" xmlns="http://www.w3.org/2000/svg">
<path fill-rule="evenodd" clip-rule="evenodd" d="M3.85292 2.91011C3.59257 2.64976 3.17046 2.64976 2.91011 2.91011C2.64976 3.17046 2.64976 3.59257 2.91011 3.85292L7.05727 8.00008L2.91012 12.1472C2.64977 12.4076 2.64977 12.8297 2.91012 13.09C3.17047 13.3504 3.59258 13.3504 3.85293 13.09L8.00008 8.94289L12.1472 13.09C12.4076 13.3504 12.8297 13.3504 13.09 13.09C13.3504 12.8297 13.3504 12.4076 13.09 12.1472L8.94289 8.00008L13.0901 3.85292C13.3504 3.59257 13.3504 3.17046 13.0901 2.91011C12.8297 2.64976 12.4076 2.64976 12.1472 2.91011L8.00008 7.05727L3.85292 2.91011Z" fill="#404040"/>
</svg>
