<svg width="24" height="24" viewBox="0 0 24 24" fill="none" xmlns="http://www.w3.org/2000/svg">
<path fill-rule="evenodd" clip-rule="evenodd" d="M9.26666 3C8.16209 3 7.26666 3.89543 7.26666 5V7.26668H5C3.89543 7.26668 3 8.16211 3 9.26668V19C3 20.1046 3.89543 21 5 21H14.7333C15.8379 21 16.7333 20.1046 16.7333 19V16.7333H19C20.1046 16.7333 21 15.8379 21 14.7333V5C21 3.89543 20.1046 3 19 3H9.26666ZM16.7333 14.7333H19V5H9.26666V7.26668H14.7333C15.8379 7.26668 16.7333 8.16211 16.7333 9.26668V14.7333ZM5 9.26668L14.7333 9.26668V19H5V9.26668Z" fill="black"/>
</svg>
