<svg width="24" height="24" viewBox="0 0 24 24" fill="none" xmlns="http://www.w3.org/2000/svg">
<g clip-path="url(#clip0_283_5836)">
<path d="M12 3C16.9624 3 21 6.276 21 10.3035C21 11.9156 20.3756 13.3669 19.0706 14.7968C17.1829 16.9703 12.9607 19.6174 12 20.0224C11.0663 20.4161 11.1742 19.8008 11.217 19.5578L11.2204 19.5375L11.3486 18.7669C11.379 18.5374 11.4105 18.1807 11.3194 17.9535C11.2181 17.7026 10.8199 17.5721 10.5274 17.5091C6.20175 16.9388 3 13.9136 3 10.3035C3 6.276 7.03875 3 12 3ZM8.64975 11.6467H6.93412V8.53275C6.93413 8.4864 6.91579 8.44193 6.88312 8.40905C6.85045 8.37617 6.8061 8.35755 6.75975 8.35725H6.1275C6.10445 8.35725 6.08163 8.36179 6.06034 8.37061C6.03905 8.37943 6.0197 8.39236 6.0034 8.40865C5.98711 8.42495 5.97418 8.4443 5.96536 8.46559C5.95654 8.48688 5.952 8.5097 5.952 8.53275V12.4545C5.952 12.5006 5.97112 12.5445 6.0015 12.5749V12.576L6.00375 12.5782L6.006 12.5805C6.03863 12.6119 6.08224 12.6292 6.1275 12.6289H8.64975C8.7465 12.6289 8.82413 12.5501 8.82413 12.4534V11.8234C8.82427 11.8003 8.81988 11.7775 8.8112 11.7561C8.80251 11.7348 8.78971 11.7153 8.77352 11.6989C8.75733 11.6825 8.73806 11.6695 8.71683 11.6605C8.69559 11.6516 8.6728 11.6469 8.64975 11.6467V11.6467ZM9.53963 8.35725C9.49308 8.35725 9.44844 8.37574 9.41553 8.40865C9.38262 8.44157 9.36413 8.4862 9.36413 8.53275V12.4545C9.36413 12.5513 9.44288 12.6289 9.53963 12.6289H10.1719C10.2686 12.6289 10.3463 12.5501 10.3463 12.4545V8.53275C10.3463 8.4864 10.3279 8.44193 10.2952 8.40905C10.2626 8.37617 10.2182 8.35755 10.1719 8.35725H9.53963ZM13.8855 8.35725C13.839 8.35725 13.7943 8.37574 13.7614 8.40865C13.7285 8.44157 13.71 8.4862 13.71 8.53275V10.8615L11.9134 8.436C11.9088 8.43009 11.9039 8.42446 11.8987 8.41912V8.418C11.8952 8.41406 11.8914 8.41031 11.8875 8.40675L11.8841 8.40337C11.8803 8.39969 11.8761 8.3963 11.8718 8.39325H11.8706L11.865 8.38875L11.8616 8.3865C11.8599 8.38519 11.858 8.38406 11.856 8.38312L11.847 8.3775H11.8447L11.8414 8.37525L11.8301 8.37075L11.8256 8.3685C11.8219 8.36717 11.8182 8.36604 11.8144 8.36513H11.8121L11.8087 8.364L11.7986 8.36175H11.7919L11.7885 8.36062H11.784L11.7818 8.3595H11.136C11.0896 8.3595 11.0452 8.37783 11.0123 8.4105C10.9794 8.44317 10.9608 8.48752 10.9605 8.53388V12.4556C10.9605 12.5524 11.0392 12.63 11.136 12.63H11.766C11.8639 12.63 11.9426 12.5512 11.9426 12.4556V10.1269L13.7426 12.5569C13.7546 12.5736 13.7695 12.5881 13.7865 12.5996L13.7876 12.6008L13.7989 12.6075L13.8034 12.6097C13.8063 12.6115 13.8093 12.613 13.8124 12.6142L13.8203 12.6176L13.8259 12.6199C13.8296 12.6211 13.8333 12.6222 13.8371 12.6232H13.8405C13.8551 12.6275 13.8703 12.6297 13.8855 12.63H14.5155C14.6134 12.63 14.6921 12.5512 14.6921 12.4556V8.53275C14.6921 8.4862 14.6736 8.44157 14.6407 8.40865C14.6078 8.37574 14.5632 8.35725 14.5166 8.35725H13.8855V8.35725ZM18.1774 9.16388V8.53388C18.1775 8.51083 18.1731 8.48798 18.1644 8.46663C18.1558 8.44528 18.143 8.42585 18.1268 8.40945C18.1106 8.39305 18.0913 8.37999 18.0701 8.37104C18.0488 8.36208 18.026 8.3574 18.003 8.35725H15.4807C15.4354 8.3573 15.3918 8.37506 15.3593 8.40675H15.3581L15.357 8.409L15.3548 8.41237C15.3233 8.44461 15.3056 8.48774 15.3052 8.53275V12.4545C15.3052 12.5006 15.3244 12.5445 15.3548 12.5749L15.357 12.5782L15.3593 12.5805C15.3919 12.6118 15.4355 12.6291 15.4807 12.6289H18.003C18.0998 12.6289 18.1774 12.5501 18.1774 12.4534V11.8234C18.1775 11.8003 18.1731 11.7775 18.1644 11.7561C18.1558 11.7348 18.143 11.7153 18.1268 11.6989C18.1106 11.6825 18.0913 11.6695 18.0701 11.6605C18.0488 11.6516 18.026 11.6469 18.003 11.6467H16.2863V10.9841H18.0019C18.0986 10.9841 18.1762 10.9054 18.1762 10.8086V10.1786C18.1764 10.1556 18.172 10.1327 18.1633 10.1114C18.1546 10.09 18.1418 10.0706 18.1256 10.0542C18.1095 10.0378 18.0902 10.0247 18.069 10.0158C18.0477 10.0068 18.0249 10.0021 18.0019 10.002H16.2863V9.33938H18.0019C18.0986 9.33938 18.1762 9.26063 18.1762 9.16388H18.1774Z" fill="black"/>
</g>
<defs>
<clipPath id="clip0_283_5836">
<rect width="18" height="18" fill="white" transform="translate(3 3)"/>
</clipPath>
</defs>
</svg>
