<svg width="168" height="43" viewBox="0 0 168 43" fill="none" xmlns="http://www.w3.org/2000/svg">
<g clip-path="url(#clip0_930_29423)">
<path d="M21.876 12.6527L34.9998 9.23047V33.8066L21.876 30.3469V12.6527Z" fill="white"/>
<path d="M0 3.5L21.8762 12.6529V30.3471L0 39.5V3.5Z" fill="#E6E6E6"/>
</g>
<path d="M57.22 10.92C57.18 11.0267 57.1 11.12 56.98 11.2C56.86 11.2667 56.6867 11.2933 56.46 11.28C56.14 11.7333 55.74 12.2333 55.26 12.78C54.78 13.3267 54.2733 13.8267 53.74 14.28H53.44C53.5867 13.88 53.72 13.44 53.84 12.96C53.96 12.4667 54.0733 11.9733 54.18 11.48C54.2867 10.9733 54.3733 10.5133 54.44 10.1L57.22 10.92ZM49.9 10.22C50.6467 10.4467 51.22 10.7133 51.62 11.02C52.0333 11.3267 52.3067 11.6467 52.44 11.98C52.5867 12.3 52.6267 12.6 52.56 12.88C52.5067 13.1467 52.38 13.3667 52.18 13.54C51.98 13.7 51.74 13.7733 51.46 13.76C51.1933 13.7467 50.92 13.62 50.64 13.38C50.6133 12.8467 50.5 12.3067 50.3 11.76C50.1133 11.2 49.9133 10.72 49.7 10.32L49.9 10.22ZM54.22 22.24C54.2067 22.28 54.04 22.3733 53.72 22.52C53.4133 22.6667 52.98 22.74 52.42 22.74H52.04V14.18H54.22V22.24ZM54.82 4.2C54.8067 4.33333 54.7533 4.44667 54.66 4.54C54.58 4.62 54.42 4.68 54.18 4.72V9.76H52.04V3.96L54.82 4.2ZM56.14 15.76C56.14 15.76 56.2067 15.82 56.34 15.94C56.4867 16.0467 56.6667 16.1867 56.88 16.36C57.1067 16.5333 57.34 16.72 57.58 16.92C57.8333 17.12 58.0533 17.3067 58.24 17.48C58.1867 17.6933 58.0067 17.8 57.7 17.8H48.7L48.54 17.24H55L56.14 15.76ZM55.84 12.86C55.84 12.86 55.94 12.94 56.14 13.1C56.34 13.2467 56.5733 13.4333 56.84 13.66C57.1067 13.8867 57.3467 14.1 57.56 14.3C57.52 14.5133 57.3467 14.62 57.04 14.62H49.24L49.08 14.06H54.9L55.84 12.86ZM56.22 8.24C56.22 8.24 56.3267 8.32667 56.54 8.5C56.7533 8.67333 57 8.88 57.28 9.12C57.5733 9.36 57.8333 9.58667 58.06 9.8C58.02 10.0133 57.8467 10.12 57.54 10.12H48.8L48.64 9.56H55.2L56.22 8.24ZM55.48 5.38C55.48 5.38 55.58 5.46667 55.78 5.64C55.9933 5.8 56.24 6 56.52 6.24C56.8 6.46667 57.0533 6.68667 57.28 6.9C57.2267 7.11333 57.0467 7.22 56.74 7.22H49.52L49.36 6.64H54.52L55.48 5.38ZM63.68 5.32L64.74 4.32L66.66 5.86C66.5933 5.92667 66.5 5.99333 66.38 6.06C66.26 6.11333 66.1 6.16 65.9 6.2C65.8867 7.12 65.8533 7.86667 65.8 8.44C65.7467 9.01333 65.66 9.46667 65.54 9.8C65.42 10.12 65.2467 10.36 65.02 10.52C64.7667 10.7067 64.4733 10.8333 64.14 10.9C63.82 10.9533 63.4333 10.98 62.98 10.98C62.98 10.7267 62.96 10.5133 62.92 10.34C62.88 10.1533 62.8 9.99333 62.68 9.86C62.56 9.74 62.4 9.63333 62.2 9.54C62 9.44667 61.7533 9.36667 61.46 9.3V9.04C61.7133 9.05333 62.0067 9.07333 62.34 9.1C62.6733 9.11333 62.92 9.12 63.08 9.12C63.3067 9.12 63.46 9.07333 63.54 8.98C63.66 8.87333 63.74 8.53333 63.78 7.96C63.8333 7.37333 63.8667 6.49333 63.88 5.32H63.68ZM58.12 4.36L60.5 5.32H60.22V22.18C60.22 22.26 60.0667 22.3867 59.76 22.56C59.4533 22.7333 59.0267 22.82 58.48 22.82H58.12V5.32V4.36ZM61.02 12.36C61.34 13.72 61.8333 14.9333 62.5 16C63.1667 17.0533 63.9467 17.9667 64.84 18.74C65.7333 19.5133 66.6733 20.16 67.66 20.68L67.6 20.9C67.16 20.94 66.7733 21.1067 66.44 21.4C66.12 21.6933 65.8667 22.0933 65.68 22.6C64.7867 21.8533 64.0133 21 63.36 20.04C62.7067 19.08 62.16 17.98 61.72 16.74C61.28 15.5 60.9467 14.0867 60.72 12.5L61.02 12.36ZM63.88 12.2L64.96 11.06L66.98 12.74C66.86 12.9133 66.6067 13.02 66.22 13.06C66.0467 14.2733 65.7533 15.48 65.34 16.68C64.9267 17.8667 64.3333 18.98 63.56 20.02C62.7867 21.0467 61.7467 21.94 60.44 22.7L60.26 22.46C61.1533 21.6067 61.86 20.6267 62.38 19.52C62.9 18.4 63.2867 17.2133 63.54 15.96C63.8067 14.7067 63.9867 13.4533 64.08 12.2H63.88ZM65.3 12.2V12.76H59.42V12.2H65.3ZM65.06 5.32V5.88H59.4V5.32H65.06ZM72.86 13.28C73.3133 13.6267 73.8333 13.8867 74.42 14.06C75.0067 14.2333 75.7067 14.3467 76.52 14.4C77.3467 14.44 78.32 14.46 79.44 14.46C79.8933 14.46 80.4667 14.46 81.16 14.46C81.8667 14.46 82.6133 14.46 83.4 14.46C84.1867 14.46 84.9333 14.46 85.64 14.46C86.3467 14.4467 86.9267 14.4333 87.38 14.42V14.68C87.06 14.76 86.8133 14.9333 86.64 15.2C86.48 15.4667 86.4 15.78 86.4 16.14C86.0267 16.14 85.5333 16.14 84.92 16.14C84.3067 16.14 83.6467 16.14 82.94 16.14C82.2467 16.14 81.5867 16.14 80.96 16.14C80.3467 16.14 79.8333 16.14 79.42 16.14C78.2467 16.14 77.24 16.06 76.4 15.9C75.5733 15.74 74.86 15.4667 74.26 15.08C73.66 14.68 73.12 14.12 72.64 13.4L72.86 13.28ZM73.6 8.56C73.44 8.77333 73.2267 9.04667 72.96 9.38C72.6933 9.7 72.4267 10.02 72.16 10.34C71.8933 10.66 71.6533 10.9267 71.44 11.14H71.6L70.86 11.74L69.16 10.4C69.32 10.3067 69.5267 10.2133 69.78 10.12C70.0467 10.0267 70.28 9.97333 70.48 9.96L69.62 10.5C69.8333 10.2733 70.08 9.98667 70.36 9.64C70.64 9.29333 70.9133 8.94667 71.18 8.6C71.46 8.24 71.68 7.94 71.84 7.7L73.6 8.56ZM71.84 7.64L72.78 6.68L74.68 8.4C74.5733 8.52 74.3867 8.60667 74.12 8.66C73.8667 8.7 73.58 8.72 73.26 8.72C72.9533 8.72 72.64 8.7 72.32 8.66L72.1 7.64H71.84ZM72.54 10.58L73.58 9.54L75.4 11.06C75.2933 11.22 75.0467 11.3133 74.66 11.34C74.2467 12.58 73.5667 13.7 72.62 14.7C71.6733 15.6867 70.42 16.4733 68.86 17.06L68.7 16.78C69.8733 16.0733 70.78 15.1733 71.42 14.08C72.0733 12.9733 72.5133 11.8067 72.74 10.58H72.54ZM72.9 7.64V8.2H68.98L68.8 7.64H72.9ZM73.3 10.58V11.14H70.68L70.9 10.58H73.3ZM69.7 4.32C70.5 4.17333 71.1667 4.14 71.7 4.22C72.2467 4.28667 72.6733 4.42667 72.98 4.64C73.2867 4.84 73.4933 5.06667 73.6 5.32C73.72 5.56 73.7467 5.79333 73.68 6.02C73.6133 6.24667 73.4733 6.42667 73.26 6.56C73.06 6.68 72.8 6.70667 72.48 6.64C72.28 6.38667 72.0133 6.12667 71.68 5.86C71.3467 5.59333 70.9933 5.34 70.62 5.1C70.2467 4.86 69.8933 4.67333 69.56 4.54L69.7 4.32ZM72.16 18.54C73.1067 18.5 73.8667 18.5667 74.44 18.74C75.0133 18.9133 75.4333 19.1467 75.7 19.44C75.98 19.72 76.1333 20.0133 76.16 20.32C76.1867 20.6267 76.1133 20.8933 75.94 21.12C75.78 21.36 75.5467 21.5133 75.24 21.58C74.9467 21.66 74.6133 21.6067 74.24 21.42C74.12 21.0867 73.9333 20.7533 73.68 20.42C73.44 20.0733 73.1733 19.7533 72.88 19.46C72.5867 19.1533 72.3 18.9 72.02 18.7L72.16 18.54ZM83.44 16.62C83.4267 16.7533 83.3667 16.86 83.26 16.94C83.1533 17.02 83 17.08 82.8 17.12V20.18C82.8 20.6867 82.7267 21.12 82.58 21.48C82.4467 21.84 82.16 22.12 81.72 22.32C81.28 22.5333 80.6 22.68 79.68 22.76C79.6533 22.44 79.6 22.1533 79.52 21.9C79.4533 21.66 79.3333 21.4667 79.16 21.32C78.9867 21.16 78.7533 21.02 78.46 20.9C78.18 20.78 77.7533 20.68 77.18 20.6V20.32C77.18 20.32 77.3067 20.3267 77.56 20.34C77.8267 20.3533 78.1333 20.3733 78.48 20.4C78.8267 20.4267 79.1533 20.4467 79.46 20.46C79.7667 20.4733 79.98 20.48 80.1 20.48C80.26 20.48 80.3667 20.4533 80.42 20.4C80.4867 20.3467 80.52 20.26 80.52 20.14V16.38L83.44 16.62ZM85.42 16.28C85.42 16.28 85.5333 16.3667 85.76 16.54C85.9867 16.7133 86.2533 16.9267 86.56 17.18C86.8667 17.4333 87.1467 17.6733 87.4 17.9C87.3467 18.1133 87.1667 18.22 86.86 18.22H69.1L68.94 17.66H84.32L85.42 16.28ZM82.26 6.28C82.0067 6.6 81.6867 6.96667 81.3 7.38C80.9133 7.78 80.5533 8.10667 80.22 8.36H79.32C79.3733 8.04 79.42 7.68 79.46 7.28C79.5 6.86667 79.52 6.53333 79.52 6.28H82.26ZM77.92 13.52C77.92 13.5867 77.8267 13.6733 77.64 13.78C77.4667 13.8867 77.24 13.98 76.96 14.06C76.68 14.14 76.3867 14.18 76.08 14.18H75.78V8.04V7.14L78.04 8.04H84.28V8.62H77.92V13.52ZM84.78 4.48C84.74 4.61333 84.6533 4.72 84.52 4.8C84.4 4.86667 84.2333 4.9 84.02 4.9C83.6867 5.16667 83.2733 5.46 82.78 5.78C82.3 6.08667 81.8333 6.35333 81.38 6.58H81.1C81.22 6.20667 81.3333 5.76 81.44 5.24C81.56 4.70667 81.66 4.24 81.74 3.84L84.78 4.48ZM84.54 12.76V13.34H77.12V12.76H84.54ZM84.54 11.16V11.74H77.12V11.16H84.54ZM84.54 9.6V10.18H77.12V9.6H84.54ZM83.02 8.04L84.02 6.98L86.1 8.54C86.0333 8.60667 85.94 8.67333 85.82 8.74C85.7133 8.80667 85.5733 8.86 85.4 8.9V13.44C85.4 13.4933 85.3 13.5733 85.1 13.68C84.9 13.7867 84.66 13.88 84.38 13.96C84.1 14.04 83.8333 14.08 83.58 14.08H83.2V8.04H83.02ZM76.84 3.98C77.6133 3.95333 78.22 4.02 78.66 4.18C79.1 4.34 79.4067 4.54667 79.58 4.8C79.7667 5.04 79.8467 5.28667 79.82 5.54C79.7933 5.79333 79.6867 6.01333 79.5 6.2C79.3267 6.38667 79.1067 6.5 78.84 6.54C78.5733 6.56667 78.28 6.48 77.96 6.28C77.8933 5.88 77.7333 5.48 77.48 5.08C77.24 4.68 76.9733 4.36 76.68 4.12L76.84 3.98ZM85.14 4.88C85.14 4.88 85.26 4.96667 85.5 5.14C85.74 5.31333 86.02 5.52 86.34 5.76C86.66 6 86.9467 6.24 87.2 6.48C87.1467 6.69333 86.96 6.8 86.64 6.8H74.52L74.36 6.22H84.04L85.14 4.88ZM95.48 4L98.48 4.26C98.4667 4.39333 98.4133 4.50667 98.32 4.6C98.2267 4.68 98.06 4.74 97.82 4.78V11.22H95.48V4ZM90.6 7.22H98.84L100.06 5.66C100.06 5.66 100.133 5.72 100.28 5.84C100.44 5.94667 100.633 6.09333 100.86 6.28C101.1 6.46667 101.347 6.66667 101.6 6.88C101.853 7.08 102.087 7.27333 102.3 7.46C102.247 7.67333 102.06 7.78 101.74 7.78H90.76L90.6 7.22ZM88.78 10.9H103.74L105 9.28C105 9.28 105.073 9.34667 105.22 9.48C105.38 9.6 105.58 9.75333 105.82 9.94C106.06 10.1267 106.313 10.3267 106.58 10.54C106.847 10.7533 107.087 10.96 107.3 11.16C107.247 11.36 107.06 11.46 106.74 11.46H88.96L88.78 10.9ZM103.9 4.52L106.48 6.36C106.4 6.45333 106.293 6.52 106.16 6.56C106.027 6.58667 105.84 6.56 105.6 6.48C104.76 7.50667 103.753 8.54 102.58 9.58C101.407 10.62 100.093 11.62 98.64 12.58C97.1867 13.54 95.6133 14.4267 93.92 15.24C92.24 16.04 90.4533 16.7133 88.56 17.26L88.42 16.96C90.1 16.2267 91.7133 15.3733 93.26 14.4C94.8067 13.4267 96.2533 12.3867 97.6 11.28C98.9467 10.16 100.153 9.02667 101.22 7.88C102.287 6.72 103.18 5.6 103.9 4.52ZM93.18 13.9V12.92L95.64 13.9H103.1V14.48H95.5V22.02C95.5 22.1 95.4 22.2 95.2 22.32C95.0133 22.44 94.7667 22.5467 94.46 22.64C94.1667 22.7333 93.8533 22.78 93.52 22.78H93.18V13.9ZM101.76 13.9H101.56L102.66 12.7L104.92 14.44C104.867 14.52 104.773 14.6 104.64 14.68C104.507 14.76 104.333 14.82 104.12 14.86V22.08C104.107 22.12 103.987 22.1867 103.76 22.28C103.547 22.3867 103.287 22.48 102.98 22.56C102.687 22.64 102.407 22.68 102.14 22.68H101.76V13.9ZM94.52 17.18H103.24V17.76H94.52V17.18ZM94.52 20.68H103.24V21.24H94.52V20.68ZM116.64 4.12L120.08 4.44C120.053 4.61333 119.98 4.76 119.86 4.88C119.753 5 119.533 5.08 119.2 5.12V21.76C119.2 21.8533 119.093 21.9667 118.88 22.1C118.68 22.2467 118.42 22.3733 118.1 22.48C117.78 22.6 117.447 22.66 117.1 22.66H116.64V4.12ZM108.64 11.58H123.24L124.74 9.56C124.74 9.56 124.827 9.64 125 9.8C125.187 9.94667 125.42 10.14 125.7 10.38C125.98 10.6067 126.267 10.8533 126.56 11.12C126.867 11.3733 127.14 11.6133 127.38 11.84C127.327 12.0533 127.133 12.16 126.8 12.16H108.8L108.64 11.58ZM132.56 17.56C133.013 18.32 133.553 18.8867 134.18 19.26C134.82 19.62 135.6 19.86 136.52 19.98C137.453 20.0867 138.58 20.14 139.9 20.14C140.327 20.14 140.873 20.14 141.54 20.14C142.22 20.14 142.94 20.14 143.7 20.14C144.46 20.1267 145.18 20.12 145.86 20.12C146.553 20.1067 147.12 20.0933 147.56 20.08V20.32C147.147 20.4267 146.833 20.6733 146.62 21.06C146.42 21.4467 146.313 21.8733 146.3 22.34C145.953 22.34 145.493 22.34 144.92 22.34C144.347 22.34 143.74 22.34 143.1 22.34C142.46 22.34 141.847 22.34 141.26 22.34C140.687 22.34 140.22 22.34 139.86 22.34C138.46 22.34 137.28 22.2067 136.32 21.94C135.36 21.6867 134.567 21.2267 133.94 20.56C133.313 19.88 132.793 18.92 132.38 17.68L132.56 17.56ZM134.16 10.1C134 10.3533 133.8 10.68 133.56 11.08C133.32 11.4667 133.06 11.88 132.78 12.32C132.513 12.7467 132.247 13.16 131.98 13.56C131.727 13.9467 131.5 14.28 131.3 14.56H131.46L130.74 15.22L128.96 13.96C129.12 13.8533 129.313 13.7533 129.54 13.66C129.78 13.5533 130 13.48 130.2 13.44L129.42 14.02C129.633 13.74 129.873 13.4 130.14 13C130.42 12.5867 130.693 12.1533 130.96 11.7C131.24 11.2333 131.5 10.7933 131.74 10.38C131.98 9.96667 132.173 9.61333 132.32 9.32L134.16 10.1ZM132.02 9.3L133.06 8.26L135.14 10.14C135.02 10.26 134.813 10.3467 134.52 10.4C134.24 10.4533 133.92 10.48 133.56 10.48C133.213 10.4667 132.867 10.4333 132.52 10.38L132.28 9.3H132.02ZM132.5 14.04L133.68 12.84L135.7 14.58C135.593 14.74 135.34 14.84 134.94 14.88C134.633 15.88 134.2 16.8667 133.64 17.84C133.093 18.8133 132.413 19.7267 131.6 20.58C130.787 21.4333 129.82 22.1733 128.7 22.8L128.52 22.56C129.267 21.84 129.92 21.0133 130.48 20.08C131.053 19.1333 131.52 18.14 131.88 17.1C132.253 16.06 132.527 15.04 132.7 14.04H132.5ZM133.3 9.3V9.88H129.06L128.88 9.3H133.3ZM134 14.04V14.6H130.52L130.74 14.04H134ZM129.98 4.08C130.953 4.13333 131.733 4.28667 132.32 4.54C132.92 4.78 133.353 5.07333 133.62 5.42C133.9 5.75333 134.053 6.08667 134.08 6.42C134.107 6.75333 134.027 7.04667 133.84 7.3C133.667 7.54 133.427 7.69333 133.12 7.76C132.813 7.82667 132.467 7.75333 132.08 7.54C131.973 7.12667 131.793 6.72 131.54 6.32C131.3 5.92 131.027 5.54 130.72 5.18C130.413 4.80667 130.113 4.48667 129.82 4.22L129.98 4.08ZM143.92 5.34L144.9 4.22L147.02 5.86C146.953 5.94 146.847 6.02 146.7 6.1C146.567 6.16667 146.393 6.22 146.18 6.26V17.44C146.18 17.88 146.12 18.26 146 18.58C145.893 18.8867 145.667 19.1333 145.32 19.32C144.973 19.5067 144.427 19.6267 143.68 19.68C143.667 19.4 143.64 19.1533 143.6 18.94C143.56 18.7133 143.487 18.54 143.38 18.42C143.273 18.2867 143.127 18.1667 142.94 18.06C142.753 17.9533 142.48 17.8733 142.12 17.82V17.54C142.12 17.54 142.187 17.5467 142.32 17.56C142.453 17.56 142.613 17.5667 142.8 17.58C143 17.5933 143.187 17.6067 143.36 17.62C143.547 17.62 143.68 17.62 143.76 17.62C143.92 17.62 144.02 17.5933 144.06 17.54C144.1 17.4733 144.12 17.38 144.12 17.26V5.34H143.92ZM139.9 17.56C139.9 17.6267 139.76 17.7267 139.48 17.86C139.2 17.98 138.893 18.04 138.56 18.04H138.32V12.98V12.28L140 12.98H142.72V13.54H139.9V17.56ZM135.78 5.14V4.46L138.18 5.34H137.84V10.98C137.84 11.7 137.807 12.4333 137.74 13.18C137.687 13.9267 137.553 14.6667 137.34 15.4C137.127 16.1333 136.787 16.8333 136.32 17.5C135.853 18.1667 135.213 18.78 134.4 19.34L134.18 19.16C134.687 18.3867 135.053 17.56 135.28 16.68C135.507 15.7867 135.647 14.86 135.7 13.9C135.753 12.94 135.78 11.9667 135.78 10.98V5.34V5.14ZM142.1 6.34C142.087 6.46 142.033 6.56 141.94 6.64C141.86 6.72 141.72 6.77333 141.52 6.8V11.2H139.76V6.12L142.1 6.34ZM141.38 12.98L142.14 12.18L143.74 13.4C143.647 13.5467 143.453 13.6467 143.16 13.7V17.1C143.16 17.1533 143.08 17.2267 142.92 17.32C142.773 17.4 142.593 17.4733 142.38 17.54C142.18 17.6067 141.987 17.64 141.8 17.64H141.54V12.98H141.38ZM142.66 9.84C142.66 9.84 142.74 9.90667 142.9 10.04C143.073 10.1733 143.273 10.34 143.5 10.54C143.727 10.74 143.927 10.94 144.1 11.14C144.06 11.3533 143.893 11.46 143.6 11.46H138.02L137.86 10.88H141.88L142.66 9.84ZM142.72 7.26C142.72 7.26 142.793 7.32667 142.94 7.46C143.1 7.59333 143.28 7.75333 143.48 7.94C143.693 8.12667 143.887 8.30667 144.06 8.48C144.02 8.69333 143.853 8.8 143.56 8.8H138.02L137.86 8.24H141.98L142.72 7.26ZM142.56 16.18V16.76H138.9V16.18H142.56ZM145.22 5.34V5.9H136.24V5.34H145.22ZM148.64 17.1H163.46L164.86 15.38C164.86 15.38 164.947 15.4467 165.12 15.58C165.293 15.7 165.507 15.86 165.76 16.06C166.027 16.26 166.3 16.48 166.58 16.72C166.873 16.9467 167.147 17.16 167.4 17.36C167.347 17.5733 167.153 17.68 166.82 17.68H148.8L148.64 17.1ZM158.06 7.18H160.62V22.1C160.607 22.1667 160.42 22.2933 160.06 22.48C159.7 22.6667 159.187 22.76 158.52 22.76H158.06V7.18ZM153.4 11.68H162.58L163.88 10.06C163.88 10.06 163.96 10.12 164.12 10.24C164.28 10.36 164.487 10.52 164.74 10.72C164.993 10.9067 165.253 11.1067 165.52 11.32C165.787 11.5333 166.033 11.7333 166.26 11.92C166.207 12.1333 166.02 12.24 165.7 12.24H153.4V11.68ZM152.04 11.68V10.64L154.8 11.68H154.54V17.48H152.04V11.68ZM153.46 3.74L156.76 5C156.707 5.12 156.613 5.21333 156.48 5.28C156.347 5.34667 156.16 5.37333 155.92 5.36C154.987 7.04 153.907 8.48 152.68 9.68C151.467 10.88 150.173 11.8667 148.8 12.64L148.6 12.46C149.187 11.7933 149.78 11 150.38 10.08C150.993 9.14667 151.567 8.14 152.1 7.06C152.633 5.98 153.087 4.87333 153.46 3.74ZM153.48 7.18H163.02L164.42 5.46C164.42 5.46 164.5 5.52 164.66 5.64C164.82 5.76 165.033 5.92 165.3 6.12C165.567 6.32 165.84 6.53333 166.12 6.76C166.413 6.98667 166.687 7.20667 166.94 7.42C166.913 7.52667 166.847 7.60667 166.74 7.66C166.633 7.71333 166.513 7.74 166.38 7.74H153.2L153.48 7.18Z" fill="white"/>
<path d="M57.384 31.564C57.36 31.724 57.244 31.82 57.036 31.852V33.292C57.036 33.364 57.048 33.412 57.072 33.436C57.104 33.46 57.168 33.472 57.264 33.472H57.768C57.856 33.472 57.94 33.472 58.02 33.472C58.108 33.472 58.172 33.472 58.212 33.472C58.252 33.472 58.296 33.472 58.344 33.472C58.4 33.464 58.44 33.456 58.464 33.448C58.504 33.44 58.548 33.432 58.596 33.424C58.652 33.416 58.7 33.408 58.74 33.4H58.86L58.908 33.412C59.06 33.476 59.164 33.54 59.22 33.604C59.276 33.66 59.304 33.744 59.304 33.856C59.304 34 59.252 34.12 59.148 34.216C59.044 34.304 58.868 34.368 58.62 34.408C58.372 34.448 58.032 34.468 57.6 34.468H56.892C56.596 34.468 56.372 34.44 56.22 34.384C56.076 34.32 55.98 34.22 55.932 34.084C55.892 33.948 55.872 33.764 55.872 33.532V31.432L57.384 31.564ZM55.164 31.516C55.156 31.588 55.12 31.652 55.056 31.708C55 31.764 54.912 31.8 54.792 31.816C54.76 32.136 54.708 32.452 54.636 32.764C54.564 33.068 54.432 33.364 54.24 33.652C54.048 33.932 53.752 34.196 53.352 34.444C52.96 34.684 52.424 34.904 51.744 35.104L51.612 34.936C52.076 34.688 52.432 34.432 52.68 34.168C52.936 33.896 53.12 33.612 53.232 33.316C53.352 33.02 53.424 32.712 53.448 32.392C53.472 32.064 53.488 31.724 53.496 31.372L55.164 31.516ZM49.092 37.456C49.172 37.456 49.232 37.448 49.272 37.432C49.32 37.408 49.372 37.332 49.428 37.204C49.468 37.124 49.508 37.044 49.548 36.964C49.588 36.884 49.64 36.764 49.704 36.604C49.768 36.444 49.86 36.208 49.98 35.896C50.1 35.576 50.264 35.144 50.472 34.6C50.68 34.056 50.948 33.356 51.276 32.5L51.468 32.536C51.412 32.792 51.344 33.088 51.264 33.424C51.192 33.752 51.116 34.088 51.036 34.432C50.956 34.776 50.884 35.112 50.82 35.44C50.756 35.76 50.696 36.044 50.64 36.292C50.584 36.532 50.548 36.712 50.532 36.832C50.5 37.008 50.472 37.196 50.448 37.396C50.424 37.588 50.416 37.756 50.424 37.9C50.424 38.068 50.448 38.224 50.496 38.368C50.552 38.512 50.612 38.668 50.676 38.836C50.748 38.996 50.804 39.176 50.844 39.376C50.892 39.576 50.912 39.812 50.904 40.084C50.896 40.38 50.796 40.62 50.604 40.804C50.42 40.988 50.184 41.08 49.896 41.08C49.768 41.08 49.64 41.032 49.512 40.936C49.392 40.848 49.308 40.692 49.26 40.468C49.34 40.052 49.388 39.66 49.404 39.292C49.42 38.916 49.408 38.6 49.368 38.344C49.328 38.088 49.264 37.928 49.176 37.864C49.096 37.808 49.008 37.768 48.912 37.744C48.816 37.712 48.704 37.692 48.576 37.684V37.456C48.576 37.456 48.644 37.456 48.78 37.456C48.924 37.456 49.028 37.456 49.092 37.456ZM48.432 32.704C48.944 32.768 49.344 32.876 49.632 33.028C49.928 33.18 50.136 33.352 50.256 33.544C50.376 33.728 50.428 33.908 50.412 34.084C50.404 34.252 50.34 34.396 50.22 34.516C50.108 34.628 49.964 34.692 49.788 34.708C49.62 34.716 49.436 34.648 49.236 34.504C49.204 34.304 49.14 34.1 49.044 33.892C48.948 33.676 48.836 33.472 48.708 33.28C48.588 33.08 48.464 32.912 48.336 32.776L48.432 32.704ZM49.236 29.956C49.756 30.052 50.164 30.192 50.46 30.376C50.756 30.552 50.96 30.74 51.072 30.94C51.192 31.132 51.236 31.32 51.204 31.504C51.18 31.68 51.104 31.824 50.976 31.936C50.848 32.048 50.692 32.104 50.508 32.104C50.332 32.104 50.148 32.028 49.956 31.876C49.924 31.652 49.864 31.432 49.776 31.216C49.696 30.992 49.596 30.78 49.476 30.58C49.364 30.372 49.248 30.188 49.128 30.028L49.236 29.956ZM55.8 36.016C56.056 36.504 56.392 36.956 56.808 37.372C57.224 37.78 57.68 38.136 58.176 38.44C58.672 38.736 59.164 38.976 59.652 39.16L59.628 39.292C59.076 39.412 58.7 39.832 58.5 40.552C58.044 40.24 57.636 39.868 57.276 39.436C56.916 38.996 56.604 38.496 56.34 37.936C56.076 37.376 55.852 36.76 55.668 36.088L55.8 36.016ZM55.572 36.208C55.172 37.152 54.584 37.996 53.808 38.74C53.032 39.484 52.128 40.116 51.096 40.636L50.988 40.492C51.452 40.116 51.872 39.68 52.248 39.184C52.624 38.688 52.956 38.168 53.244 37.624C53.54 37.08 53.776 36.544 53.952 36.016H55.572V36.208ZM56.268 34.564C56.26 34.644 56.228 34.712 56.172 34.768C56.116 34.816 56.012 34.852 55.86 34.876V40.696C55.86 40.728 55.804 40.776 55.692 40.84C55.58 40.904 55.436 40.96 55.26 41.008C55.092 41.056 54.92 41.08 54.744 41.08H54.492V34.396L56.268 34.564ZM52.536 29.98C52.72 30.524 52.82 30.98 52.836 31.348C52.852 31.716 52.812 32.012 52.716 32.236C52.62 32.452 52.496 32.608 52.344 32.704C52.2 32.792 52.052 32.832 51.9 32.824C51.748 32.808 51.62 32.752 51.516 32.656C51.412 32.552 51.36 32.42 51.36 32.26C51.36 32.092 51.44 31.908 51.6 31.708C51.816 31.58 51.992 31.376 52.128 31.096C52.264 30.808 52.344 30.436 52.368 29.98H52.536ZM58.224 30.712V31.06H52.572V30.712H58.224ZM58.116 34.9C58.116 34.9 58.16 34.936 58.248 35.008C58.344 35.08 58.46 35.176 58.596 35.296C58.74 35.416 58.888 35.544 59.04 35.68C59.192 35.808 59.328 35.932 59.448 36.052C59.416 36.18 59.308 36.244 59.124 36.244H51.396L51.3 35.896H57.372L58.116 34.9ZM57.744 30.712L58.452 30.016L59.664 31.18C59.616 31.236 59.556 31.272 59.484 31.288C59.42 31.304 59.328 31.316 59.208 31.324C59.072 31.436 58.912 31.568 58.728 31.72C58.552 31.872 58.372 32.02 58.188 32.164C58.004 32.308 57.836 32.432 57.684 32.536L57.576 32.464C57.6 32.32 57.632 32.14 57.672 31.924C57.712 31.7 57.752 31.48 57.792 31.264C57.832 31.048 57.86 30.864 57.876 30.712H57.744ZM65.208 29.752C65.752 29.736 66.184 29.784 66.504 29.896C66.824 30.008 67.056 30.152 67.2 30.328C67.344 30.496 67.408 30.672 67.392 30.856C67.384 31.032 67.32 31.188 67.2 31.324C67.088 31.452 66.936 31.532 66.744 31.564C66.552 31.588 66.344 31.536 66.12 31.408C66.048 31.12 65.912 30.832 65.712 30.544C65.52 30.248 65.32 30.004 65.112 29.812L65.208 29.752ZM61.5 31.372V30.904L63.132 31.492H62.916V34.6C62.916 35.112 62.892 35.656 62.844 36.232C62.804 36.808 62.704 37.388 62.544 37.972C62.392 38.548 62.148 39.104 61.812 39.64C61.484 40.168 61.036 40.648 60.468 41.08L60.336 40.996C60.704 40.372 60.968 39.704 61.128 38.992C61.288 38.28 61.388 37.552 61.428 36.808C61.476 36.056 61.5 35.32 61.5 34.6V31.492V31.372ZM70.296 30.484C70.296 30.484 70.34 30.524 70.428 30.604C70.524 30.676 70.64 30.772 70.776 30.892C70.92 31.004 71.068 31.128 71.22 31.264C71.372 31.392 71.508 31.516 71.628 31.636C71.604 31.764 71.496 31.828 71.304 31.828H62.112V31.492H69.552L70.296 30.484ZM68.988 36.664V37.012H63.612L63.504 36.664H68.988ZM68.232 36.664L69.06 35.944L70.284 37.084C70.236 37.148 70.176 37.192 70.104 37.216C70.032 37.232 69.916 37.248 69.756 37.264C68.996 38.4 67.94 39.276 66.588 39.892C65.244 40.508 63.632 40.9 61.752 41.068L61.692 40.9C62.764 40.668 63.74 40.36 64.62 39.976C65.5 39.592 66.26 39.124 66.9 38.572C67.548 38.02 68.044 37.384 68.388 36.664H68.232ZM64.512 36.664C64.8 37.208 65.188 37.66 65.676 38.02C66.172 38.372 66.736 38.66 67.368 38.884C68.008 39.1 68.696 39.26 69.432 39.364C70.176 39.468 70.944 39.54 71.736 39.58V39.712C71.44 39.8 71.2 39.96 71.016 40.192C70.84 40.424 70.716 40.712 70.644 41.056C69.62 40.888 68.696 40.644 67.872 40.324C67.056 40.004 66.352 39.56 65.76 38.992C65.168 38.424 64.7 37.684 64.356 36.772L64.512 36.664ZM70.2 32.476C70.2 32.476 70.264 32.54 70.392 32.668C70.52 32.788 70.672 32.936 70.848 33.112C71.032 33.28 71.188 33.44 71.316 33.592C71.284 33.72 71.176 33.784 70.992 33.784H63.132L63.036 33.436H69.564L70.2 32.476ZM68.412 35.32V35.668H65.076V35.32H68.412ZM69.42 32.272C69.412 32.344 69.38 32.408 69.324 32.464C69.268 32.52 69.168 32.556 69.024 32.572V35.74C69.024 35.764 68.968 35.804 68.856 35.86C68.744 35.908 68.604 35.952 68.436 35.992C68.268 36.032 68.096 36.052 67.92 36.052H67.68V32.116L69.42 32.272ZM66.18 32.272C66.172 32.344 66.14 32.408 66.084 32.464C66.028 32.52 65.928 32.556 65.784 32.572V35.968C65.784 36 65.728 36.04 65.616 36.088C65.504 36.136 65.364 36.18 65.196 36.22C65.028 36.26 64.86 36.28 64.692 36.28H64.452V32.116L66.18 32.272ZM72.696 38.284C72.984 38.172 73.392 38 73.92 37.768C74.448 37.536 75.04 37.268 75.696 36.964C76.36 36.652 77.036 36.328 77.724 35.992L77.784 36.112C77.408 36.496 76.916 36.968 76.308 37.528C75.7 38.08 74.948 38.712 74.052 39.424C74.028 39.592 73.948 39.712 73.812 39.784L72.696 38.284ZM79.284 30.28C79.812 30.264 80.236 30.312 80.556 30.424C80.876 30.528 81.108 30.664 81.252 30.832C81.404 31 81.484 31.172 81.492 31.348C81.5 31.524 81.452 31.68 81.348 31.816C81.252 31.944 81.116 32.028 80.94 32.068C80.764 32.108 80.572 32.072 80.364 31.96C80.308 31.76 80.216 31.564 80.088 31.372C79.96 31.172 79.816 30.984 79.656 30.808C79.504 30.632 79.348 30.484 79.188 30.364L79.284 30.28ZM73.896 33.352C74.512 33.496 75 33.68 75.36 33.904C75.72 34.128 75.976 34.368 76.128 34.624C76.28 34.872 76.352 35.108 76.344 35.332C76.336 35.556 76.268 35.744 76.14 35.896C76.02 36.04 75.86 36.12 75.66 36.136C75.46 36.152 75.248 36.072 75.024 35.896C74.984 35.608 74.9 35.316 74.772 35.02C74.652 34.724 74.504 34.44 74.328 34.168C74.152 33.888 73.972 33.64 73.788 33.424L73.896 33.352ZM82.104 31.408C82.104 31.408 82.152 31.448 82.248 31.528C82.344 31.6 82.464 31.692 82.608 31.804C82.76 31.916 82.916 32.04 83.076 32.176C83.244 32.304 83.392 32.432 83.52 32.56C83.496 32.688 83.384 32.752 83.184 32.752H72.684L72.588 32.404H81.324L82.104 31.408ZM82.884 34.264C82.852 34.32 82.8 34.364 82.728 34.396C82.664 34.42 82.56 34.424 82.416 34.408C82.184 34.592 81.912 34.792 81.6 35.008C81.296 35.224 80.972 35.44 80.628 35.656C80.292 35.864 79.948 36.052 79.596 36.22L79.488 36.1C79.704 35.82 79.92 35.504 80.136 35.152C80.36 34.792 80.564 34.44 80.748 34.096C80.94 33.744 81.088 33.444 81.192 33.196L82.884 34.264ZM78.588 33.16C78.772 33.976 79.036 34.684 79.38 35.284C79.724 35.884 80.12 36.392 80.568 36.808C81.024 37.224 81.504 37.572 82.008 37.852C82.52 38.124 83.032 38.352 83.544 38.536L83.508 38.656C83.212 38.72 82.956 38.876 82.74 39.124C82.532 39.372 82.384 39.668 82.296 40.012C81.8 39.676 81.348 39.308 80.94 38.908C80.54 38.508 80.184 38.048 79.872 37.528C79.56 37 79.288 36.384 79.056 35.68C78.824 34.968 78.636 34.144 78.492 33.208L78.588 33.16ZM78.684 39.34C78.684 39.676 78.64 39.96 78.552 40.192C78.472 40.432 78.296 40.624 78.024 40.768C77.752 40.912 77.332 41.012 76.764 41.068C76.74 40.828 76.704 40.624 76.656 40.456C76.616 40.288 76.544 40.148 76.44 40.036C76.328 39.924 76.184 39.828 76.008 39.748C75.832 39.668 75.576 39.6 75.24 39.544V39.376C75.24 39.376 75.312 39.384 75.456 39.4C75.608 39.408 75.784 39.42 75.984 39.436C76.192 39.444 76.388 39.452 76.572 39.46C76.764 39.468 76.896 39.472 76.968 39.472C77.08 39.472 77.156 39.452 77.196 39.412C77.236 39.372 77.256 39.312 77.256 39.232V29.848L79.104 30.028C79.096 30.108 79.064 30.176 79.008 30.232C78.952 30.288 78.844 30.328 78.684 30.352V39.34ZM86.532 32.14L88.056 32.728H91.92L92.556 31.924L94.068 32.968C94.028 33.024 93.964 33.072 93.876 33.112C93.796 33.152 93.68 33.184 93.528 33.208V38.308H92.052V33.064H87.948V38.308H86.532V32.728V32.14ZM91.248 29.932C91.208 30.132 91.056 30.252 90.792 30.292C90.76 30.548 90.716 30.84 90.66 31.168C90.612 31.488 90.564 31.804 90.516 32.116C90.476 32.42 90.436 32.688 90.396 32.92H89.208C89.232 32.656 89.252 32.344 89.268 31.984C89.284 31.624 89.296 31.248 89.304 30.856C89.32 30.464 89.332 30.096 89.34 29.752L91.248 29.932ZM92.7 36.784V37.12H87.18V36.784H92.7ZM92.7 35.452V35.788H87.18V35.452H92.7ZM92.7 34.12V34.456H87.18V34.12H92.7ZM93.684 30.28C93.684 30.28 93.732 30.316 93.828 30.388C93.932 30.46 94.06 30.556 94.212 30.676C94.364 30.788 94.52 30.912 94.68 31.048C94.848 31.176 95.004 31.3 95.148 31.42C95.116 31.548 95 31.612 94.8 31.612H85.008L84.912 31.264H92.892L93.684 30.28ZM89.64 39.628C89.592 39.7 89.508 39.748 89.388 39.772C89.268 39.788 89.112 39.772 88.92 39.724C88.584 39.916 88.18 40.1 87.708 40.276C87.236 40.46 86.728 40.624 86.184 40.768C85.648 40.912 85.104 41.024 84.552 41.104L84.504 40.96C84.952 40.768 85.404 40.532 85.86 40.252C86.316 39.98 86.732 39.696 87.108 39.4C87.492 39.104 87.8 38.832 88.032 38.584L89.64 39.628ZM91.044 38.86C91.956 38.9 92.7 38.984 93.276 39.112C93.86 39.232 94.308 39.376 94.62 39.544C94.932 39.712 95.136 39.88 95.232 40.048C95.328 40.216 95.344 40.372 95.28 40.516C95.224 40.668 95.12 40.784 94.968 40.864C94.816 40.952 94.644 40.988 94.452 40.972C94.26 40.964 94.076 40.888 93.9 40.744C93.652 40.472 93.288 40.176 92.808 39.856C92.336 39.536 91.736 39.256 91.008 39.016L91.044 38.86ZM94.224 37.12C94.224 37.12 94.272 37.16 94.368 37.24C94.464 37.312 94.588 37.412 94.74 37.54C94.892 37.66 95.048 37.792 95.208 37.936C95.376 38.072 95.528 38.204 95.664 38.332C95.648 38.396 95.608 38.444 95.544 38.476C95.488 38.508 95.416 38.524 95.328 38.524H84.6L84.492 38.176H93.42L94.224 37.12ZM107.832 36.616C107.992 36.976 108.22 37.296 108.516 37.576C108.82 37.856 109.164 38.096 109.548 38.296C109.94 38.488 110.344 38.632 110.76 38.728L110.748 38.86C110.516 38.924 110.32 39.06 110.16 39.268C110.008 39.468 109.9 39.732 109.836 40.06C109.26 39.716 108.8 39.272 108.456 38.728C108.12 38.184 107.864 37.5 107.688 36.676L107.832 36.616ZM108.936 35.752C108.912 35.824 108.864 35.884 108.792 35.932C108.72 35.98 108.616 36.008 108.48 36.016C108.168 36.928 107.772 37.72 107.292 38.392C106.812 39.064 106.256 39.612 105.624 40.036L105.468 39.928C105.732 39.544 105.972 39.108 106.188 38.62C106.404 38.132 106.592 37.604 106.752 37.036C106.912 36.46 107.032 35.872 107.112 35.272L108.936 35.752ZM103.404 35.8C103.38 35.872 103.328 35.932 103.248 35.98C103.176 36.028 103.072 36.052 102.936 36.052C102.616 37.044 102.188 37.868 101.652 38.524C101.124 39.172 100.5 39.692 99.78 40.084L99.648 39.964C100.128 39.428 100.548 38.764 100.908 37.972C101.268 37.172 101.512 36.292 101.64 35.332L103.404 35.8ZM102.024 37.12C102.552 37.304 102.964 37.516 103.26 37.756C103.556 37.988 103.76 38.224 103.872 38.464C103.984 38.696 104.024 38.916 103.992 39.124C103.968 39.324 103.892 39.484 103.764 39.604C103.644 39.716 103.492 39.772 103.308 39.772C103.132 39.772 102.948 39.684 102.756 39.508C102.748 39.252 102.7 38.984 102.612 38.704C102.524 38.424 102.416 38.156 102.288 37.9C102.168 37.636 102.04 37.4 101.904 37.192L102.024 37.12ZM105.672 40.756C105.672 40.788 105.568 40.848 105.36 40.936C105.152 41.032 104.864 41.08 104.496 41.08H104.244V34.804H105.672V40.756ZM109.824 34.792C109.752 34.848 109.644 34.876 109.5 34.876C109.356 34.876 109.172 34.832 108.948 34.744C108.364 34.84 107.704 34.928 106.968 35.008C106.24 35.08 105.472 35.14 104.664 35.188C103.856 35.236 103.04 35.272 102.216 35.296C101.4 35.312 100.608 35.312 99.84 35.296L99.816 35.116C100.544 35.028 101.304 34.916 102.096 34.78C102.896 34.636 103.676 34.484 104.436 34.324C105.204 34.156 105.92 33.98 106.584 33.796C107.256 33.612 107.828 33.436 108.3 33.268L109.824 34.792ZM106.788 30.748V33.04H105.6V30.748H106.788ZM104.292 30.748V33.04H103.116V30.748H104.292ZM107.94 30.592L108.564 29.896L109.92 30.916C109.888 30.964 109.832 31.012 109.752 31.06C109.672 31.1 109.568 31.136 109.44 31.168V33.388C109.44 33.412 109.372 33.448 109.236 33.496C109.108 33.544 108.956 33.592 108.78 33.64C108.604 33.68 108.44 33.7 108.288 33.7H108.06V30.592H107.94ZM101.796 33.664C101.796 33.704 101.736 33.76 101.616 33.832C101.496 33.896 101.344 33.956 101.16 34.012C100.984 34.06 100.8 34.084 100.608 34.084H100.404V30.592V30.004L101.904 30.592H108.864V30.94H101.796V33.664ZM108.78 32.86V33.208H101.064V32.86H108.78ZM121.152 38.524C121.152 38.524 121.22 38.576 121.356 38.68C121.5 38.776 121.668 38.9 121.86 39.052C122.06 39.196 122.24 39.332 122.4 39.46C122.368 39.588 122.26 39.652 122.076 39.652H111.852L111.756 39.316H120.48L121.152 38.524ZM120.192 40.78C120.192 40.812 120.092 40.868 119.892 40.948C119.692 41.036 119.42 41.08 119.076 41.08H118.824V35.872H120.192V40.78ZM115.2 35.86V39.52L113.892 39.544V35.86H115.2ZM120.804 34.996C120.804 34.996 120.876 35.048 121.02 35.152C121.164 35.248 121.332 35.372 121.524 35.524C121.724 35.668 121.9 35.808 122.052 35.944C122.02 36.072 121.912 36.136 121.728 36.136H112.584L112.488 35.788H120.132L120.804 34.996ZM119.676 38.092V38.44H114.36V38.092H119.676ZM119.676 36.94V37.276H114.36V36.94H119.676ZM117.876 32.86C118.164 33.252 118.548 33.556 119.028 33.772C119.508 33.988 120.064 34.14 120.696 34.228C121.328 34.308 122.004 34.352 122.724 34.36L122.736 34.492C122.52 34.564 122.344 34.696 122.208 34.888C122.08 35.072 121.996 35.3 121.956 35.572C121.244 35.46 120.616 35.308 120.072 35.116C119.528 34.916 119.06 34.644 118.668 34.3C118.284 33.948 117.964 33.5 117.708 32.956L117.876 32.86ZM120.36 32.776L121.044 32.164L122.124 33.112C122.068 33.2 121.912 33.252 121.656 33.268C121.168 33.948 120.472 34.468 119.568 34.828C118.664 35.188 117.64 35.428 116.496 35.548L116.424 35.368C117.384 35.136 118.22 34.808 118.932 34.384C119.652 33.96 120.172 33.424 120.492 32.776H120.36ZM120.072 30.436L120.648 29.848L121.692 30.712C121.66 30.752 121.604 30.784 121.524 30.808C121.452 30.832 121.372 30.852 121.284 30.868V31.432C121.284 31.488 121.292 31.528 121.308 31.552C121.324 31.568 121.356 31.576 121.404 31.576H121.56C121.592 31.576 121.62 31.576 121.644 31.576C121.676 31.576 121.7 31.576 121.716 31.576C121.74 31.576 121.772 31.576 121.812 31.576C121.86 31.576 121.892 31.572 121.908 31.564C121.948 31.564 121.988 31.56 122.028 31.552C122.076 31.544 122.116 31.536 122.148 31.528H122.256L122.304 31.54C122.44 31.604 122.532 31.664 122.58 31.72C122.628 31.768 122.652 31.836 122.652 31.924C122.652 32.14 122.556 32.284 122.364 32.356C122.172 32.428 121.852 32.464 121.404 32.464H120.996C120.756 32.464 120.576 32.44 120.456 32.392C120.344 32.336 120.268 32.248 120.228 32.128C120.196 32 120.18 31.836 120.18 31.636V30.436H120.072ZM121.02 32.776V33.124H117.336L117.228 32.776H121.02ZM114.876 33.052V34.636H113.88V33.052H114.876ZM117.684 30.316V29.944L118.992 30.436H118.812V30.784C118.812 30.92 118.788 31.08 118.74 31.264C118.7 31.44 118.616 31.62 118.488 31.804C118.368 31.988 118.184 32.164 117.936 32.332C117.696 32.5 117.372 32.648 116.964 32.776L116.868 32.632C117.124 32.432 117.308 32.228 117.42 32.02C117.54 31.804 117.612 31.592 117.636 31.384C117.668 31.168 117.684 30.972 117.684 30.796V30.436V30.316ZM120.648 30.436V30.772H118.224V30.436H120.648ZM112.116 32.824V32.452L113.412 32.944H113.232V33.436C113.232 33.628 113.212 33.856 113.172 34.12C113.132 34.384 113.052 34.656 112.932 34.936C112.812 35.216 112.632 35.488 112.392 35.752C112.152 36.016 111.828 36.248 111.42 36.448L111.312 36.316C111.568 36.004 111.752 35.68 111.864 35.344C111.976 35.008 112.044 34.676 112.068 34.348C112.1 34.02 112.116 33.716 112.116 33.436V32.944V32.824ZM115.38 29.908C115.372 29.98 115.336 30.044 115.272 30.1C115.216 30.148 115.116 30.184 114.972 30.208V32.176H113.76V29.764L115.38 29.908ZM115.44 32.944L115.956 32.416L117.024 33.22C116.992 33.252 116.94 33.292 116.868 33.34C116.804 33.38 116.72 33.408 116.616 33.424V34.924C116.616 34.956 116.568 34.996 116.472 35.044C116.376 35.092 116.256 35.14 116.112 35.188C115.976 35.228 115.848 35.248 115.728 35.248H115.548V32.944H115.44ZM115.992 34.432V34.78H112.668V34.432H115.992ZM115.98 32.944V33.292H112.728V32.944H115.98ZM115.992 31.252C115.992 31.252 116.048 31.3 116.16 31.396C116.28 31.484 116.42 31.596 116.58 31.732C116.74 31.86 116.88 31.984 117 32.104C116.968 32.232 116.864 32.296 116.688 32.296H112.044L111.948 31.96H115.44L115.992 31.252ZM116.22 30.064C116.22 30.064 116.276 30.108 116.388 30.196C116.508 30.284 116.648 30.396 116.808 30.532C116.968 30.66 117.112 30.788 117.24 30.916C117.208 31.044 117.1 31.108 116.916 31.108H111.648L111.552 30.76H115.668L116.22 30.064ZM124.152 30.796V30.184L125.64 30.796H133.104V31.132H125.52V40.552C125.52 40.608 125.468 40.676 125.364 40.756C125.26 40.844 125.12 40.92 124.944 40.984C124.768 41.048 124.58 41.08 124.38 41.08H124.152V30.796ZM126.696 34.492V33.952L128.052 34.492H130.62V34.84H128.004V38.44C128.004 38.48 127.948 38.532 127.836 38.596C127.724 38.66 127.58 38.72 127.404 38.776C127.236 38.824 127.064 38.848 126.888 38.848H126.696V34.492ZM126.096 32.692H129.972L130.704 31.768C130.704 31.768 130.748 31.804 130.836 31.876C130.924 31.948 131.036 32.04 131.172 32.152C131.316 32.256 131.464 32.368 131.616 32.488C131.768 32.608 131.908 32.724 132.036 32.836C132.004 32.964 131.892 33.028 131.7 33.028H126.192L126.096 32.692ZM127.308 37.108H130.584V37.456H127.308V37.108ZM129.9 34.492H129.78L130.392 33.832L131.676 34.804C131.644 34.844 131.592 34.888 131.52 34.936C131.448 34.976 131.356 35.004 131.244 35.02V38.188C131.244 38.22 131.18 38.268 131.052 38.332C130.924 38.388 130.776 38.444 130.608 38.5C130.44 38.548 130.28 38.572 130.128 38.572H129.9V34.492ZM132.456 30.796H132.336L132.984 30.052L134.34 31.108C134.3 31.156 134.24 31.204 134.16 31.252C134.08 31.3 133.976 31.336 133.848 31.36V39.496C133.848 39.8 133.804 40.064 133.716 40.288C133.628 40.512 133.444 40.688 133.164 40.816C132.884 40.952 132.456 41.048 131.88 41.104C131.856 40.896 131.816 40.712 131.76 40.552C131.712 40.4 131.632 40.276 131.52 40.18C131.392 40.084 131.232 39.996 131.04 39.916C130.848 39.836 130.564 39.772 130.188 39.724V39.568C130.188 39.568 130.268 39.572 130.428 39.58C130.596 39.588 130.796 39.6 131.028 39.616C131.268 39.632 131.492 39.644 131.7 39.652C131.916 39.66 132.064 39.664 132.144 39.664C132.264 39.664 132.344 39.64 132.384 39.592C132.432 39.536 132.456 39.464 132.456 39.376V30.796ZM138.276 32.272L139.98 33.244C139.948 33.308 139.896 33.356 139.824 33.388C139.76 33.412 139.656 33.412 139.512 33.388C139.2 33.756 138.824 34.156 138.384 34.588C137.952 35.012 137.476 35.428 136.956 35.836C136.444 36.244 135.9 36.608 135.324 36.928L135.204 36.808C135.516 36.488 135.824 36.132 136.128 35.74C136.432 35.348 136.72 34.948 136.992 34.54C137.264 34.124 137.508 33.72 137.724 33.328C137.948 32.936 138.132 32.584 138.276 32.272ZM138.144 29.848L139.752 30.832C139.72 30.888 139.668 30.932 139.596 30.964C139.524 30.996 139.42 30.996 139.284 30.964C139.004 31.228 138.668 31.512 138.276 31.816C137.884 32.112 137.46 32.396 137.004 32.668C136.548 32.94 136.084 33.184 135.612 33.4L135.504 33.268C135.848 32.948 136.188 32.584 136.524 32.176C136.868 31.768 137.18 31.36 137.46 30.952C137.748 30.536 137.976 30.168 138.144 29.848ZM137.148 35.008L137.7 34.276L138.936 34.732C138.888 34.844 138.764 34.92 138.564 34.96V40.708C138.556 40.74 138.496 40.784 138.384 40.84C138.272 40.904 138.128 40.96 137.952 41.008C137.776 41.056 137.596 41.08 137.412 41.08H137.148V35.008ZM140.28 31.024H144.228L144.948 30.076C144.948 30.076 144.992 30.112 145.08 30.184C145.176 30.256 145.292 30.348 145.428 30.46C145.564 30.564 145.708 30.684 145.86 30.82C146.012 30.948 146.148 31.068 146.268 31.18C146.236 31.308 146.128 31.372 145.944 31.372H140.376L140.28 31.024ZM139.608 33.796H144.576L145.332 32.812C145.332 32.812 145.376 32.848 145.464 32.92C145.56 32.992 145.676 33.088 145.812 33.208C145.956 33.32 146.104 33.444 146.256 33.58C146.416 33.708 146.56 33.828 146.688 33.94C146.656 34.068 146.544 34.132 146.352 34.132H139.704L139.608 33.796ZM143.172 33.832H144.612V39.244C144.612 39.564 144.564 39.848 144.468 40.096C144.372 40.344 144.176 40.544 143.88 40.696C143.592 40.848 143.148 40.944 142.548 40.984C142.54 40.752 142.504 40.552 142.44 40.384C142.376 40.216 142.284 40.08 142.164 39.976C142.036 39.872 141.868 39.78 141.66 39.7C141.452 39.62 141.144 39.548 140.736 39.484V39.328C140.736 39.328 140.796 39.332 140.916 39.34C141.044 39.348 141.2 39.356 141.384 39.364C141.576 39.372 141.772 39.384 141.972 39.4C142.172 39.408 142.352 39.416 142.512 39.424C142.68 39.432 142.8 39.436 142.872 39.436C142.984 39.436 143.06 39.416 143.1 39.376C143.148 39.336 143.172 39.276 143.172 39.196V33.832Z" fill="white"/>
<defs>
<clipPath id="clip0_930_29423">
<rect width="35" height="36" fill="white" transform="translate(0 3.5)"/>
</clipPath>
</defs>
</svg>
