<svg width="24" height="24" viewBox="0 0 24 24" fill="black" xmlns="http://www.w3.org/2000/svg">
<path fill-rule="evenodd" clip-rule="evenodd" d="M2.25 5C2.25 4.44772 2.69772 4 3.25 4H20.75C21.3023 4 21.75 4.44772 21.75 5C21.75 5.55228 21.3023 6 20.75 6H3.25C2.69772 6 2.25 5.55228 2.25 5ZM2.25 12C2.25 11.4477 2.69772 11 3.25 11H20.75C21.3023 11 21.75 11.4477 21.75 12C21.75 12.5523 21.3023 13 20.75 13H3.25C2.69772 13 2.25 12.5523 2.25 12ZM3.25 18C2.69772 18 2.25 18.4477 2.25 19C2.25 19.5523 2.69772 20 3.25 20H20.75C21.3023 20 21.75 19.5523 21.75 19C21.75 18.4477 21.3023 18 20.75 18H3.25Z"/>
</svg>
