<svg width="458" height="99" viewBox="0 0 458 99" fill="none" xmlns="http://www.w3.org/2000/svg">
<g clip-path="url(#clip0_1300_4978)">
<path d="M337.62 55.1069C337.34 54.8169 337.02 54.5769 336.66 54.3969C335.75 53.9569 334.75 53.7469 333.74 53.7869H332.06V61.2069C332.06 68.6069 332.17 68.7069 332.73 69.7169L332.97 70.1469C332.97 70.1469 332.25 70.0969 330.56 70.0969C328.87 70.0969 328.1 70.1469 328.1 70.1469L328.34 69.7169C328.88 68.7469 329.01 68.5769 329.01 60.9469V53.7769H327.32C326.31 53.7469 325.32 53.9569 324.41 54.4069C324.05 54.5869 323.72 54.8269 323.45 55.1169C323.51 54.5569 323.54 53.9969 323.53 53.4369C323.53 52.4769 323.5 52.0469 323.5 52.0469H337.56C337.56 52.0469 337.53 52.4769 337.53 53.4369C337.53 53.9969 337.56 54.5469 337.62 55.0969V55.1069Z" fill="black"/>
<path d="M354.36 70.1095C352.65 70.1095 351.9 70.1595 351.9 70.1595L352.14 69.7295C352.65 68.7895 352.81 68.5595 352.81 61.8495H344.41C344.41 68.5795 344.52 68.7395 345.08 69.7295L345.32 70.1595C345.32 70.1595 344.6 70.1095 342.91 70.1095C341.22 70.1095 340.45 70.1595 340.45 70.1595L340.69 69.7295C341.23 68.7595 341.36 68.5895 341.36 60.9595C341.36 53.3295 341.25 53.4595 340.69 52.4495L340.45 52.0195C340.45 52.0195 341.15 52.0695 342.88 52.0695C344.61 52.0695 345.31 52.0195 345.31 52.0195L345.07 52.4495C344.56 53.3595 344.4 53.5895 344.4 59.7695H352.8C352.8 53.6495 352.66 53.4195 352.13 52.4495L351.89 52.0195C351.89 52.0195 352.58 52.0695 354.32 52.0695C356.06 52.0695 356.75 52.0195 356.75 52.0195L356.51 52.4495C355.98 53.4095 355.84 53.5895 355.84 61.2195C355.84 68.8495 355.94 68.7195 356.51 69.7295L356.75 70.1595C356.75 70.1595 356.06 70.1095 354.35 70.1095H354.36Z" fill="black"/>
<path d="M372.79 69.3395L372.74 70.1395H363.3C361.86 70.1395 361.24 70.1595 361.24 70.1595L361.48 69.7295C362.01 68.7595 362.15 68.5895 362.15 60.9595C362.15 53.3295 362.04 53.4595 361.48 52.4495L361.24 52.0195C361.24 52.0195 361.83 52.0495 363.27 52.0495H372.47C372.47 52.0495 372.45 52.4795 372.45 53.4395C372.45 53.9895 372.47 54.5495 372.53 55.0995C372.25 54.8195 371.92 54.5895 371.57 54.4095C370.65 53.9895 369.64 53.7995 368.63 53.8495H365.21V60.1595H367.99C369.25 60.1595 370.29 60.0295 370.93 59.6695C371.28 59.4995 371.61 59.2795 371.89 59.0095C371.89 59.0295 371.81 59.7495 371.81 61.0695C371.81 62.3895 371.89 63.0495 371.89 63.0995C371.6 62.8295 371.28 62.5895 370.93 62.4095C370.29 62.0595 369.25 61.9295 367.99 61.9295H365.21V68.3095H368.37C371.68 68.3095 372.11 67.5695 373.1 66.1995C373.1 66.1995 372.97 67.1395 372.81 69.3295L372.79 69.3395Z" fill="black"/>
<path d="M336.711 96.5994C334.811 96.5994 334.091 95.8394 332.801 93.8994L330.981 91.1594C329.401 88.7994 329.111 88.2894 327.771 88.2894C327.621 88.2894 327.461 88.2894 327.311 88.3194C327.311 94.7194 327.421 95.0794 327.981 96.0694L328.221 96.4994C328.221 96.4994 327.531 96.4494 325.841 96.4494C324.151 96.4494 323.431 96.4994 323.431 96.4994L323.671 96.0694C324.201 95.1294 324.341 94.9294 324.341 87.2994C324.341 79.6694 324.241 79.7994 323.671 78.7894L323.431 78.3594C323.431 78.3594 324.261 78.4094 325.441 78.4094C326.241 78.4094 327.711 78.3594 328.651 78.3594C331.971 78.3594 336.031 78.5894 336.031 82.9594C336.031 85.3194 334.531 87.8094 330.231 87.7794C332.451 88.0594 333.281 89.1494 334.651 91.3094L335.961 93.4694C336.841 94.9194 337.511 95.8794 338.581 96.3394C338.581 96.3394 338.171 96.6094 336.701 96.6094L336.711 96.5994ZM328.571 80.0194C327.881 80.0194 327.311 80.0694 327.311 80.0694V86.6294C327.311 86.6294 327.791 86.6594 328.781 86.6594C329.131 86.6594 329.901 86.6094 330.351 86.5594C331.691 86.3294 332.781 85.2894 332.781 83.2794C332.781 80.3794 330.961 80.0294 328.551 80.0294L328.571 80.0194Z" fill="black"/>
<path d="M352.62 95.6794L352.57 96.4794H343.13C341.69 96.4794 341.07 96.4994 341.07 96.4994L341.31 96.0694C341.84 95.1094 341.98 94.9294 341.98 87.2994C341.98 79.6694 341.87 79.7994 341.31 78.7894L341.07 78.3594C341.07 78.3594 341.66 78.3894 343.1 78.3894H352.3C352.3 78.3894 352.28 78.8194 352.28 79.7794C352.28 80.3294 352.3 80.8894 352.36 81.4394C352.08 81.1594 351.75 80.9294 351.4 80.7494C350.48 80.3294 349.47 80.1394 348.46 80.1894H345.04V86.4994H347.82C349.08 86.4994 350.12 86.3694 350.76 86.0094C351.11 85.8394 351.44 85.6194 351.72 85.3494C351.72 85.3694 351.64 86.0894 351.64 87.4094C351.64 88.7294 351.72 89.3894 351.72 89.4394C351.43 89.1694 351.11 88.9394 350.76 88.7594C350.12 88.3994 349.08 88.2694 347.82 88.2694H345.04V94.6494H348.18C351.49 94.6494 351.92 93.9094 352.91 92.5394C352.93 92.5394 352.79 93.4794 352.63 95.6694L352.62 95.6794Z" fill="black"/>
<path d="M362.68 89.3694C362.06 89.3694 361.45 89.3294 360.84 89.2394C360.84 94.5994 360.94 95.0594 361.53 96.0694L361.77 96.4994C361.77 96.4994 361.08 96.4494 359.34 96.4494C357.6 96.4494 356.91 96.4994 356.91 96.4994L357.15 96.0694C357.68 95.1294 357.82 94.9294 357.82 87.2994C357.82 79.6694 357.72 79.7994 357.15 78.7894L356.91 78.3594C356.91 78.3594 357.66 78.4094 358.89 78.4094C360.01 78.4094 361.46 78.3594 362.26 78.3594C364.88 78.3594 369.7 78.5394 369.7 83.6994C369.7 88.5694 365.66 89.3694 362.69 89.3694H362.68ZM362.23 80.0194C361.43 80.0194 360.84 80.0694 360.84 80.0694V87.5894C361.35 87.6594 361.87 87.6794 362.39 87.6694C366.27 87.6694 366.43 85.0994 366.43 83.6494C366.43 80.4194 364.02 80.0194 362.23 80.0194Z" fill="black"/>
<path d="M381.34 96.7675C375.8 96.7675 372.78 93.2575 372.78 87.8275C372.78 85.1075 373.58 78.1875 381.36 78.1875C386.92 78.1875 389.94 81.6975 389.94 87.1275C389.93 89.8275 389.12 96.7675 381.33 96.7675H381.34ZM381.34 80.0175C378.51 80.0175 376.12 81.9475 376.12 87.5375C376.12 93.1275 378.45 94.9075 381.34 94.9075C384.23 94.9075 386.58 92.9775 386.58 87.3875C386.61 81.8675 384.25 80.0175 381.34 80.0175Z" fill="black"/>
<path d="M406.821 96.5994C404.921 96.5994 404.201 95.8394 402.921 93.8994L401.101 91.1594C399.521 88.7994 399.231 88.2894 397.891 88.2894C397.741 88.2894 397.591 88.2894 397.441 88.3194C397.441 94.7194 397.541 95.0794 398.111 96.0694L398.351 96.4994C398.351 96.4994 397.661 96.4494 395.971 96.4494C394.281 96.4494 393.561 96.4994 393.561 96.4994L393.801 96.0694C394.331 95.1294 394.471 94.9294 394.471 87.2994C394.471 79.6694 394.361 79.7994 393.801 78.7894L393.561 78.3594C393.561 78.3594 394.391 78.4094 395.571 78.4094C396.371 78.4094 397.841 78.3594 398.781 78.3594C402.091 78.3594 406.161 78.5894 406.161 82.9594C406.161 85.3194 404.671 87.8094 400.361 87.7794C402.581 88.0594 403.411 89.1494 404.781 91.3094L406.091 93.4694C406.971 94.9194 407.641 95.8794 408.711 96.3394C408.711 96.3394 408.301 96.6094 406.841 96.6094L406.821 96.5994ZM398.681 80.0194C397.991 80.0194 397.421 80.0694 397.421 80.0694V86.6294C397.421 86.6294 397.901 86.6594 398.891 86.6594C399.241 86.6594 400.011 86.6094 400.471 86.5594C401.811 86.3294 402.901 85.2894 402.901 83.2794C402.901 80.3794 401.081 80.0294 398.671 80.0294L398.681 80.0194Z" fill="black"/>
<path d="M423.71 81.4472C423.43 81.1572 423.11 80.9172 422.75 80.7372C421.84 80.2972 420.84 80.0972 419.83 80.1272H418.15V87.5472C418.15 94.9472 418.25 95.0472 418.82 96.0572L419.06 96.4872C419.06 96.4872 418.34 96.4372 416.65 96.4372C414.96 96.4372 414.19 96.4872 414.19 96.4872L414.43 96.0572C414.96 95.0972 415.1 94.9172 415.1 87.2872V80.1172H413.41C412.4 80.0772 411.4 80.2872 410.49 80.7272C410.13 80.9072 409.8 81.1472 409.53 81.4372C409.59 80.8772 409.62 80.3172 409.61 79.7572C409.61 78.7972 409.58 78.3672 409.58 78.3672H423.64C423.64 78.3672 423.62 78.7972 423.62 79.7572C423.62 80.3172 423.65 80.8772 423.71 81.4372V81.4472Z" fill="black"/>
<path d="M438.46 95.6794L438.41 96.4794H428.97C427.52 96.4794 426.91 96.4994 426.91 96.4994L427.15 96.0694C427.68 95.1094 427.82 94.9294 427.82 87.2994C427.82 79.6694 427.72 79.7994 427.15 78.7894L426.91 78.3594C426.91 78.3594 427.5 78.3894 428.94 78.3894H438.16C438.16 78.3894 438.14 78.8194 438.14 79.7794C438.14 80.3294 438.16 80.8894 438.22 81.4394C437.94 81.1594 437.61 80.9294 437.26 80.7494C436.34 80.3294 435.33 80.1394 434.32 80.1894H430.89V86.4994H433.67C434.93 86.4994 435.97 86.3694 436.61 86.0094C436.96 85.8394 437.28 85.6094 437.56 85.3394C437.56 85.3594 437.48 86.0794 437.48 87.3994C437.48 88.7194 437.56 89.3794 437.56 89.4294C437.27 89.1494 436.95 88.9194 436.6 88.7494C435.96 88.3894 434.92 88.2594 433.66 88.2594H430.88V94.6394H434.04C437.36 94.6394 437.78 93.8994 438.78 92.5294C438.78 92.5294 438.64 93.4794 438.48 95.6594L438.46 95.6794Z" fill="black"/>
<path d="M455.651 96.5994C453.751 96.5994 453.031 95.8394 451.751 93.8994L449.931 91.1594C448.351 88.7994 448.061 88.2894 446.721 88.2894C446.571 88.2894 446.421 88.2894 446.271 88.3194C446.271 94.7194 446.381 95.0794 446.941 96.0694L447.181 96.4994C447.181 96.4994 446.481 96.4494 444.801 96.4494C443.121 96.4494 442.391 96.4994 442.391 96.4994L442.631 96.0694C443.161 95.1294 443.301 94.9294 443.301 87.2994C443.301 79.6694 443.191 79.7994 442.631 78.7894L442.391 78.3594C442.391 78.3594 443.221 78.4094 444.401 78.4094C445.201 78.4094 446.671 78.3594 447.611 78.3594C450.931 78.3594 454.991 78.5894 454.991 82.9594C454.991 85.3194 453.491 87.8094 449.191 87.7794C451.411 88.0594 452.241 89.1494 453.611 91.3094L454.921 93.4694C455.801 94.9194 456.471 95.8794 457.541 96.3394C457.541 96.3394 457.131 96.6094 455.661 96.6094L455.651 96.5994ZM447.511 80.0194C446.821 80.0194 446.251 80.0694 446.251 80.0694V86.6294C446.251 86.6294 446.731 86.6594 447.721 86.6594C448.071 86.6594 448.841 86.6094 449.301 86.5594C450.641 86.3294 451.731 85.2894 451.731 83.2794C451.731 80.3794 449.911 80.0294 447.501 80.0294L447.511 80.0194Z" fill="black"/>
<path d="M166.19 83.9566H170.21C172.18 84.0066 174.16 83.8266 176.09 83.4166V86.9566C174.16 86.5466 172.19 86.3566 170.21 86.4066H166.19V94.0766C166.16 95.1966 166.67 96.2666 167.55 96.9566H160.53C161.41 96.2666 161.92 95.1966 161.89 94.0766V86.4066H157.16C155.19 86.3566 153.21 86.5366 151.28 86.9566V83.4166C153.21 83.8266 155.18 84.0166 157.16 83.9566H161.89V78.5666H158.08C156.11 78.5166 154.13 78.6966 152.2 79.1166V75.9066C154.13 76.3166 156.1 76.5066 158.08 76.4466H168.8C170.77 76.4966 172.75 76.3166 174.68 75.9066V79.1166C172.75 78.6966 170.78 78.5166 168.8 78.5666H166.19V83.9566ZM157.86 67.6966C155.89 67.6466 153.91 67.8266 151.98 68.2366V64.9166C153.91 65.3266 155.88 65.5166 157.86 65.4566H161.88V60.3466H158.61C156.64 60.2966 154.67 60.4766 152.74 60.8966V57.3566C154.67 57.7766 156.64 57.9566 158.61 57.9066H161.88V54.8566C161.9 53.7366 161.4 52.6666 160.52 51.9766H167.54C166.66 52.6766 166.16 53.7366 166.19 54.8566V57.9066H168.75C170.72 57.9566 172.7 57.7766 174.63 57.3566V60.8966C172.7 60.4766 170.73 60.2966 168.76 60.3466H166.2V65.4566H169.68C171.66 65.4966 173.63 65.2966 175.56 64.8566V68.1766C173.76 67.7366 171.86 67.6866 169.68 67.6866H157.87L157.86 67.6966ZM157.59 68.3966C159.56 69.8866 161.35 71.5966 162.92 73.5066L159.76 75.7366C158.66 73.5566 157.32 71.4966 155.79 69.5866L157.59 68.3866V68.3966ZM165.22 74.3766C166.47 72.4466 167.58 70.4366 168.54 68.3466L172.08 70.2466C170.55 72.1866 168.82 73.9566 166.91 75.5266L165.22 74.3666V74.3766ZM193.41 87.3366C195.91 89.5666 199.4 91.3566 201.85 92.4466L197.93 96.4666C195.48 95.2166 193.11 92.8766 190.91 90.2666C188.34 92.6766 185.38 94.6366 182.15 96.0366V96.9566H176.47C177.35 96.2666 177.86 95.1966 177.83 94.0766V60.5166C177.83 58.4466 177.83 55.6766 177.23 53.4466C180.5 54.2466 184.69 54.5366 187.67 54.5366C190.65 54.5366 194.9 54.2666 198.17 53.4466C197.57 55.6766 197.57 58.1266 197.57 59.9766V64.8766C197.57 66.0166 196.86 66.5666 195.34 66.5666C193.82 66.5666 189.03 65.5866 185.98 64.8766L185.38 63.0766C187.56 63.2366 189.68 63.3466 191.86 63.3466C192.89 63.3466 193.27 63.0166 193.27 62.2066V56.8766H182.12V71.0266H193.87C194.25 70.5366 194.63 70.0466 195.08 69.5566C196.44 70.1566 197.89 70.9166 199.27 71.6766C198.34 78.3666 196.11 83.9766 193.45 87.2866L193.41 87.3466V87.3366ZM182.16 94.4066C184.87 92.5866 187.21 90.2866 189.07 87.6066C186.79 83.9066 185.64 78.7366 185.05 73.2366H182.17V94.4066H182.16ZM186.67 73.2366C187.43 77.2566 188.8 81.5066 190.97 84.4466C192.5 81.4566 193.59 77.1066 193.96 73.2366H186.67Z" fill="black"/>
<path d="M246.321 84.3381H250.841C252.811 84.3881 254.791 84.2081 256.721 83.7881V87.3281C254.791 86.9181 252.821 86.7381 250.841 86.7781H246.321V94.7781C246.321 96.1981 245.391 97.0081 243.441 97.0081C241.261 97.0081 235.611 96.2081 232.021 95.4281L231.311 93.3681C234.191 93.5881 237.291 93.7681 239.851 93.7681C241.101 93.7681 241.541 93.2781 241.541 92.3581V86.7781H222.981C225.991 88.0081 228.921 89.4481 231.741 91.0781L228.201 94.5081C225.471 91.6281 222.461 89.0381 219.211 86.7781H214.331C212.361 86.7281 210.381 86.9181 208.451 87.3281V83.7881C210.381 84.2081 212.351 84.3881 214.331 84.3381H241.531V80.7981C231.791 80.7381 224.611 80.3581 216.831 76.1681C214.951 78.7281 212.441 80.7481 209.541 82.0481L206.761 78.3481C209.921 77.6981 212.851 76.6581 214.761 75.2481V67.5181C212.431 67.4581 210.101 67.6181 207.801 68.0081V64.8481C209.771 65.2581 211.771 65.4581 213.791 65.4481C215.731 65.4781 217.661 65.2981 219.551 64.9081C219.141 67.0281 218.941 69.1781 218.951 71.3381V75.5681C224.451 77.9081 231.301 78.1281 238.971 78.1281C246.641 78.1281 253.661 77.7981 257.631 77.1481L255.361 80.4181C252.481 80.5781 249.331 80.6881 246.331 80.7481L246.311 84.3381H246.321ZM215.601 61.4381C213.441 58.6781 211.041 56.1081 208.421 53.7681L210.321 51.9681C213.201 53.5481 216.681 55.6681 219.461 58.0581L215.601 61.4281V61.4381ZM226.321 58.3881C224.341 58.3381 222.361 58.5181 220.421 58.9281V55.5581C222.351 55.9781 224.321 56.1581 226.301 56.1081H230.871C229.181 54.7481 227.281 53.4381 225.861 52.4581L227.171 50.8281C229.941 51.7581 232.621 52.9381 235.171 54.3681L232.991 56.1081H240.721C241.591 54.4681 242.351 52.7881 243.131 51.0481L250.201 53.0081C248.001 54.1781 245.731 55.2081 243.401 56.1081H250.421C252.391 56.1581 254.371 55.9781 256.301 55.5581V58.9281C254.371 58.5181 252.401 58.3381 250.421 58.3881H241.381C239.801 59.3081 238.231 60.1781 236.651 60.9981H252.321V75.3581H225.001V60.9981H234.791C235.061 60.1281 235.341 59.2581 235.551 58.3881H226.331H226.321ZM247.901 65.2681V62.7981H229.421V65.2681H247.901ZM229.421 66.7381V69.3481H247.901V66.7381H229.421ZM229.421 73.5881H247.901V70.8181H229.421V73.5881Z" fill="black"/>
<path d="M306.94 67.3087C308.91 67.3587 310.88 67.1788 312.81 66.7588V70.2988C310.88 69.8888 308.91 69.7087 306.93 69.7487H293.87C290.93 71.7587 287.07 73.6687 283.59 75.1387H305.46V94.0187C305.42 95.1587 305.93 96.2487 306.82 96.9587H299.59C300.48 96.3187 300.99 95.2787 300.95 94.1787H278.8C278.77 95.2687 279.27 96.3087 280.16 96.9587H272.93C273.82 96.2487 274.33 95.1587 274.29 94.0187V78.5687C270.46 79.8687 266.55 80.9188 262.59 81.7288L261.38 79.9887C270.84 77.7587 279.33 74.5488 287.28 69.7588H268.73C266.76 69.7088 264.78 69.8987 262.85 70.3087V66.7687C264.78 67.1887 266.75 67.3687 268.73 67.3187H283.04V60.8887H274.88C272.91 60.8487 270.94 61.0287 269.01 61.4387V57.8988C270.94 58.3088 272.91 58.4887 274.88 58.4287H283.04V54.8487C283.06 53.7287 282.56 52.6587 281.68 51.9688H289.02C288.14 52.6587 287.63 53.7287 287.66 54.8487V58.4287H300.66C302.31 56.4787 303.84 54.4287 305.23 52.2787L309.65 54.5687C306.01 59.3687 301.74 63.6487 296.96 67.3087H306.92H306.94ZM300.96 83.3087V77.5987H278.76V83.3087H300.96ZM278.81 91.7487H300.95V85.5387H278.81V91.7487ZM287.68 60.8988V67.3288H291.05C293.75 65.4488 296.25 63.2888 298.51 60.8988H287.68Z" fill="black"/>
<path d="M39.25 50.88C35.61 79.89 34.76 88.44 37.43 94.61L38.41 96.99C38.41 96.99 33.36 96.71 21.87 96.71C10.38 96.71 5.33 96.99 5.33 96.99L6.87 94.61C10.23 89.42 11.36 88.3 16.54 46.25L19.34 23.82C19.62 21.86 19.34 20.88 16.12 20.88H0C10.93 5.47 32.24 8.83 47.1 0C47.1 0 43.32 18.64 39.25 50.88Z" fill="black"/>
<path d="M93.9101 2.23828C56.4901 2.23828 48.0801 36.5783 48.0801 62.2283C48.0801 81.1483 56.3501 98.6683 84.2401 98.6683C121.66 98.6683 130.21 64.3283 130.21 38.6783C130.21 19.7583 121.8 2.23828 93.9101 2.23828Z" fill="black"/>
<path d="M102.92 42.5273L122.59 45.3573L108.29 79.0073L92.6201 66.7473L102.92 42.5273Z" fill="#C40D23"/>
<path d="M78.7703 17.4688L102.92 42.5287L92.6203 66.7487H57.8203L78.7703 17.4688Z" fill="#F80B28"/>
<path d="M78.7705 17.4688L98.4405 20.2987L122.581 45.3588C121.011 45.0888 102.911 42.5287 102.911 42.5287L78.7705 17.4688Z" fill="#F76977"/>
<path d="M57.8203 66.75L86.6403 79.01H108.29L92.6203 66.75H57.8203Z" fill="#9B051E"/>
<path d="M57.8203 44.2587V66.7487L78.7703 17.4688L57.8203 44.2587Z" fill="#F76977"/>
</g>
<defs>
<clipPath id="clip0_1300_4978">
<rect width="457.52" height="98.68" fill="white"/>
</clipPath>
</defs>
</svg>
