<?xml version="1.0" encoding="UTF-8"?>
<svg id="_圖層_2" data-name="圖層 2" xmlns="http://www.w3.org/2000/svg" viewBox="0 0 457.52 98.68">
  <defs>
    <style>
      .cls-1 {
        fill: #f76977;
      }

      .cls-2 {
        fill: #9b051e;
      }

      .cls-3 {
        fill: #f80b28;
      }

      .cls-4 {
        fill: #c40d23;
      }

      .cls-5 {
        fill: #fff;
      }
    </style>
  </defs>
  <g id="logo">
    <g>
      <g>
        <path class="cls-5" d="M337.62,55.12c-.28-.29-.6-.53-.96-.71-.91-.44-1.91-.65-2.92-.61h-1.68v7.42c0,7.4.11,7.5.67,8.51l.24.43s-.72-.05-2.41-.05-2.46.05-2.46.05l.24-.43c.54-.97.67-1.14.67-8.77v-7.17h-1.69c-1.01-.03-2,.18-2.91.63-.36.18-.69.42-.96.71.06-.56.09-1.12.08-1.68,0-.96-.03-1.39-.03-1.39h14.06s-.03.43-.03,1.39c0,.56.03,1.11.09,1.66Z"/>
        <path class="cls-5" d="M354.36,70.11c-1.71,0-2.46.05-2.46.05l.24-.43c.51-.94.67-1.17.67-7.88h-8.4c0,6.73.11,6.89.67,7.88l.24.43s-.72-.05-2.41-.05-2.46.05-2.46.05l.24-.43c.54-.97.67-1.14.67-8.77s-.11-7.5-.67-8.51l-.24-.43s.7.05,2.43.05,2.43-.05,2.43-.05l-.24.43c-.51.91-.67,1.14-.67,7.32h8.4c0-6.12-.14-6.35-.67-7.32l-.24-.43s.69.05,2.43.05,2.43-.05,2.43-.05l-.24.43c-.53.96-.67,1.14-.67,8.77s.1,7.5.67,8.51l.24.43s-.69-.05-2.4-.05Z"/>
        <path class="cls-5" d="M372.79,69.34l-.05.8h-9.44c-1.44,0-2.06.02-2.06.02l.24-.43c.53-.97.67-1.14.67-8.77s-.11-7.5-.67-8.51l-.24-.43s.59.03,2.03.03h9.2s-.02.43-.02,1.39c0,.55.02,1.11.08,1.66-.28-.28-.61-.51-.96-.69-.92-.42-1.93-.61-2.94-.56h-3.42v6.31h2.78c1.26,0,2.3-.13,2.94-.49.35-.17.68-.39.96-.66,0,.02-.08.74-.08,2.06s.08,1.98.08,2.03c-.29-.27-.61-.51-.96-.69-.64-.35-1.68-.48-2.94-.48h-2.78v6.38h3.16c3.31,0,3.74-.74,4.73-2.11,0,0-.13.94-.29,3.13Z"/>
        <path class="cls-5" d="M336.71,96.6c-1.9,0-2.62-.76-3.91-2.7l-1.82-2.74c-1.58-2.36-1.87-2.87-3.21-2.87-.15,0-.31,0-.46.03,0,6.4.11,6.76.67,7.75l.24.43s-.69-.05-2.38-.05-2.41.05-2.41.05l.24-.43c.53-.94.67-1.14.67-8.77s-.1-7.5-.67-8.51l-.24-.43s.83.05,2.01.05c.8,0,2.27-.05,3.21-.05,3.32,0,7.38.23,7.38,4.6,0,2.36-1.5,4.85-5.8,4.82,2.22.28,3.05,1.37,4.42,3.53l1.31,2.16c.88,1.45,1.55,2.41,2.62,2.87,0,0-.41.27-1.88.27ZM328.57,80.03c-.69,0-1.26.05-1.26.05v6.56s.48.03,1.47.03c.35,0,1.12-.05,1.57-.1,1.34-.23,2.43-1.27,2.43-3.28,0-2.9-1.82-3.25-4.23-3.25Z"/>
        <path class="cls-5" d="M352.62,95.68l-.05.8h-9.44c-1.44,0-2.06.02-2.06.02l.24-.43c.53-.96.67-1.14.67-8.77s-.11-7.5-.67-8.51l-.24-.43s.59.03,2.03.03h9.2s-.02.43-.02,1.39c0,.55.02,1.11.08,1.66-.28-.28-.61-.51-.96-.69-.92-.42-1.93-.61-2.94-.56h-3.42v6.31h2.78c1.26,0,2.3-.13,2.94-.49.35-.17.68-.39.96-.66,0,.02-.08.74-.08,2.06s.08,1.98.08,2.03c-.29-.27-.61-.5-.96-.68-.64-.36-1.68-.49-2.94-.49h-2.78v6.38h3.14c3.31,0,3.74-.74,4.73-2.11.02,0-.12.94-.28,3.13Z"/>
        <path class="cls-5" d="M362.68,89.37c-.62,0-1.23-.04-1.84-.13,0,5.36.1,5.82.69,6.83l.24.43s-.69-.05-2.43-.05-2.43.05-2.43.05l.24-.43c.53-.94.67-1.14.67-8.77s-.1-7.5-.67-8.51l-.24-.43s.75.05,1.98.05c1.12,0,2.57-.05,3.37-.05,2.62,0,7.44.18,7.44,5.34,0,4.87-4.04,5.67-7.01,5.67ZM362.23,80.03c-.8,0-1.39.05-1.39.05v7.52c.51.07,1.03.09,1.55.08,3.88,0,4.04-2.57,4.04-4.02,0-3.23-2.41-3.63-4.2-3.63Z"/>
        <path class="cls-5" d="M381.34,96.77c-5.54,0-8.56-3.51-8.56-8.94,0-2.72.8-9.64,8.58-9.64,5.56,0,8.58,3.51,8.58,8.94-.01,2.7-.82,9.64-8.61,9.64ZM381.34,80.03c-2.83,0-5.22,1.93-5.22,7.52s2.33,7.37,5.22,7.37,5.24-1.93,5.24-7.52c.03-5.52-2.33-7.37-5.24-7.37Z"/>
        <path class="cls-5" d="M406.82,96.6c-1.9,0-2.62-.76-3.9-2.7l-1.82-2.74c-1.58-2.36-1.87-2.87-3.21-2.87-.15,0-.3,0-.45.03,0,6.4.1,6.76.67,7.75l.24.43s-.69-.05-2.38-.05-2.41.05-2.41.05l.24-.43c.53-.94.67-1.14.67-8.77s-.11-7.5-.67-8.51l-.24-.43s.83.05,2.01.05c.8,0,2.27-.05,3.21-.05,3.31,0,7.38.23,7.38,4.6,0,2.36-1.49,4.85-5.8,4.82,2.22.28,3.05,1.37,4.42,3.53l1.31,2.16c.88,1.45,1.55,2.41,2.62,2.87,0,0-.41.27-1.87.27ZM398.68,80.03c-.69,0-1.26.05-1.26.05v6.56s.48.03,1.47.03c.35,0,1.12-.05,1.58-.1,1.34-.23,2.43-1.27,2.43-3.28,0-2.9-1.82-3.25-4.23-3.25Z"/>
        <path class="cls-5" d="M423.71,81.45c-.28-.29-.6-.53-.96-.71-.91-.44-1.91-.64-2.92-.61h-1.68v7.42c0,7.4.1,7.5.67,8.51l.24.43s-.72-.05-2.41-.05-2.46.05-2.46.05l.24-.43c.53-.96.67-1.14.67-8.77v-7.17h-1.69c-1.01-.04-2.01.17-2.92.61-.36.18-.69.42-.96.71.06-.56.09-1.12.08-1.68,0-.96-.03-1.39-.03-1.39h14.06s-.02.43-.02,1.39c0,.56.03,1.12.09,1.68Z"/>
        <path class="cls-5" d="M438.46,95.68l-.05.8h-9.44c-1.45,0-2.06.02-2.06.02l.24-.43c.53-.96.67-1.14.67-8.77s-.1-7.5-.67-8.51l-.24-.43s.59.03,2.03.03h9.22s-.02.43-.02,1.39c0,.55.02,1.11.08,1.66-.28-.28-.61-.51-.96-.69-.92-.42-1.93-.61-2.94-.56h-3.43v6.31h2.78c1.26,0,2.3-.13,2.94-.49.35-.17.67-.4.95-.67,0,.02-.08.74-.08,2.06s.08,1.98.08,2.03c-.29-.28-.61-.51-.96-.68-.64-.36-1.68-.49-2.94-.49h-2.78v6.38h3.16c3.32,0,3.74-.74,4.74-2.11,0,0-.14.95-.3,3.13Z"/>
        <path class="cls-5" d="M455.65,96.6c-1.9,0-2.62-.76-3.9-2.7l-1.82-2.74c-1.58-2.36-1.87-2.87-3.21-2.87-.15,0-.3,0-.45.03,0,6.4.11,6.76.67,7.75l.24.43s-.7-.05-2.38-.05-2.41.05-2.41.05l.24-.43c.53-.94.67-1.14.67-8.77s-.11-7.5-.67-8.51l-.24-.43s.83.05,2.01.05c.8,0,2.27-.05,3.21-.05,3.32,0,7.38.23,7.38,4.6,0,2.36-1.5,4.85-5.8,4.82,2.22.28,3.05,1.37,4.42,3.53l1.31,2.16c.88,1.45,1.55,2.41,2.62,2.87,0,0-.41.27-1.88.27ZM447.51,80.03c-.69,0-1.26.05-1.26.05v6.56s.48.03,1.47.03c.35,0,1.12-.05,1.58-.1,1.34-.23,2.43-1.27,2.43-3.28,0-2.9-1.82-3.25-4.23-3.25Z"/>
        <path class="cls-5" d="M166.19,83.96h4.02c1.97.05,3.95-.13,5.88-.54v3.54c-1.93-.41-3.9-.6-5.88-.55h-4.02v7.67c-.03,1.12.48,2.19,1.36,2.88h-7.02c.88-.69,1.39-1.76,1.36-2.88v-7.67h-4.73c-1.97-.05-3.95.13-5.88.55v-3.54c1.93.41,3.9.6,5.88.54h4.73v-5.39h-3.81c-1.97-.05-3.95.13-5.88.55v-3.21c1.93.41,3.9.6,5.88.54h10.72c1.97.05,3.95-.13,5.88-.54v3.21c-1.93-.42-3.9-.6-5.88-.55h-2.61v5.39ZM157.86,67.7c-1.97-.05-3.95.13-5.88.54v-3.32c1.93.41,3.9.6,5.88.54h4.02v-5.11h-3.27c-1.97-.05-3.94.13-5.87.55v-3.54c1.93.42,3.9.6,5.87.55h3.27v-3.05c.02-1.12-.48-2.19-1.36-2.88h7.02c-.88.7-1.38,1.76-1.35,2.88v3.05h2.56c1.97.05,3.95-.13,5.88-.55v3.54c-1.93-.42-3.9-.6-5.87-.55h-2.56v5.11h3.48c1.98.04,3.95-.16,5.88-.6v3.32c-1.8-.44-3.7-.49-5.88-.49h-11.81ZM157.59,68.4c1.97,1.49,3.76,3.2,5.33,5.11l-3.16,2.23c-1.1-2.18-2.44-4.24-3.97-6.15l1.8-1.2ZM165.22,74.39c1.25-1.93,2.36-3.94,3.32-6.03l3.54,1.9c-1.53,1.94-3.26,3.71-5.17,5.28l-1.69-1.16ZM193.41,87.34c2.5,2.23,5.99,4.02,8.44,5.11l-3.92,4.02c-2.45-1.25-4.82-3.59-7.02-6.2-2.57,2.41-5.53,4.37-8.76,5.77v.92h-5.68c.88-.69,1.39-1.76,1.36-2.88v-33.56c0-2.07,0-4.84-.6-7.07,3.27.8,7.46,1.09,10.44,1.09s7.23-.27,10.5-1.09c-.6,2.23-.6,4.68-.6,6.53v4.9c0,1.14-.71,1.69-2.23,1.69s-6.31-.98-9.36-1.69l-.6-1.8c2.18.16,4.3.27,6.48.27,1.03,0,1.41-.33,1.41-1.14v-5.33h-11.15v14.15h11.75c.38-.49.76-.98,1.21-1.47,1.36.6,2.81,1.36,4.19,2.12-.93,6.69-3.16,12.3-5.82,15.61l-.04.06ZM182.16,94.41c2.71-1.82,5.05-4.12,6.91-6.8-2.28-3.7-3.43-8.87-4.02-14.37h-2.88v21.17ZM186.67,73.24c.76,4.02,2.13,8.27,4.3,11.21,1.53-2.99,2.62-7.34,2.99-11.21h-7.29Z"/>
        <path class="cls-5" d="M246.32,84.34h4.52c1.97.05,3.95-.13,5.88-.55v3.54c-1.93-.41-3.9-.59-5.88-.55h-4.52v8c0,1.42-.93,2.23-2.88,2.23-2.18,0-7.83-.8-11.42-1.58l-.71-2.06c2.88.22,5.98.4,8.54.4,1.25,0,1.69-.49,1.69-1.41v-5.58h-18.56c3.01,1.23,5.94,2.67,8.76,4.3l-3.54,3.43c-2.73-2.88-5.74-5.47-8.99-7.73h-4.88c-1.97-.05-3.95.14-5.88.55v-3.54c1.93.42,3.9.6,5.88.55h27.2v-3.54c-9.74-.06-16.92-.44-24.7-4.63-1.88,2.56-4.39,4.58-7.29,5.88l-2.78-3.7c3.16-.65,6.09-1.69,8-3.1v-7.73c-2.33-.06-4.66.1-6.96.49v-3.16c1.97.41,3.97.61,5.99.6,1.94.03,3.87-.15,5.76-.54-.41,2.12-.61,4.27-.6,6.43v4.23c5.5,2.34,12.35,2.56,20.02,2.56s14.69-.33,18.66-.98l-2.27,3.27c-2.88.16-6.03.27-9.03.33l-.02,3.59ZM215.6,61.44c-2.16-2.76-4.56-5.33-7.18-7.67l1.9-1.8c2.88,1.58,6.36,3.7,9.14,6.09l-3.86,3.37ZM226.32,58.39c-1.98-.05-3.96.13-5.9.54v-3.37c1.93.42,3.9.6,5.88.55h4.57c-1.69-1.36-3.59-2.67-5.01-3.65l1.31-1.63c2.77.93,5.45,2.11,8,3.54l-2.18,1.74h7.73c.87-1.64,1.63-3.32,2.41-5.06l7.07,1.96c-2.2,1.17-4.47,2.2-6.8,3.1h7.02c1.97.05,3.95-.13,5.88-.55v3.37c-1.93-.41-3.9-.59-5.88-.54h-9.04c-1.58.92-3.15,1.79-4.73,2.61h15.67v14.36h-27.32v-14.36h9.79c.27-.87.55-1.74.76-2.61h-9.22ZM247.9,65.27v-2.47h-18.48v2.47h18.48ZM229.42,66.74v2.61h18.48v-2.61h-18.48ZM229.42,73.59h18.48v-2.77h-18.48v2.77Z"/>
        <path class="cls-5" d="M306.94,67.32c1.97.05,3.94-.13,5.87-.55v3.54c-1.93-.41-3.9-.59-5.88-.55h-13.06c-2.94,2.01-6.8,3.92-10.28,5.39h21.87v18.88c-.04,1.14.47,2.23,1.36,2.94h-7.23c.89-.64,1.4-1.68,1.36-2.78h-22.15c-.03,1.09.47,2.13,1.36,2.78h-7.23c.89-.71,1.4-1.8,1.36-2.94v-15.45c-3.83,1.3-7.74,2.35-11.7,3.16l-1.21-1.74c9.46-2.23,17.95-5.44,25.9-10.23h-18.55c-1.97-.05-3.95.14-5.88.55v-3.54c1.93.42,3.9.6,5.88.55h14.31v-6.43h-8.16c-1.97-.04-3.94.14-5.87.55v-3.54c1.93.41,3.9.59,5.87.53h8.16v-3.58c.02-1.12-.48-2.19-1.36-2.88h7.34c-.88.69-1.39,1.76-1.36,2.88v3.58h13c1.65-1.95,3.18-4,4.57-6.15l4.42,2.29c-3.64,4.8-7.91,9.08-12.69,12.74h9.96ZM300.96,83.31v-5.71h-22.2v5.71h22.2ZM278.81,91.75h22.14v-6.21h-22.14v6.21ZM287.68,60.9v6.43h3.37c2.7-1.88,5.2-4.04,7.46-6.43h-10.83Z"/>
      </g>
      <g>
        <path class="cls-5" d="M39.25,50.88c-3.64,29.01-4.49,37.56-1.82,43.73l.98,2.38s-5.05-.28-16.54-.28-16.54.28-16.54.28l1.54-2.38c3.36-5.19,4.49-6.31,9.67-48.36l2.8-22.43c.28-1.96,0-2.94-3.22-2.94H0C10.93,5.47,32.24,8.83,47.1,0c0,0-3.78,18.64-7.85,50.88Z"/>
        <path class="cls-5" d="M93.91,2.24c-37.42,0-45.83,34.34-45.83,59.99,0,18.92,8.27,36.44,36.16,36.44,37.42,0,45.97-34.34,45.97-59.99,0-18.92-8.41-36.44-36.3-36.44Z"/>
        <g>
          <polygon class="cls-4" points="102.92 42.53 122.59 45.37 108.29 79.01 92.62 66.75 102.92 42.53"/>
          <polygon class="cls-3" points="78.77 17.47 102.92 42.53 92.62 66.75 57.82 66.75 78.77 17.47"/>
          <path class="cls-1" d="M78.77,17.47l19.67,2.83,24.14,25.06c-1.57-.27-19.67-2.83-19.67-2.83l-24.14-25.06Z"/>
          <polygon class="cls-2" points="57.82 66.75 86.64 79.01 108.29 79.01 92.62 66.75 57.82 66.75"/>
          <polygon class="cls-1" points="57.82 44.27 57.82 66.75 78.77 17.47 57.82 44.27"/>
        </g>
      </g>
    </g>
  </g>
</svg>