<?xml version="1.0" encoding="UTF-8"?>
<svg id="_圖層_1" data-name="圖層_1" xmlns="http://www.w3.org/2000/svg" version="1.1" viewBox="0 0 512 512">
  <!-- Generator: Adobe Illustrator 29.6.1, SVG Export Plug-In . SVG Version: 2.1.1 Build 9)  -->
  <defs>
    <style>
      .st0 {
        fill: #fff;
      }
    </style>
  </defs>
  <g id="Layer_2">
    <path class="st0" d="M456.14,278.75c-5.58-13.06-13.61-24.92-23.66-34.94l-83.02-83.02c-14.28-14.28-37.44-14.28-51.72,0-5.16,5.16-8.66,11.76-10.05,18.93-18.03-8.83-39.81-1.36-48.63,16.67-1.43,2.91-2.46,6-3.06,9.19-17.86-8.86-39.52-1.57-48.38,16.29-1.14,2.29-2.03,4.7-2.66,7.17l-81.17-81.17c-14.47-13.81-37.24-13.81-51.71,0-14.28,14.28-14.28,37.43,0,51.71l180.64,180.66c.73.68.95,1.75.53,2.65-.33.94-1.25,1.56-2.25,1.5h-41.2c-24.51-.07-46.93,13.78-57.82,35.73-6.7,13.38-1.29,29.66,12.09,36.37,2.16,1.08,4.46,1.87,6.83,2.34l106.24,21.25c16.58,3.36,33.41,5.31,50.32,5.83h3.07c32.63-.34,63.81-13.56,86.73-36.79l32.26-32.2c36.45-36.2,47-91.02,26.61-138.17h0ZM416.6,403.95l-32.26,32.27c-20.05,20.53-47.67,31.89-76.36,31.4-15.88-.48-31.68-2.32-47.25-5.49l-106.24-21.25c-4.78-.97-7.87-5.63-6.9-10.41.15-.76.41-1.49.75-2.19,7.81-15.73,23.89-25.66,41.45-25.6h41.2c11.44-.01,20.71-9.3,20.69-20.74,0-5.49-2.19-10.74-6.07-14.62L64.97,186.66c-7.14-7.14-7.14-18.72,0-25.86,7.23-6.91,18.62-6.91,25.86,0l103.41,103.39,12.91,12.91c3.63,3.51,9.42,3.41,12.93-.22,3.42-3.54,3.42-9.16,0-12.7l-12.95-12.96c-6.9-7.37-6.52-18.94.85-25.85,7.04-6.59,18-6.58,25.03.03l19.4,19.38c3.63,3.51,9.42,3.41,12.93-.22,3.42-3.54,3.42-9.16,0-12.7l-6.47-6.45c-7.14-7.14-7.15-18.72,0-25.87s18.72-7.15,25.87,0l19.4,19.4c3.51,3.63,9.3,3.73,12.93.22,3.63-3.51,3.73-9.3.22-12.93-.07-.08-.15-.15-.22-.22l-6.47-6.47c-6.9-7.38-6.51-18.95.87-25.85,7.05-6.59,18-6.57,25.03.04l83.02,83.04c8.41,8.39,15.12,18.33,19.77,29.26,17.42,40.23,8.44,87.02-22.64,117.94h0Z"/>
    <path class="st0" d="M163.09,137.03l72.19,11.81c.49.07.99.11,1.48.11,5.05.03,9.17-4.04,9.19-9.09.03-4.52-3.26-8.39-7.73-9.08l-51.84-8.47c35.59-22.39,77.97-31.39,119.59-25.4,40.75,5.66,78.33,25.14,106.44,55.19,3.44,3.7,9.23,3.9,12.93.46,3.7-3.44,3.9-9.23.46-12.93-30.98-33.1-72.38-54.57-117.28-60.82-45.61-6.57-92.07,3.22-131.15,27.65l8.05-49.17c.81-4.99-2.57-9.69-7.56-10.51-4.99-.81-9.69,2.57-10.51,7.56h0l-11.81,72.17c-.82,4.98,2.55,9.69,7.53,10.51,0,0,.01,0,.02,0h0Z"/>
  </g>
</svg>