<?xml version="1.0" encoding="UTF-8"?>
<svg id="_圖層_1" data-name="圖層_1" xmlns="http://www.w3.org/2000/svg" version="1.1" viewBox="0 0 512 512">
  <!-- Generator: Adobe Illustrator 29.6.1, SVG Export Plug-In . SVG Version: 2.1.1 Build 9)  -->
  <defs>
    <style>
      .st0 {
        fill: #fff;
      }
    </style>
  </defs>
  <g id="Layer_2">
    <path class="st0" d="M457.75,189.28c14.28-14.28,14.29-37.43.01-51.72,0,0,0,0-.01-.01-14.47-13.8-37.24-13.8-51.71,0l-81.17,81.17c-1.59-6.22-4.82-11.9-9.34-16.46-11.02-10.93-27.73-13.71-41.69-6.95-1.36-7.17-4.85-13.76-10.02-18.91-11.17-10.63-27.72-13.33-41.69-6.8-1.32-7.24-4.81-13.91-10-19.13-14.47-13.8-37.24-13.8-51.71,0l-83.07,83.05c-10.04,10.02-18.07,21.87-23.64,34.91-20.39,47.13-9.83,101.94,26.61,138.13l32.27,32.29c22.93,23.23,54.11,36.45,86.75,36.77h3.07c16.91-.53,33.74-2.48,50.32-5.83l106.22-21.25c14.69-2.94,24.21-17.22,21.28-31.91-.47-2.36-1.26-4.65-2.33-6.8-10.89-21.98-33.34-35.86-57.87-35.77h-41.18c-1.34,0-2.44-1.07-2.45-2.42,0-.65.25-1.28.71-1.74l180.66-180.64ZM259.66,379.57c3.19,7.76,10.76,12.82,19.15,12.8h41.2c17.57-.06,33.65,9.86,41.47,25.6,2.19,4.36.42,9.67-3.94,11.85-.7.35-1.45.61-2.22.76l-106.22,21.25c-15.56,3.15-31.36,4.98-47.23,5.49-28.67.41-56.26-10.93-76.36-31.38l-32.24-32.31c-31.13-30.91-40.15-77.73-22.73-118,4.65-10.93,11.36-20.86,19.77-29.26l83-82.96c7.24-6.9,18.62-6.9,25.86,0,7.14,7.14,7.14,18.72,0,25.86l-6.45,6.45c-3.51,3.63-3.41,9.42.22,12.93,3.54,3.42,9.16,3.42,12.7,0l19.38-19.38c7.14-7.14,18.72-7.15,25.87,0,7.15,7.14,7.15,18.72,0,25.87l-6.47,6.45c-3.51,3.63-3.41,9.42.22,12.93,3.54,3.42,9.16,3.42,12.7,0l19.4-19.38c7.26-7.02,18.84-6.83,25.86.43,6.85,7.08,6.86,18.32.02,25.41l-12.95,12.95c-3.63,3.51-3.73,9.3-.22,12.93,3.51,3.63,9.3,3.73,12.93.22.08-.07.15-.15.22-.22l12.91-12.93,103.41-103.41c7.24-6.9,18.62-6.9,25.86,0,7.14,7.14,7.15,18.71.01,25.86,0,0,0,0-.01.01l-180.66,180.64c-5.91,5.92-7.66,14.82-4.44,22.55h0Z"/>
    <path class="st0" d="M90.72,144.62c2.54,0,4.96-1.05,6.69-2.91,28.12-30.03,65.68-49.51,106.42-55.19,41.7-6.02,84.17,3,119.83,25.44l-52.04,8.52c-4.98.84-8.33,5.56-7.49,10.54.74,4.38,4.52,7.59,8.95,7.62.5,0,.99-.04,1.48-.13l72.17-11.79c4.99-.8,8.38-5.49,7.58-10.48,0-.01,0-.02,0-.04l-11.81-72.17c-.82-4.99-5.53-8.37-10.51-7.55s-8.37,5.53-7.55,10.51l8.03,48.95c-39.1-24.34-85.55-34.06-131.13-27.43-44.87,6.24-86.24,27.67-117.21,60.73-3.44,3.69-3.24,9.48.45,12.92,1.69,1.58,3.91,2.45,6.22,2.46h-.07Z"/>
  </g>
</svg>