<svg width="1001" height="1002" viewBox="0 0 1001 1002" fill="none" xmlns="http://www.w3.org/2000/svg">
<path d="M0.5 1001.5L0.500012 0.499984" stroke="#F1F1F1"/>
<path d="M25.5 1001.5L25.5 0.499984" stroke="#F1F1F1"/>
<path d="M50.5 1001.5L50.5 0.499984" stroke="#F1F1F1"/>
<path d="M75.5 1001.5L75.5 0.499984" stroke="#F1F1F1"/>
<path d="M100.5 1001.5L100.5 0.499984" stroke="#F1F1F1"/>
<path d="M125.5 1001.5L125.5 0.499984" stroke="#F1F1F1"/>
<path d="M150.5 1001.5L150.5 0.499984" stroke="#F1F1F1"/>
<path d="M175.5 1001.5L175.5 0.499984" stroke="#F1F1F1"/>
<path d="M200.5 1001.5L200.5 0.499984" stroke="#F1F1F1"/>
<path d="M225.5 1001.5L225.5 0.499984" stroke="#F1F1F1"/>
<path d="M250.5 1001.5L250.5 0.499984" stroke="#F1F1F1"/>
<path d="M275.5 1001.5L275.5 0.499984" stroke="#F1F1F1"/>
<path d="M300.5 1001.5L300.5 0.499984" stroke="#F1F1F1"/>
<path d="M325.5 1001.5L325.5 0.499984" stroke="#F1F1F1"/>
<path d="M350.5 1001.5L350.5 0.499984" stroke="#F1F1F1"/>
<path d="M375.5 1001.5L375.5 0.499984" stroke="#F1F1F1"/>
<path d="M400.5 1001.5L400.5 0.499984" stroke="#F1F1F1"/>
<path d="M425.5 1001.5L425.5 0.499984" stroke="#F1F1F1"/>
<path d="M450.5 1001.5L450.5 0.499984" stroke="#F1F1F1"/>
<path d="M475.5 1001.5L475.5 0.499984" stroke="#F1F1F1"/>
<path d="M500.5 1001.5L500.5 0.499984" stroke="#F1F1F1"/>
<path d="M525.5 1001.5L525.5 0.499984" stroke="#F1F1F1"/>
<path d="M550.5 1001.5L550.5 0.499984" stroke="#F1F1F1"/>
<path d="M575.5 1001.5L575.5 0.499984" stroke="#F1F1F1"/>
<path d="M600.5 1001.5L600.5 0.499984" stroke="#F1F1F1"/>
<path d="M625.5 1001.5L625.5 0.499984" stroke="#F1F1F1"/>
<path d="M650.5 1001.5L650.5 0.499984" stroke="#F1F1F1"/>
<path d="M675.5 1001.5L675.5 0.499984" stroke="#F1F1F1"/>
<path d="M700.5 1001.5L700.5 0.499984" stroke="#F1F1F1"/>
<path d="M725.5 1001.5L725.5 0.499984" stroke="#F1F1F1"/>
<path d="M750.5 1001.5L750.5 0.499984" stroke="#F1F1F1"/>
<path d="M775.5 1001.5L775.5 0.499984" stroke="#F1F1F1"/>
<path d="M800.5 1001.5L800.5 0.499984" stroke="#F1F1F1"/>
<path d="M825.5 1001.5L825.5 0.499984" stroke="#F1F1F1"/>
<path d="M850.5 1001.5L850.5 0.499984" stroke="#F1F1F1"/>
<path d="M875.5 1001.5L875.5 0.499984" stroke="#F1F1F1"/>
<path d="M900.5 1001.5L900.5 0.499984" stroke="#F1F1F1"/>
<path d="M925.5 1001.5L925.5 0.499984" stroke="#F1F1F1"/>
<path d="M950.5 1001.5L950.5 0.499984" stroke="#F1F1F1"/>
<path d="M975.5 1001.5L975.5 0.499984" stroke="#F1F1F1"/>
<path d="M1000.5 1001.5L1000.5 0.499984" stroke="#F1F1F1"/>
<path d="M0 1L1001 1" stroke="#F1F1F1"/>
<path d="M0 26L1001 26" stroke="#F1F1F1"/>
<path d="M0 51L1001 51" stroke="#F1F1F1"/>
<path d="M0 76L1001 76" stroke="#F1F1F1"/>
<path d="M0 101L1001 101" stroke="#F1F1F1"/>
<path d="M0 126L1001 126" stroke="#F1F1F1"/>
<path d="M0 151L1001 151" stroke="#F1F1F1"/>
<path d="M0 176L1001 176" stroke="#F1F1F1"/>
<path d="M0 201L1001 201" stroke="#F1F1F1"/>
<path d="M0 226L1001 226" stroke="#F1F1F1"/>
<path d="M0 251L1001 251" stroke="#F1F1F1"/>
<path d="M0 276L1001 276" stroke="#F1F1F1"/>
<path d="M0 301L1001 301" stroke="#F1F1F1"/>
<path d="M0 326L1001 326" stroke="#F1F1F1"/>
<path d="M0 351L1001 351" stroke="#F1F1F1"/>
<path d="M0 376L1001 376" stroke="#F1F1F1"/>
<path d="M0 401L1001 401" stroke="#F1F1F1"/>
<path d="M0 426L1001 426" stroke="#F1F1F1"/>
<path d="M0 451L1001 451" stroke="#F1F1F1"/>
<path d="M0 476L1001 476" stroke="#F1F1F1"/>
<path d="M0 501L1001 501" stroke="#F1F1F1"/>
<path d="M0 526L1001 526" stroke="#F1F1F1"/>
<path d="M0 551L1001 551" stroke="#F1F1F1"/>
<path d="M0 576L1001 576" stroke="#F1F1F1"/>
<path d="M0 601L1001 601" stroke="#F1F1F1"/>
<path d="M0 626L1001 626" stroke="#F1F1F1"/>
<path d="M0 651L1001 651" stroke="#F1F1F1"/>
<path d="M0 676L1001 676" stroke="#F1F1F1"/>
<path d="M0 701L1001 701" stroke="#F1F1F1"/>
<path d="M0 726L1001 726" stroke="#F1F1F1"/>
<path d="M0 751L1001 751" stroke="#F1F1F1"/>
<path d="M0 776L1001 776" stroke="#F1F1F1"/>
<path d="M0 801L1001 801" stroke="#F1F1F1"/>
<path d="M0 826L1001 826" stroke="#F1F1F1"/>
<path d="M0 851L1001 851" stroke="#F1F1F1"/>
<path d="M0 876L1001 876" stroke="#F1F1F1"/>
<path d="M0 901L1001 901" stroke="#F1F1F1"/>
<path d="M0 926L1001 926" stroke="#F1F1F1"/>
<path d="M0 951L1001 951" stroke="#F1F1F1"/>
<path d="M0 976L1001 976" stroke="#F1F1F1"/>
<path d="M0 1001L1001 1001" stroke="#F1F1F1"/>
</svg>
