<svg width="1001" height="1002" viewBox="0 0 1001 1002" fill="none" xmlns="http://www.w3.org/2000/svg">
<g clip-path="url(#clip0_307_2924)">
<path d="M0.5 1001.5L0.500012 0.5" stroke="white"/>
<path d="M25.5 1001.5V0.5" stroke="white"/>
<path d="M50.5 1001.5V0.5" stroke="white"/>
<path d="M75.5 1001.5V0.5" stroke="white"/>
<path d="M100.5 1001.5V0.5" stroke="white"/>
<path d="M125.5 1001.5V0.5" stroke="white"/>
<path d="M150.5 1001.5V0.5" stroke="white"/>
<path d="M175.5 1001.5V0.5" stroke="white"/>
<path d="M200.5 1001.5V0.5" stroke="white"/>
<path d="M225.5 1001.5V0.5" stroke="white"/>
<path d="M250.5 1001.5V0.5" stroke="white"/>
<path d="M275.5 1001.5V0.5" stroke="white"/>
<path d="M300.5 1001.5V0.5" stroke="white"/>
<path d="M325.5 1001.5V0.5" stroke="white"/>
<path d="M350.5 1001.5V0.5" stroke="white"/>
<path d="M375.5 1001.5V0.5" stroke="white"/>
<path d="M400.5 1001.5V0.5" stroke="white"/>
<path d="M425.5 1001.5V0.5" stroke="white"/>
<path d="M450.5 1001.5V0.5" stroke="white"/>
<path d="M475.5 1001.5V0.5" stroke="white"/>
<path d="M500.5 1001.5V0.5" stroke="white"/>
<path d="M525.5 1001.5V0.5" stroke="white"/>
<path d="M550.5 1001.5V0.5" stroke="white"/>
<path d="M575.5 1001.5V0.5" stroke="white"/>
<path d="M600.5 1001.5V0.5" stroke="white"/>
<path d="M625.5 1001.5V0.5" stroke="white"/>
<path d="M650.5 1001.5V0.5" stroke="white"/>
<path d="M675.5 1001.5V0.5" stroke="white"/>
<path d="M700.5 1001.5V0.5" stroke="white"/>
<path d="M725.5 1001.5V0.5" stroke="white"/>
<path d="M750.5 1001.5V0.5" stroke="white"/>
<path d="M775.5 1001.5V0.5" stroke="white"/>
<path d="M800.5 1001.5V0.5" stroke="white"/>
<path d="M825.5 1001.5V0.5" stroke="white"/>
<path d="M850.5 1001.5V0.5" stroke="white"/>
<path d="M875.5 1001.5V0.5" stroke="white"/>
<path d="M900.5 1001.5V0.5" stroke="white"/>
<path d="M925.5 1001.5V0.5" stroke="white"/>
<path d="M950.5 1001.5V0.5" stroke="white"/>
<path d="M975.5 1001.5V0.5" stroke="white"/>
<path d="M1000.5 1001.5V0.5" stroke="white"/>
<path d="M0 1H1001" stroke="white"/>
<path d="M0 26H1001" stroke="white"/>
<path d="M0 51H1001" stroke="white"/>
<path d="M0 76H1001" stroke="white"/>
<path d="M0 101H1001" stroke="white"/>
<path d="M0 126H1001" stroke="white"/>
<path d="M0 151H1001" stroke="white"/>
<path d="M0 176H1001" stroke="white"/>
<path d="M0 201H1001" stroke="white"/>
<path d="M0 226H1001" stroke="white"/>
<path d="M0 251H1001" stroke="white"/>
<path d="M0 276H1001" stroke="white"/>
<path d="M0 301H1001" stroke="white"/>
<path d="M0 326H1001" stroke="white"/>
<path d="M0 351H1001" stroke="white"/>
<path d="M0 376H1001" stroke="white"/>
<path d="M0 401H1001" stroke="white"/>
<path d="M0 426H1001" stroke="white"/>
<path d="M0 451H1001" stroke="white"/>
<path d="M0 476H1001" stroke="white"/>
<path d="M0 501H1001" stroke="white"/>
<path d="M0 526H1001" stroke="white"/>
<path d="M0 551H1001" stroke="white"/>
<path d="M0 576H1001" stroke="white"/>
<path d="M0 601H1001" stroke="white"/>
<path d="M0 626H1001" stroke="white"/>
<path d="M0 651H1001" stroke="white"/>
<path d="M0 676H1001" stroke="white"/>
<path d="M0 701H1001" stroke="white"/>
<path d="M0 726H1001" stroke="white"/>
<path d="M0 751H1001" stroke="white"/>
<path d="M0 776H1001" stroke="white"/>
<path d="M0 801H1001" stroke="white"/>
<path d="M0 826H1001" stroke="white"/>
<path d="M0 851H1001" stroke="white"/>
<path d="M0 876H1001" stroke="white"/>
<path d="M0 901H1001" stroke="white"/>
<path d="M0 926H1001" stroke="white"/>
<path d="M0 951H1001" stroke="white"/>
<path d="M0 976H1001" stroke="white"/>
<path d="M0 1001H1001" stroke="white"/>
</g>
<defs>
<clipPath id="clip0_307_2924">
<rect width="1001" height="1002" fill="white"/>
</clipPath>
</defs>
</svg>
