<svg width="580" height="125" viewBox="0 0 580 125" fill="none" xmlns="http://www.w3.org/2000/svg">
<path d="M427.43 69.692C427.08 69.322 426.67 69.022 426.21 68.792C425.06 68.242 423.8 67.972 422.52 68.022H420.39V77.402C420.39 86.752 420.53 86.882 421.23 88.162L421.53 88.702C421.53 88.702 420.62 88.642 418.48 88.642C416.34 88.642 415.37 88.702 415.37 88.702L415.67 88.162C416.35 86.942 416.52 86.712 416.52 77.082V68.022H414.39C413.12 67.982 411.86 68.252 410.71 68.812C410.25 69.032 409.84 69.342 409.49 69.712C409.56 69.002 409.6 68.302 409.59 67.592C409.59 66.372 409.55 65.832 409.55 65.832H427.33C427.33 65.832 427.29 66.372 427.29 67.592C427.29 68.292 427.33 68.992 427.41 69.692H427.43Z" fill="white"/>
<path d="M448.61 88.6512C446.45 88.6512 445.5 88.7112 445.5 88.7112L445.8 88.1712C446.45 86.9812 446.65 86.6912 446.65 78.2112H436.03C436.03 86.7212 436.17 86.9212 436.87 88.1712L437.17 88.7112C437.17 88.7112 436.26 88.6512 434.12 88.6512C431.98 88.6512 431.01 88.7112 431.01 88.7112L431.31 88.1712C431.99 86.9512 432.16 86.7212 432.16 77.0912C432.16 67.4612 432.02 67.6112 431.31 66.3312L431.01 65.7812C431.01 65.7812 431.89 65.8512 434.09 65.8512C436.29 65.8512 437.17 65.7812 437.17 65.7812L436.87 66.3312C436.23 67.4812 436.03 67.7712 436.03 75.5812H446.65C446.65 67.8412 446.48 67.5512 445.8 66.3312L445.5 65.7812C445.5 65.7812 446.38 65.8512 448.58 65.8512C450.78 65.8512 451.66 65.7812 451.66 65.7812L451.36 66.3312C450.68 67.5512 450.52 67.7713 450.52 77.4113C450.52 87.0513 450.65 86.8912 451.36 88.1712L451.66 88.7112C451.66 88.7112 450.79 88.6512 448.62 88.6512H448.61Z" fill="white"/>
<path d="M471.91 87.6808L471.84 88.7008H459.9C458.08 88.7008 457.3 88.7308 457.3 88.7308L457.6 88.1908C458.28 86.9708 458.44 86.7408 458.44 77.1108C458.44 67.4808 458.3 67.6308 457.6 66.3508L457.3 65.8008C457.3 65.8008 458.04 65.8408 459.87 65.8408H471.5C471.5 65.8408 471.47 66.3808 471.47 67.6008C471.47 68.3008 471.5 69.0008 471.57 69.6908C471.21 69.3408 470.8 69.0508 470.35 68.8208C469.18 68.2908 467.91 68.0508 466.63 68.1108H462.3V76.0908H465.82C467.41 76.0908 468.73 75.9308 469.54 75.4808C469.99 75.2608 470.4 74.9808 470.76 74.6508C470.76 74.6808 470.66 75.5808 470.66 77.2508C470.66 78.9208 470.76 79.7608 470.76 79.8208C470.4 79.4708 469.99 79.1808 469.54 78.9508C468.73 78.5008 467.41 78.3408 465.82 78.3408H462.3V86.4108H466.29C470.48 86.4108 471.02 85.4808 472.27 83.7408C472.26 83.7408 472.1 84.9308 471.9 87.6908L471.91 87.6808Z" fill="white"/>
<path d="M426.29 122.15C423.89 122.15 422.97 121.18 421.35 118.74L419.05 115.27C417.05 112.28 416.68 111.64 414.99 111.64C414.8 111.64 414.6 111.65 414.41 111.68C414.41 119.78 414.55 120.22 415.26 121.48L415.56 122.02C415.56 122.02 414.68 121.96 412.55 121.96C410.42 121.96 409.5 122.02 409.5 122.02L409.8 121.48C410.48 120.29 410.64 120.03 410.64 110.4C410.64 100.77 410.51 100.92 409.8 99.6398L409.5 99.0898C409.5 99.0898 410.55 99.1599 412.04 99.1599C413.06 99.1599 414.92 99.0898 416.1 99.0898C420.3 99.0898 425.44 99.3799 425.44 104.91C425.44 107.9 423.55 111.05 418.1 111.01C420.91 111.36 421.96 112.74 423.69 115.47L425.35 118.2C426.47 120.03 427.31 121.25 428.67 121.83C428.67 121.83 428.16 122.17 426.3 122.17L426.29 122.15ZM416 101.19C415.12 101.19 414.41 101.25 414.41 101.25V109.54C414.41 109.54 415.02 109.58 416.27 109.58C416.71 109.58 417.69 109.51 418.26 109.45C419.95 109.16 421.34 107.84 421.34 105.31C421.34 101.65 419.04 101.2 416 101.2V101.19Z" fill="white"/>
<path d="M446.41 120.982L446.34 122.002H434.4C432.58 122.002 431.8 122.032 431.8 122.032L432.1 121.492C432.78 120.272 432.94 120.042 432.94 110.412C432.94 100.782 432.8 100.932 432.1 99.6516L431.8 99.1016C431.8 99.1016 432.54 99.1416 434.37 99.1416H446C446 99.1416 445.97 99.6816 445.97 100.902C445.97 101.602 446 102.302 446.07 102.992C445.71 102.642 445.3 102.352 444.85 102.122C443.68 101.592 442.41 101.352 441.13 101.412H436.8V109.392H440.32C441.91 109.392 443.23 109.232 444.04 108.782C444.49 108.562 444.9 108.282 445.26 107.952C445.26 107.982 445.16 108.882 445.16 110.552C445.16 112.222 445.26 113.062 445.26 113.122C444.9 112.772 444.49 112.482 444.04 112.262C443.23 111.812 441.91 111.652 440.32 111.652H436.8V119.722H440.77C444.96 119.722 445.5 118.792 446.75 117.052C446.77 117.052 446.6 118.242 446.4 121.002L446.41 120.982Z" fill="white"/>
<path d="M459.12 113.012C458.34 113.012 457.56 112.962 456.79 112.852C456.79 119.632 456.92 120.212 457.67 121.492L457.97 122.032C457.97 122.032 457.09 121.972 454.89 121.972C452.69 121.972 451.81 122.032 451.81 122.032L452.11 121.492C452.79 120.302 452.95 120.042 452.95 110.412C452.95 100.782 452.82 100.932 452.11 99.6516L451.81 99.1016C451.81 99.1016 452.76 99.1716 454.31 99.1716C455.73 99.1716 457.56 99.1016 458.57 99.1016C461.88 99.1016 467.97 99.3316 467.97 105.852C467.97 112.012 462.86 113.022 459.11 113.022L459.12 113.012ZM458.55 101.192C457.53 101.192 456.79 101.252 456.79 101.252V110.762C457.44 110.852 458.1 110.882 458.75 110.862C463.66 110.862 463.86 107.612 463.86 105.782C463.86 101.702 460.81 101.192 458.55 101.192Z" fill="white"/>
<path d="M482.73 122.359C475.73 122.359 471.91 117.929 471.91 111.049C471.91 107.609 472.93 98.8594 482.77 98.8594C489.81 98.8594 493.63 103.289 493.63 110.169C493.61 113.589 492.6 122.359 482.74 122.359H482.73ZM482.73 101.189C479.15 101.189 476.13 103.629 476.13 110.699C476.13 117.769 479.07 120.019 482.73 120.019C486.39 120.019 489.36 117.579 489.36 110.509C489.4 103.539 486.42 101.189 482.73 101.189Z" fill="white"/>
<path d="M514.94 122.15C512.54 122.15 511.62 121.18 510 118.74L507.7 115.27C505.7 112.28 505.33 111.64 503.64 111.64C503.45 111.64 503.26 111.65 503.07 111.68C503.07 119.78 503.2 120.22 503.91 121.48L504.21 122.02C504.21 122.02 503.33 121.96 501.2 121.96C499.07 121.96 498.15 122.02 498.15 122.02L498.45 121.48C499.13 120.29 499.3 120.03 499.3 110.4C499.3 100.77 499.16 100.92 498.45 99.6398L498.15 99.0898C498.15 99.0898 499.2 99.1599 500.69 99.1599C501.71 99.1599 503.57 99.0898 504.75 99.0898C508.94 99.0898 514.08 99.3799 514.08 104.91C514.08 107.9 512.19 111.05 506.74 111.01C509.55 111.36 510.6 112.74 512.33 115.47L513.99 118.2C515.11 120.03 515.96 121.25 517.31 121.83C517.3 121.83 516.79 122.17 514.94 122.17V122.15ZM504.64 101.19C503.76 101.19 503.05 101.25 503.05 101.25V109.54C503.05 109.54 503.66 109.58 504.91 109.58C505.35 109.58 506.33 109.51 506.91 109.45C508.6 109.16 509.99 107.84 509.99 105.31C509.99 101.65 507.69 101.2 504.65 101.2L504.64 101.19Z" fill="white"/>
<path d="M536.3 102.989C535.95 102.619 535.54 102.319 535.08 102.089C533.93 101.539 532.67 101.279 531.39 101.319H529.26V110.699C529.26 120.049 529.39 120.179 530.1 121.459L530.4 121.999C530.4 121.999 529.49 121.939 527.35 121.939C525.21 121.939 524.24 121.999 524.24 121.999L524.54 121.459C525.22 120.239 525.39 120.009 525.39 110.379V101.319H523.26C521.99 101.269 520.72 101.539 519.57 102.089C519.11 102.309 518.7 102.619 518.36 102.989C518.43 102.279 518.47 101.579 518.46 100.869C518.46 99.6494 518.42 99.1094 518.42 99.1094H536.2C536.2 99.1094 536.17 99.6494 536.17 100.869C536.17 101.579 536.21 102.279 536.29 102.989H536.3Z" fill="white"/>
<path d="M554.94 120.982L554.87 122.002H542.93C541.1 122.002 540.32 122.032 540.32 122.032L540.62 121.492C541.3 120.272 541.46 120.042 541.46 110.412C541.46 100.782 541.33 100.932 540.62 99.6516L540.32 99.1016C540.32 99.1016 541.06 99.1416 542.89 99.1416H554.54C554.54 99.1416 554.51 99.6816 554.51 100.902C554.51 101.602 554.54 102.302 554.61 102.992C554.25 102.642 553.84 102.342 553.39 102.122C552.22 101.592 550.95 101.352 549.67 101.412H545.34V109.392H548.86C550.45 109.392 551.77 109.232 552.58 108.782C553.02 108.562 553.42 108.282 553.78 107.942C553.78 107.972 553.68 108.872 553.68 110.542C553.68 112.212 553.78 113.052 553.78 113.112C553.42 112.762 553.01 112.472 552.56 112.252C551.75 111.802 550.43 111.642 548.84 111.642H545.32V119.712H549.31C553.51 119.712 554.04 118.782 555.3 117.042C555.3 117.052 555.13 118.242 554.92 121.002L554.94 120.982Z" fill="white"/>
<path d="M576.68 122.15C574.28 122.15 573.37 121.18 571.74 118.74L569.44 115.27C567.44 112.28 567.07 111.64 565.38 111.64C565.19 111.64 565 111.65 564.81 111.68C564.81 119.78 564.95 120.22 565.66 121.48L565.96 122.02C565.96 122.02 565.08 121.96 562.95 121.96C560.82 121.96 559.9 122.02 559.9 122.02L560.2 121.48C560.88 120.29 561.04 120.03 561.04 110.4C561.04 100.77 560.9 100.92 560.2 99.6398L559.9 99.0898C559.9 99.0898 560.95 99.1599 562.44 99.1599C563.46 99.1599 565.32 99.0898 566.5 99.0898C570.7 99.0898 575.84 99.3799 575.84 104.91C575.84 107.9 573.95 111.05 568.5 111.01C571.31 111.36 572.36 112.74 574.09 115.47L575.75 118.2C576.87 120.03 577.71 121.25 579.06 121.83C579.06 121.83 578.55 122.17 576.69 122.17L576.68 122.15ZM566.4 101.19C565.52 101.19 564.81 101.25 564.81 101.25V109.54C564.81 109.54 565.42 109.58 566.67 109.58C567.11 109.58 568.09 109.51 568.67 109.45C570.36 109.16 571.75 107.84 571.75 105.31C571.75 101.65 569.45 101.2 566.41 101.2L566.4 101.19Z" fill="white"/>
<path d="M210.67 106.173H215.75C218.25 106.243 220.74 106.013 223.18 105.483V109.963C220.74 109.443 218.24 109.203 215.75 109.273H210.67V118.973C210.64 120.393 211.27 121.743 212.39 122.623H203.51C204.63 121.743 205.27 120.393 205.23 118.973V109.273H199.25C196.75 109.203 194.26 109.443 191.82 109.963V105.493C194.26 106.013 196.76 106.243 199.25 106.183H205.23V99.3631H200.41C197.91 99.2931 195.42 99.5231 192.98 100.053V95.9931C195.42 96.5131 197.92 96.7431 200.41 96.6831H213.96C216.46 96.7531 218.95 96.5231 221.39 95.9931V100.053C218.95 99.5231 216.45 99.2931 213.96 99.3631H210.66V106.173H210.67ZM200.14 85.6031C197.64 85.5331 195.15 85.7631 192.71 86.2931V82.0931C195.15 82.6131 197.65 82.8431 200.14 82.7831H205.22V76.3131H201.09C198.6 76.2431 196.1 76.4731 193.66 77.0031V72.5231C196.1 73.0531 198.59 73.2831 201.09 73.2131H205.22V69.3531C205.25 67.9331 204.61 66.5831 203.5 65.7031H212.38C211.27 66.5831 210.63 67.9331 210.67 69.3531V73.2131H213.91C216.41 73.2831 218.9 73.0531 221.34 72.5231V77.0031C218.9 76.4731 216.41 76.2431 213.91 76.3131H210.67V82.7831H215.07C217.57 82.8331 220.06 82.5731 222.5 82.0231V86.2231C220.23 85.6731 217.82 85.6031 215.07 85.6031H200.14ZM199.8 86.5031C202.29 88.3831 204.56 90.5531 206.54 92.9731L202.54 95.7931C201.14 93.0331 199.46 90.4231 197.52 88.0231L199.8 86.5131V86.5031ZM209.45 94.0631C211.03 91.6231 212.43 89.0831 213.65 86.4431L218.13 88.8531C216.2 91.3131 214.01 93.5431 211.59 95.5231L209.46 94.0631H209.45ZM245.09 110.443C248.25 113.263 252.66 115.523 255.76 116.913L250.81 121.993C247.72 120.413 244.71 117.453 241.94 114.153C238.7 117.203 234.95 119.673 230.86 121.443V122.613H223.68C224.8 121.733 225.43 120.383 225.4 118.963V76.5231C225.4 73.9031 225.4 70.3931 224.64 67.5731C228.77 68.5931 234.07 68.9531 237.85 68.9531C241.63 68.9531 246.99 68.6031 251.13 67.5731C250.37 70.3931 250.37 73.4931 250.37 75.8231V82.0131C250.37 83.4631 249.48 84.1431 247.55 84.1431C245.62 84.1431 239.57 82.9031 235.72 82.0131L234.96 79.7431C237.71 79.9531 240.4 80.0931 243.15 80.0931C244.46 80.0931 244.94 79.6831 244.94 78.6531V71.9031H230.84V89.7931H245.7C246.18 89.1731 246.66 88.5531 247.22 87.9331C248.94 88.6931 250.78 89.6531 252.52 90.6131C251.35 99.0731 248.53 106.163 245.15 110.353L245.09 110.423V110.443ZM230.86 119.383C234.28 117.083 237.24 114.163 239.6 110.783C236.71 106.103 235.27 99.5631 234.52 92.6231H230.87V119.383H230.86ZM236.57 92.6231C237.54 97.7031 239.26 103.083 242.01 106.793C243.94 103.013 245.32 97.5031 245.79 92.6231H236.57Z" fill="white"/>
<path d="M311.99 106.651H317.7C320.2 106.721 322.69 106.491 325.13 105.961V110.441C322.69 109.921 320.19 109.691 317.7 109.751H311.99V119.861C311.99 121.651 310.82 122.681 308.34 122.681C305.59 122.681 298.43 121.661 293.89 120.681L293 118.081C296.64 118.351 300.56 118.591 303.8 118.591C305.38 118.591 305.93 117.971 305.93 116.801V109.741H282.47C286.28 111.301 289.98 113.111 293.55 115.181L289.08 119.521C285.63 115.881 281.82 112.611 277.71 109.751H271.53C269.03 109.691 266.54 109.921 264.1 110.441V105.961C266.54 106.491 269.04 106.721 271.53 106.651H305.93V102.181C293.61 102.111 284.53 101.631 274.7 96.3312C272.32 99.5612 269.15 102.131 265.48 103.761L261.96 99.0812C265.95 98.2612 269.67 96.9513 272.07 95.1613V85.3912C269.12 85.3112 266.17 85.5212 263.27 86.0112V82.0212C265.76 82.5412 268.3 82.8012 270.84 82.7812C273.29 82.8212 275.73 82.5912 278.13 82.0912C277.62 84.7712 277.36 87.4913 277.37 90.2213V95.5712C284.32 98.5312 292.99 98.8112 302.69 98.8112C312.39 98.8112 321.27 98.4012 326.29 97.5712L323.43 101.701C319.78 101.901 315.81 102.051 312.01 102.111L311.99 106.651ZM273.15 77.6912C270.42 74.2012 267.38 70.9512 264.07 67.9912L266.48 65.7213C270.13 67.7213 274.53 70.4012 278.04 73.4312L273.15 77.7012V77.6912ZM286.7 73.8412C284.19 73.7812 281.69 74.0113 279.24 74.5312V70.2612C281.68 70.7912 284.18 71.0212 286.67 70.9512H292.45C290.32 69.2312 287.91 67.5812 286.12 66.3412L287.77 64.2812C291.27 65.4612 294.66 66.9512 297.88 68.7512L295.13 70.9512H304.9C306 68.8812 306.96 66.7512 307.95 64.5512L316.89 67.0312C314.1 68.5113 311.23 69.8212 308.29 70.9512H317.16C319.66 71.0212 322.15 70.7912 324.59 70.2612V74.5312C322.15 74.0113 319.65 73.7812 317.16 73.8412H305.73C303.74 75.0112 301.74 76.1112 299.75 77.1412H319.56V95.3012H285.02V77.1412H297.4C297.75 76.0412 298.09 74.9412 298.37 73.8412H286.71H286.7ZM313.99 82.5312V79.4113H290.62V82.5312H313.99ZM290.62 84.3912V87.6912H313.99V84.3912H290.62ZM290.62 93.0512H313.99V89.5512H290.62V93.0512Z" fill="white"/>
<path d="M388.65 85.1205C391.14 85.1905 393.64 84.9605 396.08 84.4305V88.9105C393.64 88.3905 391.14 88.1605 388.65 88.2205H372.14C368.43 90.7605 363.54 93.1705 359.14 95.0305H386.79V118.901C386.74 120.341 387.38 121.72 388.51 122.61H379.37C380.49 121.8 381.14 120.48 381.09 119.1H353.08C353.04 120.48 353.68 121.8 354.8 122.61H345.66C346.79 121.72 347.43 120.341 347.38 118.901V99.3605C342.54 101 337.59 102.34 332.58 103.36L331.06 101.161C343.03 98.3405 353.76 94.2805 363.81 88.2305H340.36C337.86 88.1705 335.37 88.4005 332.93 88.9205V84.4405C335.37 84.9705 337.87 85.2005 340.36 85.1305H358.45V77.0005H348.13C345.64 76.9405 343.15 77.1805 340.71 77.7005V73.2305C343.15 73.7505 345.64 73.9705 348.13 73.9105H358.45V69.3805C358.48 67.9605 357.85 66.6105 356.73 65.7305H366.02C364.9 66.6105 364.27 67.9605 364.3 69.3805V73.9105H380.74C382.83 71.4505 384.76 68.8505 386.52 66.1405L392.11 69.0305C387.51 75.1005 382.11 80.5205 376.06 85.1405H388.65V85.1205ZM381.08 105.35V98.1305H353.01V105.35H381.08ZM353.08 116.01H381.08V108.161H353.08V116.01ZM364.29 77.0105V85.1405H368.56C371.97 82.7605 375.13 80.0405 377.99 77.0105H364.3H364.29Z" fill="white"/>
<path d="M50.16 64.34C45.55 101.03 44.49 111.84 47.86 119.64L49.1 122.65C49.1 122.65 42.72 122.29 28.19 122.29C13.66 122.29 7.28004 122.65 7.28004 122.65L9.23004 119.64C13.48 113.08 14.9 111.66 21.46 58.49L25 30.13C25.35 27.65 25 26.41 20.92 26.41H0.540039C14.36 6.91003 41.3 11.17 60.09 0C60.09 0 55.31 23.57 50.17 64.34H50.16Z" fill="white"/>
<path d="M119.28 2.83984C71.9601 2.83984 61.3201 46.2598 61.3201 78.6998C61.3201 102.63 71.7801 124.78 107.05 124.78C154.37 124.78 165.18 81.3598 165.18 48.9198C165.18 24.9898 154.55 2.83984 119.28 2.83984Z" fill="white"/>
<path d="M130.66 53.7812L155.54 57.3612L137.45 99.9012L117.64 84.4113L130.66 53.7812Z" fill="#C40D23"/>
<path d="M100.14 22.0898L130.66 53.7798L117.64 84.4099H73.64L100.14 22.0898Z" fill="#F80B28"/>
<path d="M100.14 22.0898L125.02 25.6698L155.55 57.3598C153.56 57.0198 130.67 53.7798 130.67 53.7798L100.14 22.0898Z" fill="#F76977"/>
<path d="M73.64 84.4102L110.09 99.9001H137.45L117.64 84.4102H73.64Z" fill="#9B051E"/>
<path d="M73.64 55.9698V84.4099L100.14 22.0898L73.64 55.9698Z" fill="#F76977"/>
</svg>
