<svg width="545" height="113" viewBox="0 0 545 113" fill="none" xmlns="http://www.w3.org/2000/svg">
<path d="M4.33997 73.0323C7.69997 74.8323 12.41 77.7223 14.75 79.7723L10.21 85.4123C8.06996 83.2623 3.43004 80.1123 0.0400391 78.0523L4.33997 73.0223V73.0323ZM11.22 87.5123L16.97 92.0223C14.25 98.4823 11.0301 105.462 7.93005 111.422L1.42004 106.882C4.20004 102.222 8.16996 94.6223 11.21 87.5123H11.22ZM7.73999 56.6523C11 58.5323 15.71 61.5423 18.04 63.6223L13.26 69.1423C11.17 67.0023 6.54998 63.7223 3.22998 61.5323L7.73999 56.6523ZM37 90.2123C33.17 98.3823 26.6501 105.512 19.0601 109.342C17.9801 107.612 15.7601 104.892 14.1801 103.522C21.3001 100.592 27.79 94.6223 31.01 88.2323L37 90.2123ZM35.46 66.0523C34.86 74.8423 32.51 79.7023 19.62 82.1123C19.1 80.4423 17.44 77.8023 16.12 76.4423C26.94 74.9523 28.39 72.2323 28.8 66.0423H35.45L35.46 66.0523ZM55.99 85.6923V92.2323H17.76V85.6923H55.99ZM55.86 58.1523V70.3823H48.8199V64.3723H25.1801V70.6923H18.48V58.1423H55.86V58.1523ZM40.21 79.6123V112.732H33V79.6123H40.21ZM57.96 103.322C56.34 104.632 54.11 107.242 52.99 109.032C46.58 105.172 40.31 98.1423 36.62 90.9223L42.1801 88.8823C45.4501 94.6023 51.74 100.312 57.96 103.322ZM45.48 66.0523V72.5123C45.48 73.9223 45.68 74.4923 46.78 74.4923H52.78C54 74.4923 55.84 74.3523 56.89 74.0723C57 75.7523 57.22 78.6023 57.42 80.1723C56.41 80.5523 54.6599 80.5923 52.9399 80.5923H46.9301C40.5101 80.5923 38.99 78.5323 38.99 72.4423V66.0423H45.49L45.48 66.0523Z" fill="white"/>
<path d="M73.7799 60.6211V76.9411C73.7799 87.2611 72.9999 102.641 67.8999 112.651C66.3999 111.571 63.0799 110.041 61.1699 109.481C66.1199 100.081 66.5099 86.3411 66.5099 76.9911V60.6211H73.7799ZM118.1 60.6211V67.4211H69.9299V60.6211H118.1ZM108.62 90.6911L109.89 90.4211L114.49 92.7411C107.72 105.581 92.6998 110.421 75.4698 112.361C74.9198 110.601 73.5999 107.811 72.4799 106.231C88.1599 105.071 102.13 101.011 107.19 91.5911V90.6911H108.62ZM117.5 72.8811V78.6611H75.0299V72.8811H117.5ZM109.07 90.6911V96.4411H75.4799V90.6911H109.07ZM119.11 106.371C117.58 107.901 115.77 110.861 114.86 112.731C99.1599 111.131 87.0399 106.471 79.5499 97.3711L85.8599 94.9711C91.7499 101.761 104.09 105.311 119.1 106.371H119.11ZM90.2399 68.8511V82.7211H101.44V68.8511H108.65V88.2711H83.2999V68.8511H90.2399ZM95.4398 54.8711C96.7298 57.5111 98.0398 60.9711 98.4398 63.2511L90.5698 65.1311C90.2498 62.8911 89.1599 59.2311 87.9999 56.5211L95.4398 54.8711Z" fill="white"/>
<path d="M149.39 85.4292L151.56 91.5492C143.39 97.0092 134.36 102.669 127.26 106.899L122.53 100.209C128.9 97.0592 139.82 90.9492 149.39 85.4292ZM178.71 64.5892V71.7092H124.4V64.5892H178.71ZM132.08 73.9192C135.74 77.1492 140.26 81.7892 142.23 85.0992L136.23 89.5392C134.45 86.2192 130.18 81.3192 126.51 77.8292L132.08 73.9192ZM155.05 55.4292V103.759C155.05 108.059 154.16 110.129 151.63 111.339C149.09 112.609 145.1 112.849 139.64 112.799C139.31 110.689 138.2 107.259 137.11 105.069C140.83 105.239 144.69 105.229 145.91 105.209C147.06 105.199 147.49 104.839 147.49 103.719V55.4192H155.05V55.4292ZM180.45 100.839C178.69 102.349 176.26 105.349 175.05 107.409C162.36 100.819 153.85 87.8392 148.72 72.5492L154.48 70.8692C159 83.7692 168.1 95.4892 180.45 100.839ZM176.99 77.9092C172.84 82.6092 167.62 87.7792 163.62 91.0992L158.26 87.0192C162.19 83.6192 167.46 77.9192 170.51 73.3692L176.99 77.9092ZM163.29 55.1992C166.98 56.9092 172.08 59.6092 174.67 61.6092L170.07 66.7792C167.71 64.7092 162.74 61.7392 158.96 59.8392L163.28 55.1992H163.29Z" fill="white"/>
<path d="M208.5 105.49C203.7 108.41 196.04 111.37 189.98 112.85C188.8 111.45 186.6 109.19 184.99 107.82C191.15 106.45 198.65 103.64 202.43 101.24L208.5 105.5V105.49ZM239.95 95.4497V101.47H185.33V95.4497H239.95ZM238.44 59.5197V65.6297H186.92V59.5197H238.44ZM232.03 68.3097V97.7897H224.63V72.9097H200.54V97.7897H193.47V68.3097H232.04H232.03ZM227.17 75.4997V79.6597H197.01V75.4997H227.17ZM227.17 81.9597V86.0697H197.01V81.9597H227.17ZM227.17 88.4997V92.6097H197.01V88.4997H227.17ZM217.69 55.9297C216.74 61.3797 215.63 67.1097 214.66 70.7497L207.76 69.9097C208.73 65.9297 209.64 59.6797 209.95 55.1797L217.69 55.9297ZM221.43 100.79C228.31 102.75 236.1 105.65 240.57 107.83L234.47 112.77C230.45 110.53 223.56 107.58 216.86 105.55L221.43 100.8V100.79Z" fill="white"/>
<path d="M280.16 84.0505C280.16 88.3605 276.64 91.8705 272.34 91.8705C268.04 91.8705 264.52 88.3505 264.52 84.0505C264.52 79.7505 268.04 76.2305 272.34 76.2305C276.64 76.2305 280.16 79.7505 280.16 84.0505Z" fill="#F80B28"/>
<path d="M321.45 87.9403C320.02 95.6303 317.07 104.48 307.33 109.87C306.45 108.15 304.46 105.45 302.91 104.2C311.19 100.19 313.29 93.0703 314.43 87.9403H321.44H321.45ZM358.7 82.1203C345.64 84.6603 325.19 85.9003 310.14 86.2803C309.1 84.5203 307.26 81.0203 305.84 79.4803C321.87 79.7203 341.81 78.6403 353.24 76.7303L358.69 82.1203H358.7ZM356.88 57.3203V74.9303H307.23V57.3203H356.88ZM314.26 68.5303H321.41V63.7203H314.26V68.5303ZM318.74 93.8603C321.68 95.9703 325.68 99.0703 327.57 101.13L323.72 106.33C321.9 104.17 318.01 100.84 315.03 98.5303L318.73 93.8603H318.74ZM328.09 68.5303H335.39V63.7203H328.09V68.5303ZM333.03 80.6403L335.76 81.4003V112.95H328.49V85.2303L333.03 80.6403ZM352.95 86.5603C351.69 94.6803 348.99 104.18 339.48 110.04C338.51 108.24 336.45 105.54 334.8 104.25C342.95 99.8703 344.83 92.1703 345.81 86.5603H352.95ZM342.08 68.5303H349.53V63.7203H342.08V68.5303ZM361.09 104C359.58 105.18 357.31 107.65 356.24 109.28C352.06 106.01 347.89 99.7403 345.97 95.8003L351.04 92.9103C352.91 96.4103 356.93 101.39 361.08 103.99L361.09 104Z" fill="white"/>
<path d="M374 68.562V72.482C374 76.292 373.3 81.212 369.87 84.472C368.79 83.562 366.21 82.012 364.87 81.432C368.02 78.552 368.46 75.072 368.46 72.332V68.562H374ZM420.41 103.132V108.202H365.91V103.132H420.41ZM393.18 57.942V61.622H366.02V57.942H393.18ZM418.94 83.212V88.292H367.73V83.212H418.94ZM391.55 63.372V67.002H367.85V63.372H391.55ZM391.68 68.562V78.752H371.33V75.212H386.03V72.112H371.6V68.562H391.68ZM381.71 85.242V105.832H374.59V85.242H381.71ZM383.06 55.332V65.202H376.47V55.332H383.06ZM382.39 69.952V76.722H377.28V69.952H382.39ZM408.28 90.322V94.642H379.62V90.322H408.28ZM408.47 96.802V101.102H379.81V96.802H408.47ZM402.86 56.712V59.962C402.86 63.562 401.51 67.222 395.84 69.662C395.12 68.452 393.03 66.112 391.95 65.342C396.63 63.702 397.31 61.852 397.31 59.772V56.712H402.87H402.86ZM413.29 67.822L414.39 67.652L418.15 68.982C414.41 77.892 405.76 81.722 394.79 83.482C394.27 82.042 393.03 79.782 392 78.592C401.43 77.582 409.24 74.562 412.05 68.492V67.822H413.29ZM413.89 67.822V71.752H394.52V67.822H413.89ZM420.84 78.512C419.6 79.702 418.12 81.902 417.39 83.412C407.51 82.052 400.16 78.422 396.09 72.292L401.15 70.932C404.47 75.292 411.79 77.782 420.85 78.522L420.84 78.512ZM411.32 56.712V61.492H400.44V56.712H411.32ZM412.04 85.132V112.842H404.78V85.132H412.04ZM414.09 56.712V61.772C414.09 62.862 414.16 63.392 415.04 63.392H417.11C417.91 63.392 419.54 63.282 420.31 63.022C420.4 64.502 420.48 65.982 420.67 67.412C419.89 67.722 418.44 67.782 417.27 67.782H413.47C408.97 67.782 408.21 65.742 408.21 61.722V56.702H414.1L414.09 56.712Z" fill="white"/>
<path d="M477.34 58.2405V65.1605H435.54V112.8H428.41V58.2305H477.34V58.2405ZM469.67 69.5005V75.6805H439.05V69.5005H469.67ZM448.68 80.3505V105.01H441.95V80.3505H448.68ZM466.95 80.3505V100.94H445.63V94.8605H460.17V86.3705H445.63V80.3505H466.95ZM480.51 58.2405V104.37C480.51 108.17 479.74 110.26 477.38 111.42C475.03 112.63 471.65 112.84 466.5 112.82C466.22 110.82 465.1 107.46 464.02 105.57C467.24 105.74 470.81 105.731 471.84 105.711C472.91 105.651 473.27 105.281 473.27 104.281V58.2305H480.5L480.51 58.2405Z" fill="white"/>
<path d="M509.82 71.3103C505.02 79.4303 497.5 88.0203 490.91 93.4103C489.89 91.8603 487.39 88.5503 485.91 87.0603C492.14 82.7003 498.83 75.6003 502.86 68.6503L509.82 71.3103ZM507.58 58.2403C503.13 64.0403 496.52 70.3703 490.67 74.4503C489.74 72.8003 487.84 69.8803 486.57 68.4303C491.66 65.1603 497.56 59.6203 500.51 55.3203L507.58 58.2503V58.2403ZM502.35 76.5403L503.28 76.9003V112.83H495.92V82.9903L502.34 76.5303L502.35 76.5403ZM543.78 75.7703V82.7403H509.68V75.7703H543.78ZM542.17 58.8103V65.8003H512.29V58.8103H542.17ZM535.31 77.8603V104.28C535.31 108.2 534.56 110.27 531.86 111.4C529.23 112.5 525.35 112.6 519.87 112.6C519.61 110.45 518.63 107.27 517.64 105.14C521.12 105.31 525.2 105.31 526.3 105.28C527.43 105.27 527.81 105.01 527.81 104.1V77.8603H535.31Z" fill="white"/>
<path d="M317.47 16.4002C317.47 16.5402 317.33 17.5002 317.3 18.9902L317.27 20.1702H305.31C305.31 17.7702 306.18 16.3602 308.24 14.4702L310.55 12.3602C313.06 10.0202 313.99 8.86017 313.99 6.55017C313.99 4.55017 313.03 3.17017 310.49 3.17017C307.95 3.17017 306.94 4.07021 305.87 5.65021C305.87 5.65021 305.93 4.92019 305.93 3.76019C305.93 2.52019 305.87 1.98016 305.87 1.98016C305.87 1.98016 307.39 1.16016 310.89 1.16016C315.82 1.16016 317.46 3.28019 317.46 6.26019C317.46 9.50019 315.96 11.0002 312.86 13.5102L310.74 15.2302C309.44 16.2402 308.43 17.2302 308.43 17.7402H313.36C314.69 17.7402 315.78 17.5102 316.46 17.1202C317.14 16.7202 317.39 16.4702 317.45 16.3902L317.47 16.4002Z" fill="white"/>
<path d="M328.27 20.5197C322.29 20.5197 320.94 15.4997 320.94 10.8197C320.94 7.0697 322.01 1.17969 328.55 1.17969C334.53 1.17969 335.88 6.22967 335.88 10.9097C335.88 14.6597 334.81 20.5297 328.27 20.5297V20.5197ZM328.53 3.17969C326.7 3.17969 325.68 3.99969 325.12 5.48969C324.53 7.06969 324.39 9.3797 324.39 10.8197C324.39 16.5197 325.63 18.5497 328.31 18.5497C330.11 18.5497 331.13 17.7297 331.69 16.2897C332.31 14.7397 332.45 12.3997 332.45 10.8997C332.45 5.17972 331.21 3.16968 328.53 3.16968V3.17969Z" fill="white"/>
<path d="M343.81 20.1512C342.09 20.1512 341.27 20.2112 341.27 20.2112L341.52 19.7312C342.08 18.6912 342.23 18.4612 342.23 10.0012V4.6712C342.23 4.2712 342.15 4.08124 341.5 4.08124H338.26C339.47 1.91124 343.48 2.42125 345.65 0.78125C345.65 0.78125 345.4 4.45121 345.4 10.9312C345.4 18.4612 345.51 18.6012 346.11 19.7312L346.36 20.2112C346.36 20.2112 345.63 20.1512 343.82 20.1512H343.81Z" fill="white"/>
<path d="M355.74 22.0411C351.43 22.0411 350.24 19.7611 350.24 19.0511C350.24 19.0511 351.45 19.9811 354.53 19.9811C358.22 19.9811 359.58 18.2011 359.58 15.2711C359.58 12.1111 357.92 10.9811 355.07 10.9811C352.45 10.9811 351.38 11.6911 351.38 11.6911V1.43109H358.46C361.84 1.43109 362.27 1.12109 362.27 1.12109C362.27 1.12109 362.24 1.63109 362.24 2.62109C362.24 3.75109 362.27 4.20111 362.27 4.20111C362.27 4.20111 361.82 3.89111 358.46 3.89111H353.78V9.33112C353.78 9.33112 354.65 9.02112 356.63 9.02112C360.69 9.02112 363.06 11.1911 363.06 15.0511C363.06 20.9411 358.66 22.0411 355.76 22.0411H355.74Z" fill="white"/>
<path d="M495.56 16.4002C495.56 16.5402 495.42 17.5002 495.39 18.9902L495.36 20.1702H483.4C483.4 17.7702 484.27 16.3602 486.33 14.4702L488.64 12.3602C491.15 10.0202 492.08 8.86017 492.08 6.55017C492.08 4.55017 491.12 3.17017 488.58 3.17017C486.04 3.17017 485.03 4.07021 483.96 5.65021C483.96 5.65021 484.02 4.92019 484.02 3.76019C484.02 2.52019 483.96 1.98016 483.96 1.98016C483.96 1.98016 485.48 1.16016 488.98 1.16016C493.91 1.16016 495.55 3.28019 495.55 6.26019C495.55 9.50019 494.05 11.0002 490.95 13.5102L488.83 15.2302C487.53 16.2402 486.52 17.2302 486.52 17.7402H491.45C492.78 17.7402 493.87 17.5102 494.55 17.1202C495.23 16.7202 495.48 16.4702 495.54 16.3902L495.56 16.4002Z" fill="white"/>
<path d="M506.36 20.5197C500.38 20.5197 499.03 15.4997 499.03 10.8197C499.03 7.0697 500.1 1.17969 506.64 1.17969C512.62 1.17969 513.97 6.22967 513.97 10.9097C513.97 14.6597 512.9 20.5297 506.36 20.5297V20.5197ZM506.61 3.17969C504.78 3.17969 503.76 3.99969 503.2 5.48969C502.61 7.06969 502.47 9.3797 502.47 10.8197C502.47 16.5197 503.71 18.5497 506.39 18.5497C508.19 18.5497 509.21 17.7297 509.77 16.2897C510.39 14.7397 510.53 12.3997 510.53 10.8997C510.53 5.17972 509.29 3.16968 506.61 3.16968V3.17969Z" fill="white"/>
<path d="M528.5 16.4002C528.5 16.5402 528.36 17.5002 528.33 18.9902L528.3 20.1702H516.34C516.34 17.7702 517.21 16.3602 519.27 14.4702L521.58 12.3602C524.09 10.0202 525.02 8.86017 525.02 6.55017C525.02 4.55017 524.06 3.17017 521.52 3.17017C518.98 3.17017 517.97 4.07021 516.9 5.65021C516.9 5.65021 516.96 4.92019 516.96 3.76019C516.96 2.52019 516.9 1.98016 516.9 1.98016C516.9 1.98016 518.42 1.16016 521.92 1.16016C526.85 1.16016 528.49 3.28019 528.49 6.26019C528.49 9.50019 526.99 11.0002 523.89 13.5102L521.77 15.2302C520.47 16.2402 519.46 17.2302 519.46 17.7402H524.39C525.72 17.7402 526.81 17.5102 527.49 17.1202C528.17 16.7202 528.42 16.4702 528.48 16.3902L528.5 16.4002Z" fill="white"/>
<path d="M537.02 22.0411C532.71 22.0411 531.52 19.7611 531.52 19.0511C531.52 19.0511 532.73 19.9811 535.81 19.9811C539.5 19.9811 540.86 18.2011 540.86 15.2711C540.86 12.1111 539.2 10.9811 536.35 10.9811C533.73 10.9811 532.66 11.6911 532.66 11.6911V1.43109H539.74C543.12 1.43109 543.55 1.12109 543.55 1.12109C543.55 1.12109 543.52 1.63109 543.52 2.62109C543.52 3.75109 543.55 4.20111 543.55 4.20111C543.55 4.20111 543.1 3.89111 539.74 3.89111H535.06V9.33112C535.06 9.33112 535.93 9.02112 537.91 9.02112C541.97 9.02112 544.34 11.1911 544.34 15.0511C544.34 20.9411 539.94 22.0411 537.04 22.0411H537.02Z" fill="white"/>
<path d="M374.19 10.9922H475.11" stroke="white" stroke-width="1.13" stroke-miterlimit="10"/>
<path d="M10.95 14.8206V16.6406H1V14.8206H10.95ZM10.92 6.03064V7.8606H1.01001V6.03064H10.92ZM10.51 10.8206V12.6406H1.52002V10.8206H10.51ZM10.38 2.28064V4.08063H1.67004V2.28064H10.38ZM4.01001 7.82062C4.48001 8.64062 4.94998 9.75062 5.09998 10.4506L3.43994 11.0006C3.30994 10.2806 2.87994 9.14059 2.43994 8.29059L4.01001 7.82062ZM7.07996 0.140625V6.69061H5.09998V0.140625H7.07996ZM7.07996 11.5506V20.9706H5.09998V11.5506H7.07996ZM9.90002 8.2406C9.26002 9.5106 8.55994 10.8806 7.93994 11.8006L6.40002 11.3506C6.99002 10.3806 7.71996 8.85064 8.07996 7.78064L9.90002 8.25061V8.2406ZM19.8199 1.10059V2.9906H13.63V21.0106H11.6801V1.10059H19.8199ZM19.86 8.82062V10.5506H12.6899V8.82062H19.86ZM19.6 8.82062L19.96 8.7406L21.25 9.21063C20.38 14.2106 18.13 18.6306 14.51 21.1006C14.18 20.6106 13.56 20.0106 13.09 19.6506C16.45 17.4706 18.55 13.3906 19.22 9.27063V8.83063H19.6V8.82062ZM22.0699 19.1906C21.5999 19.5906 20.96 20.3606 20.63 20.9106C17.2 18.9106 14.83 14.9006 13.52 10.2906L15.16 9.87061C16.33 13.8906 18.7599 17.5506 22.0699 19.1906ZM20.73 1.10059V5.42059C20.73 6.39059 20.53 6.95061 19.74 7.25061C18.97 7.55061 17.8 7.56061 16.09 7.56061C16.01 6.99061 15.73 6.23062 15.47 5.70062C16.74 5.74062 17.95 5.74059 18.3 5.73059C18.66 5.71059 18.75 5.64062 18.75 5.39062V1.10059H20.73Z" fill="white"/>
<path d="M45.3099 14.93V16.59H25.1099V14.93H45.3099ZM30.3699 6.84998L30.6898 6.78003L31.4299 7.32001C30.4799 10.54 28.4799 12.91 26.2399 14.21C26.0499 13.79 25.4899 13.02 25.1399 12.72C27.1799 11.65 28.9599 9.63001 29.6799 7.14001V6.84003H30.3699V6.84998ZM25.3499 7.20001C25.6499 7.12001 26.0099 6.96999 26.4299 6.60999C27.0199 6.07999 28.8799 4.12 29.5399 3.25V3.17999L30.1199 2.96002L31.3298 3.60999C30.3698 4.74999 28.5899 6.63998 27.3999 7.72998C27.3999 7.72998 26.0299 8.39999 26.0299 8.85999C25.9099 8.42999 25.5399 7.57001 25.3599 7.20001H25.3499ZM30.0999 3.13V4.82001H25.5399V3.13H30.0999ZM26.0299 7.28003L26.9099 6.84998H30.2499V8.53998H27.3699C26.8299 8.53998 26.1999 8.69 26.0299 8.87V7.28003ZM28.4299 0.150024C28.9499 0.840024 29.4999 1.76 29.7999 2.37L27.9698 2.89001C27.7098 2.26001 27.1399 1.27 26.6699 0.559998L28.4398 0.150024H28.4299ZM37.1099 12.1C39.7099 12.1 43.3499 12 45.8599 11.76C45.5699 12.18 45.3299 13.05 45.2299 13.6C42.9399 13.71 39.8199 13.79 37.1099 13.79C32.3999 13.79 30.1499 13.29 28.7999 10.12L29.9598 9.53998C31.0498 11.85 33.2199 12.1 37.1099 12.1ZM30.6799 16.36C31.7799 17.13 33.1199 18.28 33.7599 19.09L32.1898 20.4C31.6198 19.58 30.3098 18.36 29.2098 17.54L30.6799 16.36ZM45.1599 2.08002V3.57001H30.9799V2.08002H45.1599ZM43.4199 4.52002V11.31H32.4999V4.52002H43.4199ZM35.3298 0C35.8098 0.62 36.3199 1.49002 36.5199 2.08002L34.7198 2.62C34.5298 2.02 34.0699 1.13003 33.6099 0.470032L35.3198 0H35.3298ZM34.2899 6.42999H41.5499V5.57001H34.2899V6.42999ZM34.2899 8.33002H41.5499V7.42999H34.2899V8.33002ZM34.2899 10.26H41.5499V9.34003H34.2899V10.26ZM40.5199 13.88V18.84C40.5199 19.86 40.3199 20.38 39.4999 20.67C38.7199 20.97 37.5299 20.97 35.7599 20.97C35.6599 20.41 35.3498 19.65 35.0698 19.12C36.3598 19.16 37.6299 19.16 37.9999 19.15C38.3499 19.14 38.4498 19.06 38.4498 18.78V13.87H40.5199V13.88ZM39.1699 2.82001C38.7899 3.68001 38.3998 4.44998 38.0798 5.03998L36.3799 4.78003C36.6299 4.13003 36.9199 3.24002 37.0399 2.65002L39.1699 2.82001ZM42.6898 0.440002C42.1598 1.32 41.5699 2.14998 41.1299 2.72998L39.4299 2.34998C39.8699 1.69998 40.4098 0.730007 40.6898 0.0700073L42.6998 0.440002H42.6898Z" fill="white"/>
<path d="M68.35 1.78979C63.88 7.8198 57.04 12.2998 49.79 15.0298C49.53 14.5698 48.87 13.6898 48.46 13.2498C55.77 10.7998 62.45 6.44982 66.52 0.819824L68.35 1.78979ZM69.26 7.1698V9.05981H49.05V7.1698H69.26ZM64.03 2.75983V4.62982H51.02V2.75983H64.03ZM66.5699 11.1998V20.9698H64.35V12.9798H55.77V21.0598H53.64V11.1998H66.5601H66.5699ZM65.22 14.8698V16.5298H54.83V14.8698H65.22ZM65.22 18.5298V20.3498H54.83V18.5298H65.22ZM58.72 0.0898438V8.20984H56.61V0.0898438H58.72Z" fill="white"/>
<path d="M134.79 10.9014L135.14 10.8514L136.18 11.2214C135.51 16.0314 133.89 19.3214 131.58 21.0814C131.29 20.6514 130.59 19.9314 130.18 19.6414C132.32 18.1014 133.78 15.2214 134.29 11.2414V10.9014H134.8H134.79ZM130.31 11.1314C130.65 11.0314 131.02 10.8714 131.39 10.4214C132 9.76139 133.91 6.74138 134.59 5.54138V5.47144L135.16 5.24139L136.51 5.79138C135.54 7.33138 133.7 10.2414 132.52 11.6914C132.52 11.6914 131.03 12.4314 131.03 12.9314C130.91 12.4614 130.52 11.5314 130.3 11.1414L130.31 11.1314ZM135.16 5.34143V7.08142H130.68V5.34143H135.16ZM131.04 11.3414L131.91 10.8914H135.03V12.5814H132.36C131.85 12.5814 131.23 12.7314 131.05 12.9114V11.3314L131.04 11.3414ZM132.97 0.191406C133.94 1.29141 135.11 2.72143 135.68 3.65143L134 4.72144C133.44 3.77144 132.27 2.20142 131.34 1.08142L132.97 0.191406ZM143.35 18.8414C145.76 18.8414 149.26 18.7214 151.7 18.4914C151.38 18.9514 151.11 19.9314 151 20.5114C148.77 20.6514 145.88 20.7114 143.32 20.7114C138.02 20.7114 135.11 20.0614 133.42 16.0714L134.84 15.4514C136.15 18.4514 138.99 18.8314 143.34 18.8414H143.35ZM139.46 0.941406V6.80139C139.46 9.90139 139.26 14.4014 137.96 17.4314C137.58 17.1214 136.7 16.6014 136.22 16.4214C137.43 13.5914 137.52 9.64139 137.52 6.80139V0.941406H139.46ZM149.09 0.941406V2.69141H138.68V0.941406H149.09ZM148.8 7.63141V9.1214H139.01V7.63141H148.8ZM148.56 4.35138V5.84143H139.17V4.35138H148.56ZM146.66 10.3814V15.4414H145.11V11.8314H142.08V16.1414H140.59V10.3814H146.66ZM146.41 13.9714V15.4514H140.86V13.9714H146.41ZM144.52 2.46143V8.1814H142.73V2.46143H144.52ZM150.14 0.941406V15.4614C150.14 16.4714 149.92 16.9914 149.28 17.3014C148.63 17.6114 147.63 17.6414 146.05 17.6414C145.98 17.1214 145.72 16.3314 145.47 15.8314C146.48 15.8714 147.47 15.8714 147.75 15.8514C148.06 15.8514 148.17 15.7414 148.17 15.4414V0.941406H150.14Z" fill="white"/>
<path d="M175.17 13.9417V16.0017H154.58V13.9417H175.17ZM161.72 0.571716C160.49 3.91172 158.49 7.1017 156.43 9.1217C156.02 8.7517 155.11 8.0517 154.58 7.7417C156.68 5.9317 158.5 3.01172 159.55 0.0117188L161.72 0.571716ZM173.51 7.9317V9.92169H160.38V15.0017H158.25V7.9317H173.51ZM174.03 2.72174V4.78174H158.53L159.56 2.72174H174.03ZM167.15 3.79169V21.0617H164.96V3.79169H167.15Z" fill="white"/>
<path d="M10.95 14.8206V16.6406H1V14.8206H10.95ZM10.92 6.03064V7.8606H1.01001V6.03064H10.92ZM10.51 10.8206V12.6406H1.52002V10.8206H10.51ZM10.38 2.28064V4.08063H1.67004V2.28064H10.38ZM4.01001 7.82062C4.48001 8.64062 4.94998 9.75062 5.09998 10.4506L3.43994 11.0006C3.30994 10.2806 2.87994 9.14059 2.43994 8.29059L4.01001 7.82062ZM7.07996 0.140625V6.69061H5.09998V0.140625H7.07996ZM7.07996 11.5506V20.9706H5.09998V11.5506H7.07996ZM9.90002 8.2406C9.26002 9.5106 8.55994 10.8806 7.93994 11.8006L6.40002 11.3506C6.99002 10.3806 7.71996 8.85064 8.07996 7.78064L9.90002 8.25061V8.2406ZM19.8199 1.10059V2.9906H13.63V21.0106H11.6801V1.10059H19.8199ZM19.86 8.82062V10.5506H12.6899V8.82062H19.86ZM19.6 8.82062L19.96 8.7406L21.25 9.21063C20.38 14.2106 18.13 18.6306 14.51 21.1006C14.18 20.6106 13.56 20.0106 13.09 19.6506C16.45 17.4706 18.55 13.3906 19.22 9.27063V8.83063H19.6V8.82062ZM22.0699 19.1906C21.5999 19.5906 20.96 20.3606 20.63 20.9106C17.2 18.9106 14.83 14.9006 13.52 10.2906L15.16 9.87061C16.33 13.8906 18.7599 17.5506 22.0699 19.1906ZM20.73 1.10059V5.42059C20.73 6.39059 20.53 6.95061 19.74 7.25061C18.97 7.55061 17.8 7.56061 16.09 7.56061C16.01 6.99061 15.73 6.23062 15.47 5.70062C16.74 5.74062 17.95 5.74059 18.3 5.73059C18.66 5.71059 18.75 5.64062 18.75 5.39062V1.10059H20.73Z" fill="white"/>
<path d="M45.3099 14.93V16.59H25.1099V14.93H45.3099ZM30.3699 6.84998L30.6898 6.78003L31.4299 7.32001C30.4799 10.54 28.4799 12.91 26.2399 14.21C26.0499 13.79 25.4899 13.02 25.1399 12.72C27.1799 11.65 28.9599 9.63001 29.6799 7.14001V6.84003H30.3699V6.84998ZM25.3499 7.20001C25.6499 7.12001 26.0099 6.96999 26.4299 6.60999C27.0199 6.07999 28.8799 4.12 29.5399 3.25V3.17999L30.1199 2.96002L31.3298 3.60999C30.3698 4.74999 28.5899 6.63998 27.3999 7.72998C27.3999 7.72998 26.0299 8.39999 26.0299 8.85999C25.9099 8.42999 25.5399 7.57001 25.3599 7.20001H25.3499ZM30.0999 3.13V4.82001H25.5399V3.13H30.0999ZM26.0299 7.28003L26.9099 6.84998H30.2499V8.53998H27.3699C26.8299 8.53998 26.1999 8.69 26.0299 8.87V7.28003ZM28.4299 0.150024C28.9499 0.840024 29.4999 1.76 29.7999 2.37L27.9698 2.89001C27.7098 2.26001 27.1399 1.27 26.6699 0.559998L28.4398 0.150024H28.4299ZM37.1099 12.1C39.7099 12.1 43.3499 12 45.8599 11.76C45.5699 12.18 45.3299 13.05 45.2299 13.6C42.9399 13.71 39.8199 13.79 37.1099 13.79C32.3999 13.79 30.1499 13.29 28.7999 10.12L29.9598 9.53998C31.0498 11.85 33.2199 12.1 37.1099 12.1ZM30.6799 16.36C31.7799 17.13 33.1199 18.28 33.7599 19.09L32.1898 20.4C31.6198 19.58 30.3098 18.36 29.2098 17.54L30.6799 16.36ZM45.1599 2.08002V3.57001H30.9799V2.08002H45.1599ZM43.4199 4.52002V11.31H32.4999V4.52002H43.4199ZM35.3298 0C35.8098 0.62 36.3199 1.49002 36.5199 2.08002L34.7198 2.62C34.5298 2.02 34.0699 1.13003 33.6099 0.470032L35.3198 0H35.3298ZM34.2899 6.42999H41.5499V5.57001H34.2899V6.42999ZM34.2899 8.33002H41.5499V7.42999H34.2899V8.33002ZM34.2899 10.26H41.5499V9.34003H34.2899V10.26ZM40.5199 13.88V18.84C40.5199 19.86 40.3199 20.38 39.4999 20.67C38.7199 20.97 37.5299 20.97 35.7599 20.97C35.6599 20.41 35.3498 19.65 35.0698 19.12C36.3598 19.16 37.6299 19.16 37.9999 19.15C38.3499 19.14 38.4498 19.06 38.4498 18.78V13.87H40.5199V13.88ZM39.1699 2.82001C38.7899 3.68001 38.3998 4.44998 38.0798 5.03998L36.3799 4.78003C36.6299 4.13003 36.9199 3.24002 37.0399 2.65002L39.1699 2.82001ZM42.6898 0.440002C42.1598 1.32 41.5699 2.14998 41.1299 2.72998L39.4299 2.34998C39.8699 1.69998 40.4098 0.730007 40.6898 0.0700073L42.6998 0.440002H42.6898Z" fill="white"/>
<path d="M68.35 1.78979C63.88 7.8198 57.04 12.2998 49.79 15.0298C49.53 14.5698 48.87 13.6898 48.46 13.2498C55.77 10.7998 62.45 6.44982 66.52 0.819824L68.35 1.78979ZM69.26 7.1698V9.05981H49.05V7.1698H69.26ZM64.03 2.75983V4.62982H51.02V2.75983H64.03ZM66.5699 11.1998V20.9698H64.35V12.9798H55.77V21.0598H53.64V11.1998H66.5601H66.5699ZM65.22 14.8698V16.5298H54.83V14.8698H65.22ZM65.22 18.5298V20.3498H54.83V18.5298H65.22ZM58.72 0.0898438V8.20984H56.61V0.0898438H58.72Z" fill="white"/>
<path d="M134.79 10.9014L135.14 10.8514L136.18 11.2214C135.51 16.0314 133.89 19.3214 131.58 21.0814C131.29 20.6514 130.59 19.9314 130.18 19.6414C132.32 18.1014 133.78 15.2214 134.29 11.2414V10.9014H134.8H134.79ZM130.31 11.1314C130.65 11.0314 131.02 10.8714 131.39 10.4214C132 9.76139 133.91 6.74138 134.59 5.54138V5.47144L135.16 5.24139L136.51 5.79138C135.54 7.33138 133.7 10.2414 132.52 11.6914C132.52 11.6914 131.03 12.4314 131.03 12.9314C130.91 12.4614 130.52 11.5314 130.3 11.1414L130.31 11.1314ZM135.16 5.34143V7.08142H130.68V5.34143H135.16ZM131.04 11.3414L131.91 10.8914H135.03V12.5814H132.36C131.85 12.5814 131.23 12.7314 131.05 12.9114V11.3314L131.04 11.3414ZM132.97 0.191406C133.94 1.29141 135.11 2.72143 135.68 3.65143L134 4.72144C133.44 3.77144 132.27 2.20142 131.34 1.08142L132.97 0.191406ZM143.35 18.8414C145.76 18.8414 149.26 18.7214 151.7 18.4914C151.38 18.9514 151.11 19.9314 151 20.5114C148.77 20.6514 145.88 20.7114 143.32 20.7114C138.02 20.7114 135.11 20.0614 133.42 16.0714L134.84 15.4514C136.15 18.4514 138.99 18.8314 143.34 18.8414H143.35ZM139.46 0.941406V6.80139C139.46 9.90139 139.26 14.4014 137.96 17.4314C137.58 17.1214 136.7 16.6014 136.22 16.4214C137.43 13.5914 137.52 9.64139 137.52 6.80139V0.941406H139.46ZM149.09 0.941406V2.69141H138.68V0.941406H149.09ZM148.8 7.63141V9.1214H139.01V7.63141H148.8ZM148.56 4.35138V5.84143H139.17V4.35138H148.56ZM146.66 10.3814V15.4414H145.11V11.8314H142.08V16.1414H140.59V10.3814H146.66ZM146.41 13.9714V15.4514H140.86V13.9714H146.41ZM144.52 2.46143V8.1814H142.73V2.46143H144.52ZM150.14 0.941406V15.4614C150.14 16.4714 149.92 16.9914 149.28 17.3014C148.63 17.6114 147.63 17.6414 146.05 17.6414C145.98 17.1214 145.72 16.3314 145.47 15.8314C146.48 15.8714 147.47 15.8714 147.75 15.8514C148.06 15.8514 148.17 15.7414 148.17 15.4414V0.941406H150.14Z" fill="white"/>
<path d="M175.17 13.9417V16.0017H154.58V13.9417H175.17ZM161.72 0.571716C160.49 3.91172 158.49 7.1017 156.43 9.1217C156.02 8.7517 155.11 8.0517 154.58 7.7417C156.68 5.9317 158.5 3.01172 159.55 0.0117188L161.72 0.571716ZM173.51 7.9317V9.92169H160.38V15.0017H158.25V7.9317H173.51ZM174.03 2.72174V4.78174H158.53L159.56 2.72174H174.03ZM167.15 3.79169V21.0617H164.96V3.79169H167.15Z" fill="white"/>
<path d="M83.6199 20.1591C81.8999 20.1591 81.0798 20.2191 81.0798 20.2191L81.3298 19.7391C81.8898 18.6991 82.0399 18.4691 82.0399 10.0091V4.67908C82.0399 4.28908 81.9599 4.08911 81.3099 4.08911H78.0698C79.2798 1.91911 83.2898 2.42906 85.4598 0.789062C85.4598 0.789062 85.2098 4.45909 85.2098 10.9391C85.2098 18.4691 85.3199 18.6091 85.9199 19.7391L86.1699 20.2191C86.1699 20.2191 85.4399 20.1591 83.6299 20.1591H83.6199Z" fill="white"/>
<path d="M97.8397 20.5275C91.8597 20.5275 90.5098 15.5075 90.5098 10.8275C90.5098 7.07751 91.5798 1.1875 98.1198 1.1875C104.1 1.1875 105.45 6.23748 105.45 10.9175C105.45 14.6675 104.38 20.5375 97.8397 20.5375V20.5275ZM98.0897 3.17749C96.2597 3.17749 95.2398 3.99749 94.6798 5.48749C94.0898 7.06749 93.9497 9.3775 93.9497 10.8175C93.9497 16.5175 95.1898 18.5475 97.8698 18.5475C99.6698 18.5475 100.69 17.7275 101.25 16.2875C101.87 14.7375 102.01 12.3975 102.01 10.8975C102.01 5.17752 100.77 3.16748 98.0897 3.16748V3.17749Z" fill="white"/>
<path d="M110.73 20.3486C109.72 20.3486 109.18 19.9886 108.88 19.5086C108.61 19.0986 108.52 18.5486 108.52 17.3886C108.52 13.6186 108.57 12.3186 108.57 12.3186H107.54C107.54 12.3186 108.11 11.8486 108.68 10.9486C109.28 10.0486 109.6 9.30859 109.6 9.30859H110.31V11.2786H111.32C112.61 11.2786 112.87 11.1086 112.87 11.1086C112.87 11.1086 112.85 11.3286 112.85 11.8086C112.85 12.2886 112.87 12.4886 112.87 12.4886C112.87 12.4886 112.63 12.3286 111.32 12.3286H110.31V17.4586C110.31 18.1686 110.36 18.4386 110.5 18.7186C110.67 19.0686 111.01 19.2886 111.61 19.2886C112.49 19.2886 112.92 18.8186 112.92 18.8186C112.92 19.0886 112.73 20.3486 110.74 20.3486H110.73Z" fill="white"/>
<path d="M120.83 20.1678C119.82 20.1678 119.42 20.1978 119.42 20.1978L119.56 19.9278C119.81 19.4678 119.97 19.3878 119.97 15.9478C119.97 14.1978 119.92 13.4178 119.64 12.9578C119.43 12.6278 119.07 12.2778 118.19 12.2778C116.56 12.2778 116.31 13.2578 116.31 13.2578V15.8978C116.31 19.3378 116.45 19.4678 116.71 19.9278L116.85 20.1978C116.85 20.1978 116.47 20.1678 115.46 20.1678C114.45 20.1678 114.04 20.1978 114.04 20.1978L114.18 19.9278C114.43 19.4678 114.57 19.3478 114.57 15.8978V12.0478C114.57 9.31779 114.43 8.87779 114.18 8.41779L114.04 8.14783L116.36 7.75781C116.36 7.75781 116.31 9.36779 116.31 10.5478V11.8078C116.31 12.4978 116.26 13.0878 116.26 13.0878C116.64 11.3978 117.85 11.0378 118.9 11.0378C120.1 11.0378 120.89 11.4478 121.28 12.1878C121.64 12.8478 121.72 13.6078 121.72 15.4578V15.8978C121.72 19.3378 121.85 19.4678 122.1 19.9278L122.24 20.1978C122.24 20.1978 121.83 20.1678 120.82 20.1678H120.83Z" fill="white"/>
<path d="M193.45 20.1687C192.52 20.1687 191.84 20.1987 191.84 20.1987C192.05 20.0587 192.35 19.7887 192.35 19.1987C192.35 18.6587 192.08 17.7487 191.77 16.6587L191.49 15.7287H188.05L187.78 16.6587C187.48 17.7487 187.18 18.6587 187.18 19.1987C187.18 19.7787 187.48 20.0487 187.69 20.1987C187.69 20.1987 187.14 20.1687 186.24 20.1687C185.34 20.1687 184.82 20.1987 184.82 20.1987C185.4 19.6287 185.7 18.6387 186.38 16.4587L188.4 9.87872C188.45 9.68872 188.51 9.49871 188.51 9.29871C188.51 9.07871 188.43 8.97875 188.4 8.96875H191.7C191.7 8.96875 191.61 9.07871 191.61 9.29871C191.61 9.50871 191.66 9.69872 191.72 9.87872L193.6 16.4587C194.22 18.6387 194.5 19.6287 195.08 20.1987C195.08 20.1987 194.46 20.1687 193.47 20.1687H193.45ZM190.11 10.7287C189.92 10.0787 189.81 9.66871 189.79 9.54871C189.76 9.65871 189.66 10.0387 189.46 10.7287L188.35 14.5787H191.18L190.11 10.7287Z" fill="white"/>
<path d="M202.91 20.1708C201.9 20.1708 201.5 20.2008 201.5 20.2008L201.64 19.9308C201.89 19.4708 202.04 19.3608 202.04 15.9208C202.04 14.1808 201.99 13.3908 201.71 12.9308C201.5 12.6008 201.13 12.2408 200.26 12.2408C198.63 12.2408 198.38 13.2308 198.38 13.2308V15.9008C198.38 19.3408 198.52 19.4708 198.77 19.9308L198.91 20.2008C198.91 20.2008 198.51 20.1708 197.52 20.1708C196.53 20.1708 196.1 20.2008 196.1 20.2008L196.24 19.9308C196.49 19.4708 196.63 19.3508 196.63 15.9008V15.4008C196.63 12.6708 196.49 12.2308 196.24 11.7708L196.1 11.5008L198.36 11.1108L198.3 13.1208C198.68 11.4308 199.88 11.0508 200.97 11.0508C202.15 11.0508 202.96 11.4608 203.35 12.2008C203.71 12.8608 203.78 13.6208 203.78 15.4708V15.9108C203.78 19.3508 203.92 19.4808 204.17 19.9408L204.31 20.2108C204.31 20.2108 203.91 20.1808 202.9 20.1808L202.91 20.1708Z" fill="white"/>
<path d="M213.1 20.1708C212.09 20.1708 211.69 20.2008 211.69 20.2008L211.83 19.9308C212.08 19.4708 212.23 19.3608 212.23 15.9208C212.23 14.1808 212.18 13.3908 211.9 12.9308C211.69 12.6008 211.32 12.2408 210.45 12.2408C208.82 12.2408 208.57 13.2308 208.57 13.2308V15.9008C208.57 19.3408 208.71 19.4708 208.96 19.9308L209.1 20.2008C209.1 20.2008 208.7 20.1708 207.71 20.1708C206.72 20.1708 206.29 20.2008 206.29 20.2008L206.43 19.9308C206.68 19.4708 206.82 19.3508 206.82 15.9008V15.4008C206.82 12.6708 206.68 12.2308 206.43 11.7708L206.29 11.5008L208.55 11.1108L208.49 13.1208C208.87 11.4308 210.07 11.0508 211.16 11.0508C212.34 11.0508 213.15 11.4608 213.54 12.2008C213.9 12.8608 213.97 13.6208 213.97 15.4708V15.9108C213.97 19.3508 214.11 19.4808 214.36 19.9408L214.5 20.2108C214.5 20.2108 214.1 20.1808 213.09 20.1808L213.1 20.1708Z" fill="white"/>
<path d="M217.9 20.1697C216.87 20.1697 216.48 20.1997 216.48 20.1997L216.62 19.9297C216.92 19.3797 217.01 19.0597 217.01 15.8997V15.3997C217.01 12.6697 216.87 12.2297 216.62 11.7697L216.48 11.4997L218.9 11.1097C218.9 11.1097 218.76 11.9897 218.76 15.3897V15.9097C218.76 18.8297 218.82 19.3097 219.15 19.9397L219.29 20.2097C219.29 20.2097 218.89 20.1797 217.9 20.1797V20.1697ZM217.87 9.91968C217.21 9.91968 216.72 9.6197 216.72 8.9397C216.72 8.2597 217.19 7.92969 217.89 7.92969C218.54 7.92969 219.03 8.22971 219.03 8.88971C219.03 9.61971 218.57 9.91968 217.88 9.91968H217.87Z" fill="white"/>
<path d="M227.47 14.7887L225.67 20.2087C225.67 20.2087 225.24 20.1787 224.52 20.1787C223.8 20.1787 223.37 20.2087 223.37 20.2087L221.68 14.8287C220.94 12.5087 220.68 11.6587 220.18 11.2287C220.18 11.2287 220.65 11.2587 221.68 11.2587C222.83 11.2587 223.27 11.2287 223.27 11.2287C223.06 11.3687 222.81 11.5887 222.81 12.1487C222.81 12.5787 222.98 13.1887 223.41 14.6587L224.48 18.3187C224.59 18.7087 224.69 19.1388 224.7 19.2188C224.7 19.1687 224.81 18.7487 224.94 18.3187L226.03 14.7787C226.5 13.2487 226.69 12.5787 226.69 12.1387C226.69 11.5887 226.47 11.3688 226.26 11.2188C226.26 11.2188 226.7 11.2487 227.65 11.2487C228.6 11.2487 229.01 11.2188 229.01 11.2188C228.46 11.7088 228.08 12.9287 227.46 14.7887H227.47Z" fill="white"/>
<path d="M231.46 15.7791C231.46 17.4391 232.04 19.1391 234.18 19.1391C236.32 19.1391 236.93 18.0491 236.93 18.0491C236.93 19.1991 236.03 20.3591 233.69 20.3591C231.35 20.3591 229.61 18.8791 229.61 15.7591C229.61 12.4591 231.41 11.0391 233.59 11.0391C236.97 11.0391 237.27 13.8491 237.27 15.6391V15.7791H231.46ZM233.54 12.0491C232.59 12.0491 231.5 12.4491 231.46 14.9391L235.42 14.6391C235.42 13.6791 235.29 12.0491 233.54 12.0491Z" fill="white"/>
<path d="M242.83 12.5003C241.5 12.5003 241.28 13.4203 241.28 13.4203V15.9203C241.28 19.3603 241.44 19.4903 241.69 19.9503L241.83 20.2203C241.83 20.2203 241.42 20.1903 240.42 20.1903C239.42 20.1903 239 20.2203 239 20.2203L239.14 19.9503C239.39 19.4903 239.53 19.3703 239.53 15.9203V15.4203C239.53 12.6903 239.39 12.2503 239.14 11.7903L239 11.5203L241.26 11.1303L241.18 13.3303C241.59 11.2803 242.9 11.0703 243.39 11.0703C244.21 11.0703 244.48 11.3603 244.48 11.3603C244.48 11.3603 244.45 11.7203 244.45 12.4003C244.45 13.2403 244.48 13.5403 244.48 13.5403C244.05 12.8803 243.56 12.5303 242.82 12.5303L242.83 12.5003Z" fill="white"/>
<path d="M247.98 20.2803C246.42 20.2803 245.53 19.7903 245.53 19.7903C245.53 19.7903 245.56 19.4903 245.56 18.8103C245.56 18.1303 245.53 17.6903 245.53 17.6903C246.15 18.6403 246.75 19.2103 247.9 19.2103C249.19 19.2103 249.49 18.5803 249.49 17.9803C249.49 17.3503 249.16 17.0203 248.59 16.6903L247.22 15.9003C246.52 15.5203 245.58 14.9803 245.58 13.5003C245.58 11.8103 246.76 11.0703 248.56 11.0703C250.11 11.0703 250.88 11.5403 250.88 11.5403C250.88 11.5403 250.85 11.8603 250.85 12.5403C250.85 13.2203 250.88 13.6303 250.88 13.6303C250.3 12.7503 249.71 12.1103 248.64 12.1103C248.1 12.1103 247.19 12.1903 247.19 13.2003C247.19 13.8603 247.6 14.1603 248.39 14.6103L249.46 15.2103C250.49 15.7603 251.17 16.4303 251.17 17.6703C251.17 18.9103 250.46 20.2903 247.98 20.2903V20.2803Z" fill="white"/>
<path d="M258.12 20.3108L258.2 18.4508C257.81 20.1608 256.53 20.3808 255.61 20.3808C253.37 20.3808 252.83 18.8608 252.83 17.7608C252.83 15.0708 255.12 14.9208 256.54 14.9208C257.44 14.9208 258.1 15.0108 258.1 15.0108V14.3108C258.1 13.7108 258.08 13.1308 257.78 12.7308C257.53 12.4008 257.04 12.1608 256.17 12.1608C255.66 12.1608 254.45 12.1908 253.74 13.3008C253.74 13.3008 253.77 12.9408 253.77 12.3708C253.77 11.8008 253.74 11.4908 253.74 11.4908C253.74 11.4908 254.56 11.0508 256.52 11.0508C258.24 11.0508 258.97 11.5108 259.31 11.9708C259.82 12.6008 259.82 13.4208 259.82 14.4308C259.82 14.8708 259.8 15.7908 259.8 17.4208C259.8 18.5708 259.89 19.1408 260.18 19.6608L260.32 19.9308L258.11 20.3208L258.12 20.3108ZM258.1 16.0008C258.1 16.0008 257.75 15.9408 256.87 15.9408C256.05 15.9408 254.64 15.9908 254.64 17.6008C254.64 18.7208 255.35 19.2108 256.27 19.2108C257.75 19.2108 258.1 18.3308 258.1 18.3308V16.0108V16.0008Z" fill="white"/>
<path d="M266.09 12.5003C264.76 12.5003 264.54 13.4203 264.54 13.4203V15.9203C264.54 19.3603 264.7 19.4903 264.95 19.9503L265.09 20.2203C265.09 20.2203 264.68 20.1903 263.68 20.1903C262.68 20.1903 262.26 20.2203 262.26 20.2203L262.4 19.9503C262.65 19.4903 262.79 19.3703 262.79 15.9203V15.4203C262.79 12.6903 262.65 12.2503 262.4 11.7903L262.26 11.5203L264.52 11.1303L264.44 13.3303C264.85 11.2803 266.16 11.0703 266.65 11.0703C267.47 11.0703 267.74 11.3603 267.74 11.3603C267.74 11.3603 267.71 11.7203 267.71 12.4003C267.71 13.2403 267.74 13.5403 267.74 13.5403C267.31 12.8803 266.82 12.5303 266.08 12.5303L266.09 12.5003Z" fill="white"/>
<path d="M275.05 14.8005L272.76 21.4505C272.21 23.0805 271.29 23.5505 269.98 23.5505C268.87 23.5505 268.53 23.3905 268.53 23.3905C268.53 23.3905 268.56 23.0005 268.56 22.4305C268.56 21.8105 268.53 21.3405 268.53 21.3405C269.07 22.1805 269.32 22.4805 269.92 22.4805C270.71 22.4805 271.09 22.0405 271.42 21.1105L271.56 20.7005L269.4 14.8305C268.56 12.5405 268.26 11.6605 267.76 11.2305C267.76 11.2305 268.3 11.2605 269.32 11.2605C270.47 11.2605 270.93 11.2305 270.93 11.2305C270.72 11.3705 270.49 11.5905 270.49 12.1505C270.49 12.6405 270.63 13.1905 271.11 14.6505L272.18 17.8405C272.34 18.3505 272.43 18.8405 272.43 18.8405C272.43 18.8405 272.49 18.4805 272.65 17.9405L273.61 14.8005C274.07 13.2705 274.26 12.6005 274.26 12.1605C274.26 11.6105 274.02 11.3905 273.82 11.2405C273.82 11.2405 274.28 11.2705 275.24 11.2705C276.27 11.2705 276.66 11.2405 276.66 11.2405C276.06 11.7805 275.65 13.0305 275.05 14.8205V14.8005Z" fill="white"/>
</svg>
